<svg width="4253" height="2022" xmlns="http://www.w3.org/2000/svg" xmlns:xlink="http://www.w3.org/1999/xlink" xml:space="preserve" overflow="hidden"><defs><radialGradient cx="1066800" cy="755073" r="1306980" fx="2133600" fy="1510146" gradientUnits="userSpaceOnUse" spreadMethod="pad" id="fill0" gradientTransform="matrix(0.000360892 0 0 0.000360892 3229 756)"><stop offset="0" stop-color="#73262F" stop-opacity="0.101961"/><stop offset="0.8" stop-color="#2A446F" stop-opacity="0.101961"/><stop offset="1" stop-color="#2A446F" stop-opacity="0.101961"/></radialGradient><radialGradient cx="606137" cy="137496" r="263248" fx="852993" fy="228936" gradientUnits="userSpaceOnUse" spreadMethod="pad" id="fill1" gradientTransform="matrix(0.000360892 0 0 0.000360892 896.699 869.02)"><stop offset="0"/><stop offset="0.46602"/><stop offset="0.8"/><stop offset="1"/></radialGradient><radialGradient cx="606137" cy="137495" r="483390" fx="1080800" fy="228935" gradientUnits="userSpaceOnUse" spreadMethod="pad" id="fill2" gradientTransform="matrix(0.000360892 0 0 0.000360892 896.699 1041.82)"><stop offset="0"/><stop offset="0.46602"/><stop offset="0.8"/><stop offset="1"/></radialGradient><radialGradient cx="606137" cy="137496" r="387961" fx="983168" fy="228935" gradientUnits="userSpaceOnUse" spreadMethod="pad" id="fill3" gradientTransform="matrix(0.000360892 0 0 0.000360892 896.699 1216.61)"><stop offset="0"/><stop offset="0.46602"/><stop offset="0.8"/><stop offset="1"/></radialGradient><radialGradient cx="606137" cy="137496" r="338804" fx="932368" fy="228935" gradientUnits="userSpaceOnUse" spreadMethod="pad" id="fill4" gradientTransform="matrix(0.000360892 0 0 0.000360892 896.699 1384.12)"><stop offset="0"/><stop offset="0.46602"/><stop offset="0.8"/><stop offset="1"/></radialGradient><radialGradient cx="606137" cy="137496" r="285697" fx="876805" fy="228935" gradientUnits="userSpaceOnUse" spreadMethod="pad" id="fill5" gradientTransform="matrix(0.000360892 0 0 0.000360892 896.699 1554.86)"><stop offset="0"/><stop offset="0.46602"/><stop offset="0.8"/><stop offset="1"/></radialGradient><radialGradient cx="606137" cy="137496" r="328117" fx="921255" fy="228935" gradientUnits="userSpaceOnUse" spreadMethod="pad" id="fill6" gradientTransform="matrix(0.000360892 0 0 0.000360892 896.699 1724)"><stop offset="0"/><stop offset="0.46602"/><stop offset="0.8"/><stop offset="1"/></radialGradient><radialGradient cx="477210" cy="137496" r="171641" fx="622466" fy="228936" gradientUnits="userSpaceOnUse" spreadMethod="pad" id="fill7" gradientTransform="matrix(0.000360892 0 0 0.000360892 298.956 1278.26)"><stop offset="0"/><stop offset="0.46602"/><stop offset="0.8"/><stop offset="1"/></radialGradient><linearGradient x1="1107.35" y1="492.262" x2="1123.56" y2="711.061" gradientUnits="userSpaceOnUse" spreadMethod="reflect" id="fill8"><stop offset="0" stop-color="#73262F"/><stop offset="0.99" stop-color="#2A446F"/><stop offset="1" stop-color="#2A446F"/></linearGradient><linearGradient x1="3313.71" y1="493.465" x2="3342.13" y2="709.73" gradientUnits="userSpaceOnUse" spreadMethod="reflect" id="fill9"><stop offset="0" stop-color="#73262F"/><stop offset="0.99" stop-color="#2A446F"/><stop offset="1" stop-color="#2A446F"/></linearGradient></defs><g transform="translate(-104 -365)"><path d="M2332.5 520.428C2332.5 485.674 2360.67 457.5 2395.43 457.5L4195.57 457.5C4230.33 457.5 4258.5 485.674 4258.5 520.428L4258.5 2247.57C4258.5 2282.33 4230.33 2310.5 4195.57 2310.5L2395.43 2310.5C2360.67 2310.5 2332.5 2282.33 2332.5 2247.57Z" stroke="#B1B3B3" stroke-width="4.58333" stroke-linecap="round" stroke-miterlimit="8" fill="#FFFFFF" fill-rule="evenodd"/><path d="M3229 819.394C3229 784.383 3257.38 756 3292.39 756L3935.61 756C3970.62 756 3999 784.383 3999 819.394L3999 1237.61C3999 1272.62 3970.62 1301 3935.61 1301L3292.39 1301C3257.38 1301 3229 1272.62 3229 1237.61Z" fill="url(#fill0)" fill-rule="evenodd"/><path d="M184.5 514.427C184.5 479.673 212.673 451.5 247.427 451.5L2061.57 451.5C2096.33 451.5 2124.5 479.673 2124.5 514.427L2124.5 2241.57C2124.5 2276.33 2096.33 2304.5 2061.57 2304.5L247.427 2304.5C212.673 2304.5 184.5 2276.33 184.5 2241.57Z" stroke="#B1B3B3" stroke-width="4.58333" stroke-linecap="round" stroke-miterlimit="8" fill="#FFFFFF" fill-rule="evenodd"/><path d="M883 901.218C883 876.245 903.245 856 928.218 856L1301.78 856C1326.76 856 1347 876.245 1347 901.218L1347 942.782C1347 967.755 1326.76 988 1301.78 988L928.218 988C903.245 988 883 967.755 883 942.782Z" fill="#8DC8E8" fill-rule="evenodd"/><path d="M1095.53 916.564C1093.08 916.564 1091.12 917.436 1089.65 919.182 1088.18 920.928 1087.45 923.188 1087.45 925.963 1087.45 928.846 1088.17 931.106 1089.62 932.744 1091.07 934.382 1093.04 935.201 1095.53 935.201 1098 935.201 1099.92 934.355 1101.28 932.664 1102.64 930.972 1103.32 928.684 1103.32 925.802 1103.32 923.027 1102.63 920.793 1101.26 919.102 1099.9 917.41 1097.98 916.564 1095.53 916.564ZM1140.16 916.188C1138.2 916.188 1136.62 916.837 1135.4 918.135 1134.19 919.433 1133.45 921.04 1133.2 922.955L1146.17 922.955C1146.17 920.807 1145.63 919.142 1144.56 917.96 1143.49 916.779 1142.02 916.188 1140.16 916.188ZM1114.8 912.133 1121.03 912.133 1121.03 941.593C1121.03 945.12 1120.14 947.832 1118.34 949.73 1116.54 951.628 1114.18 952.577 1111.26 952.577 1109.85 952.577 1108.55 952.38 1107.37 951.986 1106.18 951.592 1105.21 951.082 1104.44 950.455L1107.39 946.32C1107.95 946.731 1108.5 947.036 1109.06 947.233 1109.61 947.43 1110.2 947.528 1110.83 947.528 1112.12 947.528 1113.1 947.103 1113.78 946.252 1114.46 945.402 1114.8 943.965 1114.8 941.942ZM1075.22 911.649C1075.92 911.649 1076.56 911.703 1077.15 911.81 1077.74 911.918 1078.38 912.124 1079.06 912.428L1077.34 917.745C1076.84 917.548 1076.32 917.392 1075.8 917.275 1075.27 917.159 1074.71 917.101 1074.12 917.101 1072.27 917.101 1070.78 917.924 1069.63 919.571 1068.49 921.219 1067.91 923.367 1067.91 926.017L1067.91 939.633 1061.66 939.633 1061.66 912.133 1067.91 912.133 1067.91 917.101 1068.02 917.101C1068.67 915.346 1069.62 913.999 1070.87 913.059 1072.12 912.119 1073.57 911.649 1075.22 911.649ZM1170.4 911.488C1172.78 911.488 1174.92 911.989 1176.84 912.992 1178.76 913.995 1180.21 915.489 1181.19 917.477L1176.3 919.947C1175.44 918.712 1174.53 917.839 1173.55 917.329 1172.57 916.819 1171.44 916.564 1170.15 916.564 1167.93 916.564 1166.1 917.387 1164.66 919.034 1163.22 920.682 1162.5 922.982 1162.5 925.936 1162.5 928.855 1163.21 931.11 1164.63 932.704 1166.06 934.297 1167.97 935.094 1170.37 935.094 1171.59 935.094 1172.71 934.839 1173.74 934.329 1174.77 933.818 1175.69 932.954 1176.52 931.737L1181.33 934.503C1180.11 936.437 1178.54 937.882 1176.61 938.84 1174.69 939.798 1172.56 940.277 1170.23 940.277 1165.79 940.277 1162.33 939.001 1159.85 936.45 1157.37 933.899 1156.14 930.537 1156.14 926.366 1156.14 921.765 1157.46 918.135 1160.1 915.476 1162.74 912.817 1166.17 911.488 1170.4 911.488ZM1140.05 911.488C1143.92 911.488 1146.91 912.643 1149.03 914.952 1151.15 917.262 1152.21 920.61 1152.21 924.996L1152.21 927.413 1133.23 927.413C1133.28 930.063 1134 932.055 1135.39 933.389 1136.78 934.722 1138.48 935.389 1140.51 935.389 1141.94 935.389 1143.21 935.054 1144.32 934.382 1145.43 933.711 1146.37 932.713 1147.14 931.388L1151.95 933.993C1150.69 935.998 1149.09 937.547 1147.15 938.639 1145.21 939.731 1142.92 940.277 1140.29 940.277 1136.24 940.277 1133 939.06 1130.57 936.625 1128.13 934.19 1126.92 930.69 1126.92 926.124 1126.92 921.774 1128.17 918.247 1130.66 915.543 1133.16 912.84 1136.29 911.488 1140.05 911.488ZM1095.69 911.488C1100.02 911.488 1103.44 912.804 1105.95 915.436 1108.46 918.068 1109.71 921.469 1109.71 925.641 1109.71 929.902 1108.39 933.406 1105.75 936.155 1103.11 938.903 1099.62 940.277 1095.29 940.277 1090.94 940.277 1087.48 938.997 1084.92 936.437 1082.36 933.876 1081.08 930.43 1081.08 926.097 1081.1 921.711 1082.46 918.18 1085.16 915.503 1087.87 912.826 1091.38 911.488 1095.69 911.488ZM1037.24 906.359 1037.24 920.968 1041.48 920.968C1044.15 920.968 1046.19 920.31 1047.62 918.994 1049.04 917.678 1049.75 915.821 1049.75 913.422 1049.75 911.112 1049.08 909.357 1047.75 908.158 1046.42 906.958 1044.44 906.359 1041.83 906.359ZM1195.05 904.291 1195.05 912.133 1202.06 912.133 1202.06 917.02 1195.05 917.02 1195.05 932.274C1195.05 933.366 1195.27 934.172 1195.71 934.691 1196.15 935.21 1196.81 935.47 1197.71 935.47 1198.17 935.47 1198.63 935.38 1199.08 935.201 1199.52 935.022 1200 934.673 1200.5 934.154L1203.29 937.779C1202.47 938.567 1201.51 939.176 1200.42 939.606 1199.33 940.035 1198.1 940.25 1196.74 940.25 1194.13 940.25 1192.15 939.592 1190.82 938.276 1189.48 936.96 1188.82 935.031 1188.82 932.489L1188.82 917.02 1184.2 917.02 1184.2 912.133 1188.82 912.133 1188.82 905.392ZM1030.85 901.122 1042.72 901.122C1047.14 901.122 1050.53 902.156 1052.91 904.224 1055.28 906.291 1056.47 909.268 1056.47 913.153 1056.47 917.11 1055.14 920.279 1052.49 922.66 1049.84 925.041 1046.27 926.232 1041.78 926.232L1037.24 926.232 1037.24 939.633 1030.85 939.633ZM1117.95 899.322C1119.15 899.322 1120.11 899.698 1120.85 900.45 1121.58 901.202 1121.95 902.124 1121.95 903.216 1121.95 904.327 1121.58 905.253 1120.85 905.996 1120.11 906.739 1119.15 907.111 1117.95 907.111 1116.76 907.111 1115.8 906.73 1115.06 905.969 1114.32 905.208 1113.95 904.291 1113.95 903.216 1113.95 902.124 1114.32 901.202 1115.06 900.45 1115.8 899.698 1116.76 899.322 1117.95 899.322Z" fill="url(#fill1)" fill-rule="evenodd"/><text fill="#000000" fill-opacity="0" font-family="Arial,Arial_MSFontService,sans-serif" font-size="53.2544" x="1030.85" y="945.92">Project</text><path d="M883 1074.22C883 1049.24 903.245 1029 928.218 1029L1301.78 1029C1326.76 1029 1347 1049.24 1347 1074.22L1347 1115.78C1347 1140.76 1326.76 1161 1301.78 1161L928.218 1161C903.245 1161 883 1140.76 883 1115.78Z" fill="#8DC8E8" fill-rule="evenodd"/><path d="M1158.35 1089.37C1156.08 1089.37 1154.22 1090.13 1152.78 1091.65 1151.34 1093.17 1150.62 1095.12 1150.62 1097.5L1150.62 1100.89C1150.62 1102.91 1151.3 1104.6 1152.65 1105.96 1154 1107.32 1155.71 1108 1157.76 1108 1160.09 1108 1161.92 1107.12 1163.26 1105.34 1164.59 1103.57 1165.26 1101.18 1165.26 1098.17 1165.26 1095.26 1164.64 1093.06 1163.42 1091.58 1162.19 1090.1 1160.5 1089.37 1158.35 1089.37ZM1189.14 1088.99C1187.19 1088.99 1185.6 1089.64 1184.39 1090.94 1183.17 1092.23 1182.44 1093.84 1182.18 1095.76L1195.16 1095.76C1195.16 1093.61 1194.62 1091.94 1193.54 1090.76 1192.47 1089.58 1191 1088.99 1189.14 1088.99ZM1072.84 1088.99C1070.89 1088.99 1069.3 1089.64 1068.08 1090.94 1066.87 1092.23 1066.13 1093.84 1065.88 1095.76L1078.85 1095.76C1078.85 1093.61 1078.32 1091.94 1077.24 1090.76 1076.17 1089.58 1074.7 1088.99 1072.84 1088.99ZM1008.15 1084.93 1014.36 1084.93 1014.36 1101.02C1014.36 1103.35 1014.8 1105.09 1015.7 1106.26 1016.59 1107.42 1017.99 1108 1019.89 1108 1021.8 1108 1023.37 1107.3 1024.59 1105.91 1025.81 1104.51 1026.41 1102.75 1026.41 1100.62L1026.41 1084.93 1032.67 1084.93 1032.67 1112.43 1026.41 1112.43 1026.41 1108.7 1026.31 1108.7C1025.41 1110.04 1024.21 1111.11 1022.69 1111.9 1021.18 1112.68 1019.59 1113.08 1017.93 1113.08 1014.71 1113.08 1012.27 1112.12 1010.62 1110.2 1008.98 1108.29 1008.15 1105.51 1008.15 1101.85ZM982.344 1084.93 1003.56 1084.93 1003.56 1088.51 989.165 1107.44 1004.02 1107.44 1004.02 1112.43 981.351 1112.43 981.351 1108.75 995.691 1089.93 982.344 1089.93ZM1053.73 1084.45C1054.43 1084.45 1055.08 1084.5 1055.67 1084.61 1056.26 1084.72 1056.9 1084.92 1057.58 1085.23L1055.86 1090.55C1055.36 1090.35 1054.84 1090.19 1054.31 1090.08 1053.78 1089.96 1053.22 1089.9 1052.63 1089.9 1050.79 1089.9 1049.29 1090.73 1048.15 1092.37 1047 1094.02 1046.43 1096.17 1046.43 1098.82L1046.43 1112.43 1040.17 1112.43 1040.17 1084.93 1046.43 1084.93 1046.43 1089.9 1046.54 1089.9C1047.18 1088.15 1048.13 1086.8 1049.38 1085.86 1050.64 1084.92 1052.09 1084.45 1053.73 1084.45ZM1222.07 1084.29C1225.11 1084.29 1227.43 1085.26 1229.02 1087.19 1230.61 1089.12 1231.41 1091.89 1231.41 1095.49L1231.41 1112.43 1225.18 1112.43 1225.18 1096.35C1225.18 1094.07 1224.73 1092.34 1223.82 1091.15 1222.92 1089.96 1221.56 1089.37 1219.76 1089.37 1217.8 1089.37 1216.21 1090.06 1214.99 1091.45 1213.76 1092.83 1213.15 1094.6 1213.15 1096.75L1213.15 1112.43 1206.89 1112.43 1206.89 1084.93 1213.15 1084.93 1213.15 1088.67 1213.23 1088.67C1214.21 1087.27 1215.48 1086.19 1217.03 1085.43 1218.58 1084.67 1220.26 1084.29 1222.07 1084.29ZM1189.03 1084.29C1192.9 1084.29 1195.89 1085.44 1198.02 1087.75 1200.14 1090.06 1201.2 1093.41 1201.2 1097.8L1201.2 1100.21 1182.21 1100.21C1182.27 1102.86 1182.99 1104.86 1184.37 1106.19 1185.76 1107.52 1187.47 1108.19 1189.49 1108.19 1190.92 1108.19 1192.19 1107.86 1193.3 1107.18 1194.41 1106.51 1195.35 1105.51 1196.12 1104.19L1200.93 1106.79C1199.68 1108.8 1198.08 1110.35 1196.14 1111.44 1194.19 1112.53 1191.91 1113.08 1189.27 1113.08 1185.23 1113.08 1181.99 1111.86 1179.55 1109.43 1177.12 1106.99 1175.9 1103.49 1175.9 1098.93 1175.9 1094.58 1177.15 1091.05 1179.65 1088.34 1182.14 1085.64 1185.27 1084.29 1189.03 1084.29ZM1160.07 1084.29C1163.73 1084.29 1166.57 1085.5 1168.61 1087.91 1170.65 1090.33 1171.68 1093.7 1171.68 1098.01 1171.68 1102.52 1170.53 1106.16 1168.25 1108.93 1165.97 1111.7 1162.92 1113.08 1159.11 1113.08 1157.33 1113.08 1155.75 1112.78 1154.37 1112.19 1152.98 1111.6 1151.79 1110.72 1150.81 1109.56L1150.7 1109.56 1150.7 1125.08 1144.44 1125.08 1144.44 1084.93 1150.7 1084.93 1150.7 1088.85 1150.81 1088.85C1151.9 1087.33 1153.23 1086.19 1154.8 1085.43 1156.36 1084.67 1158.12 1084.29 1160.07 1084.29ZM1072.73 1084.29C1076.6 1084.29 1079.59 1085.44 1081.71 1087.75 1083.84 1090.06 1084.9 1093.41 1084.9 1097.8L1084.9 1100.21 1065.91 1100.21C1065.96 1102.86 1066.68 1104.86 1068.07 1106.19 1069.46 1107.52 1071.16 1108.19 1073.19 1108.19 1074.62 1108.19 1075.89 1107.86 1077 1107.18 1078.11 1106.51 1079.05 1105.51 1079.82 1104.19L1084.63 1106.79C1083.37 1108.8 1081.78 1110.35 1079.83 1111.44 1077.89 1112.53 1075.6 1113.08 1072.97 1113.08 1068.93 1113.08 1065.69 1111.86 1063.25 1109.43 1060.82 1106.99 1059.6 1103.49 1059.6 1098.93 1059.6 1094.58 1060.85 1091.05 1063.34 1088.34 1065.84 1085.64 1068.97 1084.29 1072.73 1084.29ZM1252.77 1080.37C1252.63 1080.8 1252.51 1081.17 1252.42 1081.5 1252.33 1081.82 1252.21 1082.18 1252.07 1082.57L1246.81 1097.88 1258.87 1097.88 1253.6 1082.6C1253.46 1082.2 1253.34 1081.85 1253.24 1081.54 1253.14 1081.22 1253.04 1080.83 1252.93 1080.37ZM962.301 1080.37C962.158 1080.8 962.041 1081.17 961.952 1081.5 961.862 1081.82 961.746 1082.18 961.603 1082.57L956.339 1097.88 968.397 1097.88 963.134 1082.6C962.99 1082.2 962.87 1081.85 962.771 1081.54 962.673 1081.22 962.57 1080.83 962.462 1080.37ZM1120.38 1079C1116.71 1079 1113.75 1080.3 1111.51 1082.89 1109.26 1085.49 1108.14 1088.94 1108.14 1093.23 1108.14 1097.49 1109.25 1100.92 1111.47 1103.5 1113.69 1106.09 1116.56 1107.39 1120.09 1107.39 1123.7 1107.39 1126.61 1106.11 1128.81 1103.56 1131.02 1101.01 1132.12 1097.6 1132.12 1093.34 1132.12 1088.94 1131.04 1085.44 1128.89 1082.87 1126.75 1080.29 1123.91 1079 1120.38 1079ZM1275.77 1073.92 1282.16 1073.92 1282.16 1112.43 1275.77 1112.43ZM1249.39 1073.92 1256.58 1073.92 1270.82 1112.43 1263.94 1112.43 1260.61 1103.3 1245.09 1103.3 1241.89 1112.43 1235.05 1112.43ZM958.917 1073.92 966.115 1073.92 980.348 1112.43 973.473 1112.43 970.143 1103.3 954.62 1103.3 951.425 1112.43 944.576 1112.43ZM1120.65 1073.28C1126.06 1073.28 1130.44 1075.06 1133.8 1078.64 1137.15 1082.21 1138.83 1086.93 1138.83 1092.8 1138.83 1098.85 1137.09 1103.75 1133.61 1107.48 1130.13 1111.21 1125.6 1113.08 1120.03 1113.08 1114.54 1113.08 1110.06 1111.28 1106.6 1107.69 1103.15 1104.1 1101.42 1099.43 1101.42 1093.66 1101.42 1087.54 1103.19 1082.61 1106.74 1078.88 1110.28 1075.15 1114.92 1073.28 1120.65 1073.28Z" fill="url(#fill2)" fill-rule="evenodd"/><text fill="#000000" fill-opacity="0" font-family="Arial,Arial_MSFontService,sans-serif" font-size="51.8042" x="944.576" y="1118.61">Azure OpenAI</text><path d="M883 1248.56C883 1223.4 903.398 1203 928.56 1203L1301.44 1203C1326.6 1203 1347 1223.4 1347 1248.56L1347 1290.44C1347 1315.6 1326.6 1336 1301.44 1336L928.56 1336C903.398 1336 883 1315.6 883 1290.44Z" fill="#8DC8E8" fill-rule="evenodd"/><path d="M1212.34 1263.78C1210.39 1263.78 1208.81 1264.42 1207.59 1265.72 1206.37 1267.02 1205.64 1268.63 1205.39 1270.54L1218.36 1270.54C1218.36 1268.39 1217.82 1266.73 1216.75 1265.55 1215.67 1264.37 1214.21 1263.78 1212.34 1263.78ZM1090.89 1263.78C1088.93 1263.78 1087.35 1264.42 1086.13 1265.72 1084.91 1267.02 1084.18 1268.63 1083.93 1270.54L1096.9 1270.54C1096.9 1268.39 1096.36 1266.73 1095.29 1265.55 1094.22 1264.37 1092.75 1263.78 1090.89 1263.78ZM1157.91 1259.72 1164.16 1259.72 1164.16 1287.22 1157.91 1287.22ZM1126.48 1259.72 1133.14 1259.72 1139.15 1277.69C1139.37 1278.35 1139.54 1278.92 1139.68 1279.39 1139.81 1279.87 1139.97 1280.44 1140.15 1281.12L1140.25 1281.12C1140.43 1280.44 1140.59 1279.87 1140.74 1279.39 1140.88 1278.92 1141.05 1278.39 1141.25 1277.82L1147.51 1259.72 1153.95 1259.72 1143.34 1287.22 1136.6 1287.22ZM1122.2 1259.24C1122.9 1259.24 1123.54 1259.29 1124.13 1259.4 1124.72 1259.51 1125.36 1259.71 1126.04 1260.02L1124.32 1265.33C1123.82 1265.14 1123.3 1264.98 1122.78 1264.86 1122.25 1264.75 1121.69 1264.69 1121.1 1264.69 1119.25 1264.69 1117.76 1265.51 1116.61 1267.16 1115.47 1268.81 1114.89 1270.95 1114.89 1273.6L1114.89 1287.22 1108.64 1287.22 1108.64 1259.72 1114.89 1259.72 1114.89 1264.69 1115 1264.69C1115.65 1262.93 1116.59 1261.59 1117.85 1260.65 1119.1 1259.71 1120.55 1259.24 1122.2 1259.24ZM1239.36 1259.08C1241.35 1259.08 1243.18 1259.42 1244.85 1260.12 1246.53 1260.82 1247.86 1261.9 1248.84 1263.35L1245.03 1266.49C1244.26 1265.57 1243.42 1264.9 1242.5 1264.46 1241.59 1264.02 1240.51 1263.8 1239.28 1263.8 1237.99 1263.8 1236.97 1264.08 1236.23 1264.63 1235.49 1265.19 1235.12 1265.97 1235.12 1266.97 1235.12 1267.87 1235.47 1268.57 1236.18 1269.09 1236.88 1269.61 1238.24 1270.06 1240.25 1270.44 1243.33 1270.97 1245.63 1271.94 1247.15 1273.34 1248.67 1274.73 1249.43 1276.63 1249.43 1279.03 1249.43 1281.79 1248.44 1283.95 1246.46 1285.52 1244.48 1287.08 1242.05 1287.86 1239.15 1287.86 1236.67 1287.86 1234.53 1287.41 1232.7 1286.5 1230.87 1285.58 1229.43 1284.31 1228.38 1282.68L1232.24 1279.43C1233.21 1280.78 1234.26 1281.72 1235.39 1282.28 1236.51 1282.83 1237.78 1283.11 1239.2 1283.11 1240.58 1283.11 1241.69 1282.81 1242.53 1282.2 1243.37 1281.59 1243.79 1280.71 1243.79 1279.57 1243.79 1278.71 1243.41 1277.96 1242.65 1277.34 1241.89 1276.71 1240.68 1276.25 1239.04 1275.94 1235.49 1275.28 1233.03 1274.25 1231.64 1272.85 1230.25 1271.46 1229.56 1269.72 1229.56 1267.64 1229.56 1265.06 1230.48 1262.99 1232.32 1261.43 1234.17 1259.86 1236.51 1259.08 1239.36 1259.08ZM1212.24 1259.08C1216.1 1259.08 1219.1 1260.23 1221.22 1262.54 1223.34 1264.85 1224.4 1268.2 1224.4 1272.58L1224.4 1275 1205.41 1275C1205.47 1277.65 1206.19 1279.64 1207.58 1280.98 1208.96 1282.31 1210.67 1282.98 1212.69 1282.98 1214.12 1282.98 1215.4 1282.64 1216.51 1281.97 1217.62 1281.3 1218.56 1280.3 1219.33 1278.98L1224.13 1281.58C1222.88 1283.59 1221.28 1285.13 1219.34 1286.23 1217.4 1287.32 1215.11 1287.86 1212.48 1287.86 1208.43 1287.86 1205.19 1286.65 1202.76 1284.21 1200.32 1281.78 1199.1 1278.28 1199.1 1273.71 1199.1 1269.36 1200.35 1265.83 1202.85 1263.13 1205.35 1260.43 1208.48 1259.08 1212.24 1259.08ZM1184.15 1259.08C1186.53 1259.08 1188.67 1259.58 1190.59 1260.58 1192.51 1261.58 1193.96 1263.08 1194.94 1265.06L1190.05 1267.54C1189.19 1266.3 1188.28 1265.43 1187.3 1264.92 1186.32 1264.41 1185.19 1264.15 1183.9 1264.15 1181.68 1264.15 1179.85 1264.97 1178.41 1266.62 1176.97 1268.27 1176.25 1270.57 1176.25 1273.52 1176.25 1276.44 1176.96 1278.7 1178.38 1280.29 1179.81 1281.89 1181.72 1282.68 1184.12 1282.68 1185.34 1282.68 1186.46 1282.43 1187.49 1281.92 1188.52 1281.41 1189.44 1280.54 1190.27 1279.32L1195.08 1282.09C1193.86 1284.02 1192.29 1285.47 1190.36 1286.43 1188.44 1287.39 1186.31 1287.86 1183.98 1287.86 1179.54 1287.86 1176.08 1286.59 1173.6 1284.04 1171.12 1281.49 1169.89 1278.13 1169.89 1273.95 1169.89 1269.35 1171.21 1265.72 1173.85 1263.06 1176.49 1260.41 1179.92 1259.08 1184.15 1259.08ZM1090.78 1259.08C1094.64 1259.08 1097.64 1260.23 1099.76 1262.54 1101.88 1264.85 1102.94 1268.2 1102.94 1272.58L1102.94 1275 1083.96 1275C1084.01 1277.65 1084.73 1279.64 1086.12 1280.98 1087.51 1282.31 1089.21 1282.98 1091.23 1282.98 1092.67 1282.98 1093.94 1282.64 1095.05 1281.97 1096.16 1281.3 1097.1 1280.3 1097.87 1278.98L1102.67 1281.58C1101.42 1283.59 1099.82 1285.13 1097.88 1286.23 1095.94 1287.32 1093.65 1287.86 1091.02 1287.86 1086.97 1287.86 1083.73 1286.65 1081.3 1284.21 1078.86 1281.78 1077.65 1278.28 1077.65 1273.71 1077.65 1269.36 1078.89 1265.83 1081.39 1263.13 1083.89 1260.43 1087.02 1259.08 1090.78 1259.08ZM997.536 1255.15C997.392 1255.58 997.276 1255.96 997.186 1256.28 997.097 1256.61 996.98 1256.96 996.837 1257.36L991.574 1272.66 1003.63 1272.66 998.368 1257.38C998.225 1256.99 998.104 1256.64 998.005 1256.32 997.907 1256.01 997.804 1255.62 997.697 1255.15ZM1020.53 1248.71 1026.92 1248.71 1026.92 1287.22 1020.53 1287.22ZM994.152 1248.71 1001.35 1248.71 1015.58 1287.22 1008.71 1287.22 1005.38 1278.09 989.855 1278.09 986.659 1287.22 979.811 1287.22ZM1061.42 1248.09C1064.14 1248.09 1066.54 1248.69 1068.61 1249.88 1070.69 1251.07 1072.35 1252.84 1073.61 1255.18L1068.21 1257.81C1067.39 1256.29 1066.41 1255.2 1065.28 1254.54 1064.16 1253.87 1062.79 1253.54 1061.17 1253.54 1059.17 1253.54 1057.61 1254 1056.5 1254.9 1055.39 1255.8 1054.84 1257.01 1054.84 1258.51 1054.84 1260.02 1055.35 1261.2 1056.37 1262.06 1057.39 1262.92 1059.22 1263.65 1061.87 1264.26 1065.95 1265.17 1068.94 1266.58 1070.83 1268.48 1072.72 1270.37 1073.66 1272.92 1073.66 1276.13 1073.66 1279.55 1072.52 1282.36 1070.25 1284.56 1067.98 1286.76 1064.74 1287.86 1060.53 1287.86 1057.29 1287.86 1054.46 1287.18 1052.06 1285.8 1049.65 1284.42 1047.88 1282.47 1046.75 1279.94L1052.31 1277.15C1053.12 1278.89 1054.21 1280.18 1055.6 1281.04 1056.99 1281.9 1058.61 1282.33 1060.48 1282.33 1062.7 1282.33 1064.41 1281.85 1065.62 1280.88 1066.83 1279.92 1067.43 1278.56 1067.43 1276.83 1067.43 1275.14 1066.83 1273.8 1065.63 1272.8 1064.43 1271.8 1062.59 1271 1060.1 1270.41 1056.05 1269.46 1053.13 1268.11 1051.32 1266.37 1049.51 1264.62 1048.61 1262.27 1048.61 1259.32 1048.61 1255.79 1049.84 1253.04 1052.3 1251.06 1054.76 1249.08 1057.8 1248.09 1061.42 1248.09ZM1161.05 1246.91C1162.25 1246.91 1163.22 1247.29 1163.96 1248.04 1164.71 1248.79 1165.08 1249.71 1165.08 1250.8 1165.08 1251.91 1164.71 1252.84 1163.96 1253.58 1163.22 1254.33 1162.25 1254.7 1161.05 1254.7 1159.87 1254.7 1158.91 1254.32 1158.16 1253.56 1157.42 1252.8 1157.05 1251.89 1157.05 1250.83 1157.05 1249.72 1157.42 1248.79 1158.16 1248.04 1158.91 1247.29 1159.87 1246.91 1161.05 1246.91Z" fill="url(#fill3)" fill-rule="evenodd"/><text fill="#000000" fill-opacity="0" font-family="Arial,Arial_MSFontService,sans-serif" font-size="40.9546" x="979.811" y="1282.75">AI Services</text><path d="M883 1416.22C883 1391.24 903.245 1371 928.218 1371L1301.78 1371C1326.76 1371 1347 1391.24 1347 1416.22L1347 1457.78C1347 1482.76 1326.76 1503 1301.78 1503L928.218 1503C903.245 1503 883 1482.76 883 1457.78Z" fill="#8DC8E8" fill-rule="evenodd"/><path d="M1141.96 1442.06 1135.32 1442.78C1133.8 1442.94 1132.69 1443.36 1131.99 1444.05 1131.29 1444.73 1130.94 1445.64 1130.94 1446.78 1130.94 1447.95 1131.34 1448.89 1132.14 1449.62 1132.94 1450.34 1133.97 1450.71 1135.24 1450.71 1137.25 1450.71 1138.87 1450.03 1140.1 1448.68 1141.34 1447.33 1141.96 1445.62 1141.96 1443.56ZM1109.22 1431.29C1107.27 1431.29 1105.68 1431.94 1104.47 1433.24 1103.25 1434.53 1102.51 1436.14 1102.26 1438.06L1115.23 1438.06C1115.23 1435.91 1114.7 1434.24 1113.62 1433.06 1112.55 1431.88 1111.08 1431.29 1109.22 1431.29ZM1168.6 1426.75C1169.3 1426.75 1169.95 1426.8 1170.54 1426.91 1171.13 1427.02 1171.76 1427.22 1172.45 1427.53L1170.73 1432.85C1170.23 1432.65 1169.71 1432.49 1169.18 1432.38 1168.65 1432.26 1168.09 1432.2 1167.5 1432.2 1165.66 1432.2 1164.16 1433.03 1163.02 1434.67 1161.87 1436.32 1161.3 1438.47 1161.3 1441.12L1161.3 1454.73 1155.04 1454.73 1155.04 1427.23 1161.3 1427.23 1161.3 1432.2 1161.41 1432.2C1162.05 1430.45 1163 1429.1 1164.25 1428.16 1165.51 1427.22 1166.96 1426.75 1168.6 1426.75ZM1188.73 1426.59C1191.11 1426.59 1193.26 1427.09 1195.17 1428.09 1197.09 1429.1 1198.54 1430.59 1199.52 1432.58L1194.64 1435.05C1193.78 1433.81 1192.86 1432.94 1191.88 1432.43 1190.91 1431.92 1189.78 1431.67 1188.49 1431.67 1186.27 1431.67 1184.44 1432.49 1182.99 1434.14 1181.55 1435.78 1180.83 1438.08 1180.83 1441.04 1180.83 1443.96 1181.54 1446.21 1182.97 1447.81 1184.39 1449.4 1186.3 1450.2 1188.7 1450.2 1189.92 1450.2 1191.04 1449.94 1192.07 1449.43 1193.1 1448.92 1194.03 1448.06 1194.85 1446.84L1199.66 1449.6C1198.44 1451.54 1196.87 1452.98 1194.95 1453.94 1193.02 1454.9 1190.89 1455.38 1188.57 1455.38 1184.13 1455.38 1180.67 1454.1 1178.19 1451.55 1175.71 1449 1174.47 1445.64 1174.47 1441.47 1174.47 1436.87 1175.79 1433.24 1178.43 1430.58 1181.07 1427.92 1184.5 1426.59 1188.73 1426.59ZM1137.26 1426.59C1140.73 1426.59 1143.38 1427.5 1145.22 1429.32 1147.05 1431.13 1147.97 1433.77 1147.97 1437.22L1147.97 1454.73 1141.93 1454.73 1141.93 1451.32 1141.82 1451.32C1140.85 1452.65 1139.67 1453.66 1138.28 1454.34 1136.88 1455.03 1135.32 1455.38 1133.6 1455.38 1131.06 1455.38 1128.98 1454.65 1127.36 1453.2 1125.74 1451.75 1124.93 1449.86 1124.93 1447.51 1124.93 1444.99 1125.74 1442.96 1127.36 1441.43 1128.98 1439.9 1131.3 1438.96 1134.33 1438.62L1141.96 1437.76 1141.96 1436.45C1141.96 1434.74 1141.48 1433.47 1140.53 1432.62 1139.58 1431.77 1138.34 1431.34 1136.8 1431.34 1135.28 1431.34 1134 1431.68 1132.96 1432.36 1131.92 1433.04 1131.06 1434.02 1130.38 1435.29L1125.71 1432.9C1126.64 1431.06 1128.11 1429.54 1130.11 1428.36 1132.12 1427.18 1134.5 1426.59 1137.26 1426.59ZM1109.11 1426.59C1112.98 1426.59 1115.97 1427.74 1118.09 1430.05 1120.22 1432.36 1121.28 1435.71 1121.28 1440.1L1121.28 1442.51 1102.29 1442.51C1102.34 1445.16 1103.06 1447.16 1104.45 1448.49 1105.84 1449.82 1107.54 1450.49 1109.57 1450.49 1111 1450.49 1112.27 1450.16 1113.38 1449.48 1114.49 1448.81 1115.43 1447.81 1116.2 1446.49L1121.01 1449.09C1119.75 1451.1 1118.16 1452.65 1116.21 1453.74 1114.27 1454.83 1111.98 1455.38 1109.35 1455.38 1105.31 1455.38 1102.07 1454.16 1099.63 1451.73 1097.2 1449.29 1095.98 1445.79 1095.98 1441.23 1095.98 1436.88 1097.23 1433.35 1099.73 1430.64 1102.22 1427.94 1105.35 1426.59 1109.11 1426.59ZM1015.87 1422.67C1015.73 1423.1 1015.61 1423.47 1015.52 1423.8 1015.43 1424.12 1015.31 1424.48 1015.17 1424.87L1009.91 1440.18 1021.97 1440.18 1016.7 1424.9C1016.56 1424.5 1016.44 1424.15 1016.34 1423.84 1016.24 1423.52 1016.14 1423.13 1016.03 1422.67ZM1038.87 1416.22 1045.26 1416.22 1045.26 1454.73 1038.87 1454.73ZM1012.49 1416.22 1019.68 1416.22 1033.92 1454.73 1027.04 1454.73 1023.71 1445.6 1008.19 1445.6 1004.99 1454.73 998.144 1454.73ZM1079.75 1415.61C1082.47 1415.61 1084.87 1416.2 1086.95 1417.39 1089.02 1418.58 1090.69 1420.35 1091.94 1422.7L1086.54 1425.33C1085.72 1423.81 1084.74 1422.71 1083.62 1422.05 1082.49 1421.39 1081.12 1421.06 1079.51 1421.06 1077.5 1421.06 1075.94 1421.51 1074.83 1422.41 1073.72 1423.32 1073.17 1424.52 1073.17 1426.03 1073.17 1427.53 1073.68 1428.71 1074.7 1429.57 1075.72 1430.43 1077.56 1431.16 1080.21 1431.77 1084.29 1432.69 1087.27 1434.09 1089.16 1435.99 1091.05 1437.89 1092 1440.44 1092 1443.64 1092 1447.06 1090.86 1449.87 1088.58 1452.08 1086.31 1454.28 1083.07 1455.38 1078.86 1455.38 1075.62 1455.38 1072.8 1454.69 1070.39 1453.31 1067.98 1451.93 1066.21 1449.98 1065.09 1447.46L1070.65 1444.66C1071.45 1446.4 1072.55 1447.7 1073.93 1448.56 1075.32 1449.42 1076.95 1449.85 1078.81 1449.85 1081.03 1449.85 1082.74 1449.36 1083.95 1448.4 1085.16 1447.43 1085.76 1446.08 1085.76 1444.34 1085.76 1442.66 1085.16 1441.32 1083.97 1440.31 1082.77 1439.31 1080.92 1438.51 1078.43 1437.92 1074.39 1436.97 1071.46 1435.63 1069.65 1433.88 1067.84 1432.14 1066.94 1429.79 1066.94 1426.83 1066.94 1423.3 1068.17 1420.55 1070.63 1418.57 1073.09 1416.59 1076.13 1415.61 1079.75 1415.61ZM1205.46 1414.02 1211.72 1414.02 1211.72 1430.94 1211.82 1430.94C1212.79 1429.56 1214.04 1428.49 1215.58 1427.73 1217.12 1426.97 1218.79 1426.59 1220.58 1426.59 1223.53 1426.59 1225.82 1427.53 1227.45 1429.42 1229.08 1431.31 1229.9 1434.09 1229.9 1437.76L1229.9 1454.73 1223.67 1454.73 1223.67 1438.62C1223.67 1436.31 1223.22 1434.57 1222.31 1433.41 1221.41 1432.25 1220.06 1431.67 1218.27 1431.67 1216.32 1431.67 1214.74 1432.36 1213.53 1433.75 1212.32 1435.13 1211.72 1436.91 1211.72 1439.08L1211.72 1454.73 1205.46 1454.73Z" fill="url(#fill4)" fill-rule="evenodd"/><text fill="#000000" fill-opacity="0" font-family="Arial,Arial_MSFontService,sans-serif" font-size="41.3574" x="998.144" y="1450.21">AI Search</text><path d="M883 1587.22C883 1562.24 903.245 1542 928.218 1542L1301.78 1542C1326.76 1542 1347 1562.24 1347 1587.22L1347 1628.78C1347 1653.76 1326.76 1674 1301.78 1674L928.218 1674C903.245 1674 883 1653.76 883 1628.78Z" fill="#8DC8E8" fill-rule="evenodd"/><path d="M1141.38 1612.79 1134.75 1613.52C1133.23 1613.68 1132.12 1614.1 1131.42 1614.78 1130.72 1615.46 1130.37 1616.37 1130.37 1617.52 1130.37 1618.68 1130.77 1619.63 1131.57 1620.35 1132.36 1621.08 1133.4 1621.44 1134.67 1621.44 1136.67 1621.44 1138.29 1620.77 1139.53 1619.41 1140.76 1618.06 1141.38 1616.36 1141.38 1614.3ZM1166.64 1602.4C1164.31 1602.4 1162.46 1603.24 1161.1 1604.92 1159.74 1606.61 1159.06 1609.01 1159.06 1612.12 1159.06 1614.9 1159.69 1617.08 1160.96 1618.66 1162.22 1620.25 1163.97 1621.04 1166.21 1621.04 1168.44 1621.04 1170.26 1620.27 1171.66 1618.73 1173.05 1617.19 1173.75 1615.17 1173.75 1612.69L1173.75 1609.49C1173.75 1607.52 1173.09 1605.85 1171.76 1604.47 1170.44 1603.09 1168.73 1602.4 1166.64 1602.4ZM1085.22 1602.4C1082.77 1602.4 1080.81 1603.27 1079.34 1605.02 1077.87 1606.76 1077.14 1609.02 1077.14 1611.8 1077.14 1614.68 1077.86 1616.94 1079.31 1618.58 1080.76 1620.22 1082.73 1621.04 1085.22 1621.04 1087.69 1621.04 1089.6 1620.19 1090.97 1618.5 1092.33 1616.81 1093.01 1614.52 1093.01 1611.64 1093.01 1608.86 1092.32 1606.63 1090.95 1604.94 1089.58 1603.25 1087.67 1602.4 1085.22 1602.4ZM1199.17 1602.02C1197.21 1602.02 1195.63 1602.67 1194.41 1603.97 1193.2 1605.27 1192.46 1606.88 1192.21 1608.79L1205.18 1608.79C1205.18 1606.64 1204.64 1604.98 1203.57 1603.8 1202.5 1602.62 1201.03 1602.02 1199.17 1602.02ZM1118.76 1597.49C1119.46 1597.49 1120.1 1597.54 1120.69 1597.65 1121.29 1597.75 1121.92 1597.96 1122.6 1598.26L1120.88 1603.58C1120.38 1603.39 1119.87 1603.23 1119.34 1603.11 1118.81 1603 1118.25 1602.94 1117.66 1602.94 1115.82 1602.94 1114.32 1603.76 1113.18 1605.41 1112.03 1607.06 1111.46 1609.2 1111.46 1611.85L1111.46 1625.47 1105.2 1625.47 1105.2 1597.97 1111.46 1597.97 1111.46 1602.94 1111.56 1602.94C1112.21 1601.18 1113.16 1599.84 1114.41 1598.9 1115.66 1597.96 1117.11 1597.49 1118.76 1597.49ZM1199.06 1597.32C1202.93 1597.32 1205.92 1598.48 1208.04 1600.79 1210.16 1603.1 1211.22 1606.45 1211.22 1610.83L1211.22 1613.25 1192.24 1613.25C1192.29 1615.9 1193.01 1617.89 1194.4 1619.23 1195.79 1620.56 1197.49 1621.23 1199.52 1621.23 1200.95 1621.23 1202.22 1620.89 1203.33 1620.22 1204.44 1619.55 1205.38 1618.55 1206.15 1617.22L1210.96 1619.83C1209.7 1621.83 1208.1 1623.38 1206.16 1624.48 1204.22 1625.57 1201.93 1626.11 1199.3 1626.11 1195.25 1626.11 1192.01 1624.9 1189.58 1622.46 1187.14 1620.03 1185.93 1616.53 1185.93 1611.96 1185.93 1607.61 1187.18 1604.08 1189.67 1601.38 1192.17 1598.68 1195.3 1597.32 1199.06 1597.32ZM1165.75 1597.32C1167.38 1597.32 1168.88 1597.63 1170.26 1598.24 1171.64 1598.85 1172.75 1599.72 1173.59 1600.87L1173.7 1600.87 1173.7 1597.97 1179.96 1597.97 1179.96 1623.88C1179.96 1628.52 1178.7 1632.1 1176.18 1634.63 1173.67 1637.15 1170.18 1638.41 1165.72 1638.41 1162.88 1638.41 1160.4 1637.91 1158.28 1636.9 1156.17 1635.88 1154.4 1634.44 1152.97 1632.56L1157.5 1629.18C1158.54 1630.63 1159.72 1631.71 1161.04 1632.42 1162.35 1633.14 1163.94 1633.5 1165.8 1633.5 1168.29 1633.5 1170.23 1632.78 1171.62 1631.35 1173 1629.92 1173.7 1627.79 1173.7 1624.96L1173.7 1621.79 1173.59 1621.79C1172.59 1623.2 1171.37 1624.28 1169.93 1625.01 1168.48 1625.75 1166.7 1626.11 1164.57 1626.11 1160.99 1626.11 1158.11 1624.91 1155.95 1622.5 1153.78 1620.09 1152.7 1616.73 1152.7 1612.42 1152.7 1607.69 1153.94 1603.99 1156.42 1601.33 1158.9 1598.66 1162.01 1597.32 1165.75 1597.32ZM1136.68 1597.32C1140.16 1597.32 1142.81 1598.23 1144.65 1600.05 1146.48 1601.87 1147.4 1604.5 1147.4 1607.96L1147.4 1625.47 1141.36 1625.47 1141.36 1622.06 1141.25 1622.06C1140.28 1623.38 1139.1 1624.39 1137.7 1625.08 1136.31 1625.77 1134.75 1626.11 1133.03 1626.11 1130.49 1626.11 1128.41 1625.39 1126.79 1623.94 1125.17 1622.49 1124.36 1620.59 1124.36 1618.25 1124.36 1615.72 1125.17 1613.69 1126.79 1612.16 1128.41 1610.63 1130.73 1609.7 1133.76 1609.36L1141.38 1608.5 1141.38 1607.18C1141.38 1605.48 1140.91 1604.2 1139.96 1603.35 1139.01 1602.5 1137.77 1602.08 1136.23 1602.08 1134.7 1602.08 1133.42 1602.42 1132.39 1603.1 1131.35 1603.78 1130.49 1604.75 1129.81 1606.03L1125.13 1603.64C1126.07 1601.79 1127.53 1600.28 1129.54 1599.1 1131.54 1597.92 1133.93 1597.32 1136.68 1597.32ZM1085.38 1597.32C1089.71 1597.32 1093.13 1598.64 1095.64 1601.27 1098.15 1603.9 1099.4 1607.31 1099.4 1611.48 1099.4 1615.74 1098.08 1619.24 1095.44 1621.99 1092.8 1624.74 1089.31 1626.11 1084.98 1626.11 1080.63 1626.11 1077.17 1624.83 1074.61 1622.27 1072.05 1619.71 1070.77 1616.27 1070.77 1611.93 1070.79 1607.55 1072.15 1604.02 1074.85 1601.34 1077.56 1598.66 1081.06 1597.32 1085.38 1597.32ZM1059.27 1590.13 1059.27 1597.97 1066.28 1597.97 1066.28 1602.86 1059.27 1602.86 1059.27 1618.11C1059.27 1619.2 1059.49 1620.01 1059.93 1620.53 1060.36 1621.05 1061.03 1621.31 1061.93 1621.31 1062.39 1621.31 1062.85 1621.22 1063.3 1621.04 1063.74 1620.86 1064.22 1620.51 1064.72 1619.99L1067.51 1623.62C1066.69 1624.4 1065.73 1625.01 1064.64 1625.44 1063.55 1625.87 1062.32 1626.09 1060.96 1626.09 1058.35 1626.09 1056.37 1625.43 1055.04 1624.11 1053.7 1622.8 1053.04 1620.87 1053.04 1618.33L1053.04 1602.86 1048.42 1602.86 1048.42 1597.97 1053.04 1597.97 1053.04 1591.23ZM1035.06 1586.34C1037.78 1586.34 1040.18 1586.94 1042.26 1588.13 1044.34 1589.32 1046 1591.09 1047.25 1593.43L1041.86 1596.06C1041.03 1594.54 1040.06 1593.45 1038.93 1592.79 1037.8 1592.12 1036.43 1591.79 1034.82 1591.79 1032.81 1591.79 1031.26 1592.24 1030.15 1593.15 1029.04 1594.05 1028.48 1595.26 1028.48 1596.76 1028.48 1598.26 1028.99 1599.45 1030.01 1600.31 1031.03 1601.17 1032.87 1601.9 1035.52 1602.51 1039.6 1603.42 1042.59 1604.83 1044.47 1606.72 1046.36 1608.62 1047.31 1611.17 1047.31 1614.38 1047.31 1617.8 1046.17 1620.61 1043.9 1622.81 1041.62 1625.01 1038.38 1626.11 1034.18 1626.11 1030.93 1626.11 1028.11 1625.42 1025.7 1624.05 1023.29 1622.67 1021.53 1620.72 1020.4 1618.19L1025.96 1615.4C1026.76 1617.14 1027.86 1618.43 1029.25 1619.29 1030.63 1620.15 1032.26 1620.58 1034.12 1620.58 1036.34 1620.58 1038.06 1620.1 1039.26 1619.13 1040.47 1618.16 1041.08 1616.81 1041.08 1615.08 1041.08 1613.39 1040.48 1612.05 1039.28 1611.05 1038.08 1610.05 1036.23 1609.25 1033.75 1608.66 1029.7 1607.71 1026.77 1606.36 1024.96 1604.62 1023.16 1602.87 1022.25 1600.52 1022.25 1597.57 1022.25 1594.04 1023.48 1591.29 1025.94 1589.31 1028.41 1587.33 1031.45 1586.34 1035.06 1586.34Z" fill="url(#fill5)" fill-rule="evenodd"/><text fill="#000000" fill-opacity="0" font-family="Arial,Arial_MSFontService,sans-serif" font-size="52.0728" x="1020.4" y="1631.9">Storage</text><path d="M883 1756.22C883 1731.24 903.245 1711 928.218 1711L1301.78 1711C1326.76 1711 1347 1731.24 1347 1756.22L1347 1797.78C1347 1822.76 1326.76 1843 1301.78 1843L928.218 1843C903.245 1843 883 1822.76 883 1797.78Z" fill="#8DC8E8" fill-rule="evenodd"/><path d="M1153.41 1781.93 1146.78 1782.66C1145.26 1782.82 1144.15 1783.24 1143.45 1783.92 1142.75 1784.6 1142.4 1785.51 1142.4 1786.66 1142.4 1787.82 1142.8 1788.77 1143.6 1789.49 1144.39 1790.22 1145.43 1790.58 1146.7 1790.58 1148.7 1790.58 1150.33 1789.9 1151.56 1788.55 1152.8 1787.2 1153.41 1785.5 1153.41 1783.44ZM1050.21 1771.16C1048.26 1771.16 1046.67 1771.81 1045.45 1773.11 1044.24 1774.41 1043.5 1776.02 1043.25 1777.93L1056.22 1777.93C1056.22 1775.78 1055.69 1774.12 1054.61 1772.94 1053.54 1771.76 1052.07 1771.16 1050.21 1771.16ZM1165.99 1767.11 1172.19 1767.11 1172.19 1783.2C1172.19 1785.52 1172.64 1787.27 1173.54 1788.43 1174.43 1789.6 1175.83 1790.18 1177.73 1790.18 1179.64 1790.18 1181.21 1789.48 1182.43 1788.08 1183.64 1786.69 1184.25 1784.92 1184.25 1782.79L1184.25 1767.11 1190.51 1767.11 1190.51 1794.61 1184.25 1794.61 1184.25 1790.88 1184.15 1790.88C1183.25 1792.22 1182.05 1793.28 1180.53 1794.07 1179.02 1794.86 1177.43 1795.25 1175.77 1795.25 1172.54 1795.25 1170.11 1794.3 1168.46 1792.38 1166.81 1790.46 1165.99 1787.68 1165.99 1784.03ZM1107 1767.11 1113.66 1767.11 1119.67 1785.08C1119.89 1785.74 1120.06 1786.31 1120.2 1786.78 1120.33 1787.26 1120.49 1787.83 1120.67 1788.51L1120.78 1788.51C1120.95 1787.83 1121.12 1787.26 1121.26 1786.78 1121.4 1786.31 1121.57 1785.78 1121.77 1785.21L1128.03 1767.11 1134.47 1767.11 1123.86 1794.61 1117.12 1794.61ZM1065.22 1767.11 1072.04 1767.11 1078.35 1785.34C1078.55 1785.9 1078.7 1786.39 1078.81 1786.82 1078.92 1787.25 1079.04 1787.78 1079.19 1788.41L1079.32 1788.41C1079.44 1787.78 1079.57 1787.26 1079.71 1786.85 1079.84 1786.44 1080 1785.95 1080.18 1785.4L1086.54 1767.11 1092.96 1767.11 1080.18 1800.09C1079.23 1802.54 1077.95 1804.4 1076.35 1805.66 1074.75 1806.92 1072.8 1807.55 1070.51 1807.55 1069.4 1807.55 1068.36 1807.43 1067.38 1807.19 1066.41 1806.95 1065.48 1806.57 1064.6 1806.05L1067.31 1801.65C1067.87 1801.97 1068.37 1802.2 1068.82 1802.33 1069.27 1802.46 1069.73 1802.53 1070.22 1802.53 1071.06 1802.53 1071.78 1802.32 1072.38 1801.9 1072.98 1801.48 1073.52 1800.71 1074 1799.6L1076.02 1794.93ZM1148.71 1766.46C1152.19 1766.46 1154.84 1767.37 1156.68 1769.19 1158.51 1771.01 1159.43 1773.64 1159.43 1777.1L1159.43 1794.61 1153.39 1794.61 1153.39 1791.2 1153.28 1791.2C1152.31 1792.52 1151.13 1793.53 1149.73 1794.22 1148.34 1794.91 1146.78 1795.25 1145.06 1795.25 1142.52 1795.25 1140.44 1794.53 1138.82 1793.08 1137.2 1791.63 1136.39 1789.73 1136.39 1787.38 1136.39 1784.86 1137.2 1782.83 1138.82 1781.3 1140.44 1779.77 1142.76 1778.84 1145.79 1778.5L1153.41 1777.64 1153.41 1776.32C1153.41 1774.62 1152.94 1773.34 1151.99 1772.49 1151.04 1771.64 1149.8 1771.22 1148.26 1771.22 1146.74 1771.22 1145.46 1771.56 1144.42 1772.24 1143.38 1772.92 1142.52 1773.89 1141.84 1775.17L1137.17 1772.78C1138.1 1770.93 1139.57 1769.42 1141.57 1768.24 1143.58 1767.06 1145.96 1766.46 1148.71 1766.46ZM1050.1 1766.46C1053.97 1766.46 1056.96 1767.62 1059.08 1769.93 1061.21 1772.24 1062.27 1775.59 1062.27 1779.97L1062.27 1782.39 1043.28 1782.39C1043.33 1785.04 1044.05 1787.03 1045.44 1788.37 1046.83 1789.7 1048.53 1790.37 1050.56 1790.37 1051.99 1790.37 1053.26 1790.03 1054.37 1789.36 1055.48 1788.69 1056.42 1787.69 1057.19 1786.36L1062 1788.97C1060.74 1790.97 1059.15 1792.52 1057.2 1793.62 1055.26 1794.71 1052.97 1795.25 1050.34 1795.25 1046.3 1795.25 1043.06 1794.04 1040.62 1791.6 1038.19 1789.17 1036.97 1785.67 1036.97 1781.1 1036.97 1776.75 1038.22 1773.22 1040.71 1770.52 1043.21 1767.82 1046.34 1766.46 1050.1 1766.46ZM1219.68 1759.27 1219.68 1767.11 1226.69 1767.11 1226.69 1772 1219.68 1772 1219.68 1787.25C1219.68 1788.34 1219.9 1789.15 1220.34 1789.67 1220.78 1790.19 1221.45 1790.45 1222.34 1790.45 1222.81 1790.45 1223.26 1790.36 1223.71 1790.18 1224.16 1790 1224.63 1789.65 1225.14 1789.13L1227.93 1792.76C1227.1 1793.54 1226.15 1794.15 1225.06 1794.58 1223.96 1795.01 1222.74 1795.23 1221.38 1795.23 1218.76 1795.23 1216.79 1794.57 1215.45 1793.25 1214.12 1791.94 1213.45 1790.01 1213.45 1787.47L1213.45 1772 1208.83 1772 1208.83 1767.11 1213.45 1767.11 1213.45 1760.37ZM1006.21 1756.1 1012.6 1756.1 1012.6 1773.8 1012.74 1773.8C1012.86 1773.58 1013.01 1773.35 1013.18 1773.11 1013.35 1772.87 1013.55 1772.6 1013.78 1772.29L1026.73 1756.1 1034.09 1756.1 1019.05 1774.44 1035.21 1794.61 1026.97 1794.61 1013.76 1777.64C1013.52 1777.35 1013.33 1777.09 1013.18 1776.84 1013.03 1776.6 1012.88 1776.37 1012.74 1776.13L1012.6 1776.13 1012.6 1794.61 1006.21 1794.61ZM1198.01 1753.9 1204.27 1753.9 1204.27 1794.61 1198.01 1794.61Z" fill="url(#fill6)" fill-rule="evenodd"/><text fill="#000000" fill-opacity="0" font-family="Arial,Arial_MSFontService,sans-serif" font-size="53.6572" x="1006.21" y="1800.85">Key vault</text><path d="M2.01196-1.09716 213.761 387.207 209.737 389.402-2.01196 1.09716ZM221.626 377.698 222.72 408.424 197.483 390.863Z" transform="matrix(1 0 0 -1 662.5 1333.92)"/><path d="M0.659748-2.19465 201.434 58.1614 200.114 62.5507-0.659748 2.19465ZM200.343 45.8686 222.72 66.9535 192.426 72.2044Z" transform="matrix(1 0 0 -1 662.5 1333.45)"/><path d="M663.468 1331.42 865.416 1425.53 863.48 1429.68 661.532 1335.58ZM866.101 1413.2 885.22 1437.28 854.486 1438.13Z"/><path d="M664.279 1332.06 872.561 1588.78 869.002 1591.66 660.72 1334.94ZM878.572 1578 885.22 1608.02 857.216 1595.32Z"/><path d="M664.549 1332.47 877.017 1757.23 872.918 1759.28 660.45 1334.53ZM885.215 1748.01 885.22 1778.75 860.62 1760.31Z"/><path d="M1554.37 1332.41 1356.91 946.941 1360.99 944.851 1558.45 1330.32ZM1348.8 956.244 1348.5 925.5 1373.28 943.706Z"/><path d="M1555.74 1333.08 1369.71 1275.47 1371.07 1271.09 1557.09 1328.7ZM1370.7 1287.77 1348.5 1266.5 1378.84 1261.5Z"/><path d="M1.04357-2.04027 188.555 93.869 186.468 97.9495-1.04357 2.04027ZM189.693 81.5805 207.914 106.345 177.17 106.064Z" transform="matrix(-1 0 0 1 1556.41 1331.5)"/><path d="M1.833-1.37544 195.993 257.375 192.327 260.126-1.833 1.37544ZM202.407 246.832 207.914 277.08 180.411 263.337Z" transform="matrix(-1 0 0 1 1556.41 1331.5)"/><path d="M2.07856-0.965048 200.342 426.064 196.185 427.994-2.07856 0.965048ZM208.805 417.082 207.914 447.815 183.862 428.662Z" transform="matrix(-1 0 0 1 1556.41 1331.5)"/><path d="M1.67548-1.56349 207.843 219.371 204.492 222.498-1.67548 1.56349ZM213.094 208.202 221.803 237.689 192.988 226.964Z" transform="matrix(1 0 0 -1 662.5 1333.19)"/><path d="M1554.62 1332.15 1361 1114.16 1364.43 1111.11 1558.05 1329.1ZM1355.48 1125.19 1347.5 1095.5 1376.04 1106.93Z"/><text font-family="Segoe UI Variable Display Semibold,Segoe UI Variable Display Semibold_MSFontService,sans-serif" font-weight="600" font-size="55" transform="matrix(1 0 0 1 2551.25 2113)">Optionally extend with the Azure ecosystem, and non</text><text font-family="Segoe UI Variable Display Semibold,Segoe UI Variable Display Semibold_MSFontService,sans-serif" font-weight="600" font-size="55" transform="matrix(1 0 0 1 3875.26 2113)">-</text><text font-family="Segoe UI Variable Display Semibold,Segoe UI Variable Display Semibold_MSFontService,sans-serif" font-weight="600" font-size="55" transform="matrix(1 0 0 1 3897.03 2113)">Azure tools.</text><text font-family="Segoe UI Variable Display Semibold,Segoe UI Variable Display Semibold_MSFontService,sans-serif" font-weight="600" font-size="55" transform="matrix(1 0 0 1 4190.36 2113)"> </text><path d="M3038.5 956.208 3255.2 956.209 3255.2 960.792 3038.5 960.792ZM3250.61 944.75 3278.11 958.5 3250.61 972.25Z"/><path d="M3616.79 1301.5 3616.79 1319.83 3612.21 1319.83 3612.21 1301.5ZM3616.79 1333.58 3616.79 1351.92 3612.21 1351.92 3612.21 1333.58ZM3616.79 1365.67 3616.79 1384 3612.21 1384 3612.21 1365.67ZM3616.79 1397.75 3616.79 1416.08 3612.21 1416.08 3612.21 1397.75ZM3616.79 1429.83 3616.79 1448.17 3612.21 1448.17 3612.21 1429.83ZM3616.79 1461.92 3616.79 1480.25 3612.21 1480.25 3612.21 1461.92ZM3616.79 1494 3616.79 1512.33 3612.21 1512.33 3612.21 1494ZM3628.25 1514.54 3614.5 1542.04 3600.75 1514.54Z"/><text font-family="Segoe UI Variable Display Semibold,Segoe UI Variable Display Semibold_MSFontService,sans-serif" font-weight="600" font-size="50" transform="matrix(1 0 0 1 2453.01 1672)">Option to connect</text><text font-family="Segoe UI Variable Display Semibold,Segoe UI Variable Display Semibold_MSFontService,sans-serif" font-weight="600" font-size="50" transform="matrix(1 0 0 1 2871.81 1672)"> </text><text font-family="Segoe UI Variable Display Semibold,Segoe UI Variable Display Semibold_MSFontService,sans-serif" font-weight="600" font-size="50" transform="matrix(1 0 0 1 2398.58 1733)">tools and knowledge</text><text font-family="Segoe UI Variable Display Semibold,Segoe UI Variable Display Semibold_MSFontService,sans-serif" font-weight="600" font-size="50" transform="matrix(1 0 0 1 2871.81 1733)"> </text><path d="M3038.5 1124.21 3257.03 1124.21 3257.03 1128.79 3038.5 1128.79ZM3252.45 1112.75 3279.95 1126.5 3252.45 1140.25Z"/><path d="M286 1310.22C286 1285.24 306.245 1265 331.218 1265L611.782 1265C636.755 1265 657 1285.24 657 1310.22L657 1351.78C657 1376.76 636.755 1397 611.782 1397L331.218 1397C306.245 1397 286 1376.76 286 1351.78Z" fill="#8DC8E8" fill-rule="evenodd"/><path d="M508.068 1325.81C505.795 1325.81 503.937 1326.57 502.496 1328.1 501.055 1329.63 500.334 1331.58 500.334 1333.94L500.334 1337.3C500.334 1339.32 500.996 1341.02 502.321 1342.39 503.646 1343.76 505.365 1344.44 507.478 1344.44 509.877 1344.44 511.725 1343.57 513.023 1341.84 514.321 1340.1 514.97 1337.69 514.97 1334.61 514.97 1331.8 514.362 1329.63 513.144 1328.1 511.927 1326.57 510.235 1325.81 508.068 1325.81ZM462.137 1321.37 468.34 1321.37 468.34 1337.46C468.34 1339.79 468.788 1341.53 469.683 1342.7 470.578 1343.86 471.975 1344.44 473.872 1344.44 475.788 1344.44 477.355 1343.74 478.572 1342.35 479.79 1340.95 480.398 1339.19 480.398 1337.06L480.398 1321.37 486.656 1321.37 486.656 1348.87 480.398 1348.87 480.398 1345.14 480.291 1345.14C479.396 1346.48 478.192 1347.55 476.679 1348.34 475.166 1349.12 473.577 1349.52 471.912 1349.52 468.689 1349.52 466.254 1348.56 464.607 1346.65 462.96 1344.73 462.137 1341.95 462.137 1338.29ZM423.241 1310.36 429.633 1310.36 429.633 1326.56 447.76 1326.56 447.76 1310.36 454.178 1310.36 454.178 1348.87 447.76 1348.87 447.76 1332.25 429.633 1332.25 429.633 1348.87 423.241 1348.87ZM494.157 1308.16 500.415 1308.16 500.415 1325.16 500.522 1325.16C501.56 1323.73 502.858 1322.63 504.416 1321.87 505.974 1321.11 507.764 1320.73 509.787 1320.73 513.457 1320.73 516.309 1321.95 518.341 1324.4 520.373 1326.84 521.389 1330.19 521.389 1334.45 521.389 1339.02 520.27 1342.67 518.032 1345.41 515.794 1348.15 512.732 1349.52 508.847 1349.52 507.003 1349.52 505.378 1349.21 503.973 1348.59 502.568 1347.97 501.417 1347.07 500.522 1345.89L500.415 1345.89 500.415 1348.87 494.157 1348.87Z" fill="url(#fill7)" fill-rule="evenodd"/><text fill="#000000" fill-opacity="0" font-family="Arial,Arial_MSFontService,sans-serif" font-size="41.3574" x="423.241" y="1344.35">Hub</text><path d="M1567 1310.46C1567 1286.46 1586.46 1267 1610.46 1267L1975.54 1267C1999.54 1267 2019 1286.46 2019 1310.46L2019 1361.54C2019 1385.54 1999.54 1405 1975.54 1405L1610.46 1405C1586.46 1405 1567 1385.54 1567 1361.54Z" fill="#2A446F" fill-rule="evenodd"/><text fill="#FFFFFF" font-family="Segoe UI Variable Display Semibold,Segoe UI Variable Display Semibold_MSFontService,sans-serif" font-weight="600" font-size="55" transform="matrix(1 0 0 1 1629.87 1357)">Various SDKs</text><text fill="#FFFFFF" font-family="Segoe UI Variable Display Semibold,Segoe UI Variable Display Semibold_MSFontService,sans-serif" font-weight="600" font-size="55" transform="matrix(1 0 0 1 1956.43 1357)"> </text><path d="M2481 932.147C2481 908.317 2500.32 889 2524.15 889L3013.85 889C3037.68 889 3057 908.317 3057 932.147L3057 982.854C3057 1006.68 3037.68 1026 3013.85 1026L2524.15 1026C2500.32 1026 2481 1006.68 2481 982.854Z" fill="#2A446F" fill-rule="evenodd"/><text fill="#FFFFFF" font-family="Segoe UI Variable Display Semibold,Segoe UI Variable Display Semibold_MSFontService,sans-serif" font-weight="600" font-size="55" transform="matrix(1 0 0 1 2607.86 979)">Foundry SDK</text><text fill="#FFFFFF" font-family="Segoe UI Variable Display Semibold,Segoe UI Variable Display Semibold_MSFontService,sans-serif" font-weight="600" font-size="55" transform="matrix(1 0 0 1 2930.98 979)"> </text><path d="M2481 1104.46C2481 1080.46 2500.46 1061 2524.46 1061L3013.54 1061C3037.54 1061 3057 1080.46 3057 1104.46L3057 1155.54C3057 1179.54 3037.54 1199 3013.54 1199L2524.46 1199C2500.46 1199 2481 1179.54 2481 1155.54Z" fill="#2A446F" fill-rule="evenodd"/><text fill="#FFFFFF" font-family="Segoe UI Variable Display Semibold,Segoe UI Variable Display Semibold_MSFontService,sans-serif" font-weight="600" font-size="55" transform="matrix(1 0 0 1 2539.39 1151)">Azure OpenAI SDK</text><text fill="#FFFFFF" font-family="Segoe UI Variable Display Semibold,Segoe UI Variable Display Semibold_MSFontService,sans-serif" font-weight="600" font-size="55" transform="matrix(1 0 0 1 2999.45 1151)"> </text><path d="M2915.5 1570.73C2915.5 1555.14 2928.14 1542.5 2943.73 1542.5L3268.27 1542.5C3283.86 1542.5 3296.5 1555.14 3296.5 1570.73L3296.5 1635.27C3296.5 1650.86 3283.86 1663.5 3268.27 1663.5L2943.73 1663.5C2928.14 1663.5 2915.5 1650.86 2915.5 1635.27Z" stroke="#BFBFBF" stroke-width="4.58333" stroke-miterlimit="8" fill="#FFFFFF" fill-rule="evenodd" fill-opacity="0.8"/><text font-family="Segoe UI Variable Display Semibold,Segoe UI Variable Display Semibold_MSFontService,sans-serif" font-weight="600" font-size="55" transform="matrix(1 0 0 1 2968.22 1620)">Sharepoint</text><text font-family="Segoe UI Variable Display Semibold,Segoe UI Variable Display Semibold_MSFontService,sans-serif" font-weight="600" font-size="55" transform="matrix(1 0 0 1 3242.07 1620)"> </text><path d="M3302.5 1570.73C3302.5 1555.14 3315.14 1542.5 3330.73 1542.5L3698.27 1542.5C3713.86 1542.5 3726.5 1555.14 3726.5 1570.73L3726.5 1635.27C3726.5 1650.86 3713.86 1663.5 3698.27 1663.5L3330.73 1663.5C3315.14 1663.5 3302.5 1650.86 3302.5 1635.27Z" stroke="#BFBFBF" stroke-width="4.58333" stroke-miterlimit="8" fill="#FFFFFF" fill-rule="evenodd" fill-opacity="0.8"/><text font-family="Segoe UI Variable Display Semibold,Segoe UI Variable Display Semibold_MSFontService,sans-serif" font-weight="600" font-size="55" transform="matrix(1 0 0 1 3438.91 1620)">Fabric</text><text font-family="Segoe UI Variable Display Semibold,Segoe UI Variable Display Semibold_MSFontService,sans-serif" font-weight="600" font-size="55" transform="matrix(1 0 0 1 3589.59 1620)"> </text><path d="M3733.5 1570.73C3733.5 1555.14 3746.14 1542.5 3761.73 1542.5L4057.27 1542.5C4072.86 1542.5 4085.5 1555.14 4085.5 1570.73L4085.5 1635.27C4085.5 1650.86 4072.86 1663.5 4057.27 1663.5L3761.73 1663.5C3746.14 1663.5 3733.5 1650.86 3733.5 1635.27Z" stroke="#BFBFBF" stroke-width="4.58333" stroke-miterlimit="8" fill="#FFFFFF" fill-rule="evenodd" fill-opacity="0.8"/><text font-family="Segoe UI Variable Display Semibold,Segoe UI Variable Display Semibold_MSFontService,sans-serif" font-weight="600" font-size="55" transform="matrix(1 0 0 1 3790.99 1620)">AI Search</text><text font-family="Segoe UI Variable Display Semibold,Segoe UI Variable Display Semibold_MSFontService,sans-serif" font-weight="600" font-size="55" transform="matrix(1 0 0 1 4026.45 1620)"> </text><path d="M2915.5 1706.73C2915.5 1691.14 2928.14 1678.5 2943.73 1678.5L3177.27 1678.5C3192.86 1678.5 3205.5 1691.14 3205.5 1706.73L3205.5 1771.27C3205.5 1786.86 3192.86 1799.5 3177.27 1799.5L2943.73 1799.5C2928.14 1799.5 2915.5 1786.86 2915.5 1771.27Z" stroke="#BFBFBF" stroke-width="4.58333" stroke-miterlimit="8" fill="#FFFFFF" fill-rule="evenodd" fill-opacity="0.8"/><text font-family="Segoe UI Variable Display Semibold,Segoe UI Variable Display Semibold_MSFontService,sans-serif" font-weight="600" font-size="55" transform="matrix(1 0 0 1 2962.34 1756)">Storage</text><text font-family="Segoe UI Variable Display Semibold,Segoe UI Variable Display Semibold_MSFontService,sans-serif" font-weight="600" font-size="55" transform="matrix(1 0 0 1 3157.7 1756)"> </text><path d="M3213.5 1706.73C3213.5 1691.14 3226.14 1678.5 3241.73 1678.5L3476.27 1678.5C3491.86 1678.5 3504.5 1691.14 3504.5 1706.73L3504.5 1771.27C3504.5 1786.86 3491.86 1799.5 3476.27 1799.5L3241.73 1799.5C3226.14 1799.5 3213.5 1786.86 3213.5 1771.27Z" stroke="#BFBFBF" stroke-width="4.58333" stroke-miterlimit="8" fill="#FFFFFF" fill-rule="evenodd" fill-opacity="0.8"/><text font-family="Segoe UI Variable Display Semibold,Segoe UI Variable Display Semibold_MSFontService,sans-serif" font-weight="600" font-size="55" transform="matrix(1 0 0 1 3237.21 1756)">Functions</text><text font-family="Segoe UI Variable Display Semibold,Segoe UI Variable Display Semibold_MSFontService,sans-serif" font-weight="600" font-size="55" transform="matrix(1 0 0 1 3480.7 1756)"> </text><path d="M3512.5 1706.73C3512.5 1691.14 3525.14 1678.5 3540.73 1678.5L3897.27 1678.5C3912.86 1678.5 3925.5 1691.14 3925.5 1706.73L3925.5 1771.27C3925.5 1786.86 3912.86 1799.5 3897.27 1799.5L3540.73 1799.5C3525.14 1799.5 3512.5 1786.86 3512.5 1771.27Z" stroke="#BFBFBF" stroke-width="4.58333" stroke-miterlimit="8" fill="#FFFFFF" fill-rule="evenodd" fill-opacity="0.8"/><text font-family="Segoe UI Variable Display Semibold,Segoe UI Variable Display Semibold_MSFontService,sans-serif" font-weight="600" font-size="55" transform="matrix(1 0 0 1 3576.63 1756)">TripAdvsior</text><text font-family="Segoe UI Variable Display Semibold,Segoe UI Variable Display Semibold_MSFontService,sans-serif" font-weight="600" font-size="55" transform="matrix(1 0 0 1 3860.79 1756)"> </text><path d="M3933.5 1706.73C3933.5 1691.14 3946.14 1678.5 3961.73 1678.5L4057.27 1678.5C4072.86 1678.5 4085.5 1691.14 4085.5 1706.73L4085.5 1771.27C4085.5 1786.86 4072.86 1799.5 4057.27 1799.5L3961.73 1799.5C3946.14 1799.5 3933.5 1786.86 3933.5 1771.27Z" stroke="#BFBFBF" stroke-width="4.58333" stroke-miterlimit="8" fill="#FFFFFF" fill-rule="evenodd" fill-opacity="0.8"/><text font-family="Segoe UI Variable Display Semibold,Segoe UI Variable Display Semibold_MSFontService,sans-serif" font-weight="600" font-size="55" transform="matrix(1 0 0 1 3986.78 1756)"></text><text font-family="Segoe UI Variable Display Semibold,Segoe UI Variable Display Semibold_MSFontService,sans-serif" font-weight="600" font-size="55" transform="matrix(1 0 0 1 4030.9 1756)"> </text><text font-family="Segoe UI Variable Display Semibold,Segoe UI Variable Display Semibold_MSFontService,sans-serif" font-weight="600" font-size="64" transform="matrix(1 0 0 1 3357.14 848)">Foundry Resource</text><text font-family="Segoe UI Variable Display Semibold,Segoe UI Variable Display Semibold_MSFontService,sans-serif" font-weight="600" font-size="64" transform="matrix(1 0 0 1 3880.22 848)"> </text><path d="M3296.5 934.726C3296.5 919.137 3309.14 906.5 3324.73 906.5L3914.27 906.5C3929.86 906.5 3942.5 919.137 3942.5 934.726L3942.5 999.274C3942.5 1014.86 3929.86 1027.5 3914.27 1027.5L3324.73 1027.5C3309.14 1027.5 3296.5 1014.86 3296.5 999.274Z" stroke="#BFBFBF" stroke-width="4.58333" stroke-miterlimit="8" fill="#FFFFFF" fill-rule="evenodd" fill-opacity="0.8"/><text font-family="Segoe UI Variable Display Semibold,Segoe UI Variable Display Semibold_MSFontService,sans-serif" font-weight="600" font-size="55" transform="matrix(1 0 0 1 3467.43 984)">Foundry API</text><text font-family="Segoe UI Variable Display Semibold,Segoe UI Variable Display Semibold_MSFontService,sans-serif" font-weight="600" font-size="55" transform="matrix(1 0 0 1 3769.93 984)"> </text><path d="M3296.5 1098.73C3296.5 1083.14 3309.14 1070.5 3324.73 1070.5L3914.27 1070.5C3929.86 1070.5 3942.5 1083.14 3942.5 1098.73L3942.5 1163.27C3942.5 1178.86 3929.86 1191.5 3914.27 1191.5L3324.73 1191.5C3309.14 1191.5 3296.5 1178.86 3296.5 1163.27Z" stroke="#BFBFBF" stroke-width="4.58333" stroke-miterlimit="8" fill="#FFFFFF" fill-rule="evenodd" fill-opacity="0.8"/><text font-family="Segoe UI Variable Display Semibold,Segoe UI Variable Display Semibold_MSFontService,sans-serif" font-weight="600" font-size="55" transform="matrix(1 0 0 1 3398.97 1148)">Azure OpenAI API</text><text font-family="Segoe UI Variable Display Semibold,Segoe UI Variable Display Semibold_MSFontService,sans-serif" font-weight="600" font-size="55" transform="matrix(1 0 0 1 3838.39 1148)"> </text><path d="M964.664 614.467 953.569 615.679C951.023 615.949 949.166 616.653 947.998 617.791 946.83 618.929 946.246 620.456 946.246 622.373 946.246 624.319 946.913 625.899 948.245 627.112 949.578 628.325 951.307 628.931 953.434 628.931 956.788 628.931 959.498 627.801 961.565 625.54 963.631 623.279 964.664 620.426 964.664 616.982ZM765.289 614.467 754.194 615.679C751.648 615.949 749.791 616.653 748.623 617.791 747.455 618.929 746.871 620.456 746.871 622.373 746.871 624.319 747.538 625.899 748.87 627.112 750.203 628.325 751.933 628.931 754.059 628.931 757.413 628.931 760.123 627.801 762.19 625.54 764.256 623.279 765.289 620.426 765.289 616.982ZM599.716 614.467 588.621 615.679C586.075 615.949 584.218 616.653 583.05 617.791 581.882 618.929 581.298 620.456 581.298 622.373 581.298 624.319 581.965 625.899 583.297 627.112 584.63 628.325 586.36 628.931 588.486 628.931 591.84 628.931 594.55 627.801 596.617 625.54 598.683 623.279 599.716 620.426 599.716 616.982ZM1404.59 597.082C1400.78 597.082 1397.68 598.355 1395.26 600.9 1392.85 603.446 1391.65 606.71 1391.65 610.693L1391.65 616.353C1391.65 619.737 1392.78 622.568 1395.04 624.844 1397.3 627.12 1400.15 628.258 1403.6 628.258 1407.49 628.258 1410.55 626.775 1412.78 623.81 1415.02 620.845 1416.13 616.847 1416.13 611.816 1416.13 606.935 1415.11 603.259 1413.05 600.788 1411 598.317 1408.18 597.082 1404.59 597.082ZM1113.2 597.082C1109.09 597.082 1105.81 598.542 1103.36 601.462 1100.9 604.382 1099.68 608.163 1099.68 612.804 1099.68 617.626 1100.89 621.407 1103.31 624.147 1105.74 626.887 1109.03 628.258 1113.2 628.258 1117.33 628.258 1120.53 626.843 1122.81 624.012 1125.09 621.182 1126.22 617.357 1126.22 612.535 1126.22 607.893 1125.08 604.157 1122.79 601.327 1120.5 598.497 1117.3 597.082 1113.2 597.082ZM705.573 597.082C701.679 597.082 698.595 598.489 696.319 601.305 694.043 604.12 692.905 608.133 692.905 613.344 692.905 617.985 693.96 621.632 696.072 624.282 698.183 626.932 701.11 628.258 704.854 628.258 708.597 628.258 711.637 626.97 713.973 624.394 716.309 621.819 717.477 618.45 717.477 614.287L717.477 608.941C717.477 605.647 716.369 602.847 714.153 600.541 711.936 598.235 709.076 597.082 705.573 597.082ZM521.722 597.082C517.918 597.082 514.811 598.362 512.4 600.923 509.99 603.483 508.784 606.74 508.784 610.693L508.784 616.308C508.784 619.693 509.892 622.53 512.108 624.821 514.324 627.112 517.199 628.258 520.733 628.258 524.746 628.258 527.839 626.805 530.01 623.9 532.181 620.995 533.267 616.967 533.267 611.816 533.267 607.114 532.248 603.483 530.212 600.923 528.175 598.362 525.345 597.082 521.722 597.082ZM1792.95 596.453C1789.68 596.453 1787.03 597.539 1784.99 599.71 1782.96 601.881 1781.73 604.569 1781.31 607.773L1803.01 607.773C1803.01 604.179 1802.11 601.394 1800.31 599.418 1798.52 597.441 1796.06 596.453 1792.95 596.453ZM1590.71 596.453C1587.44 596.453 1584.79 597.539 1582.76 599.71 1580.72 601.881 1579.49 604.569 1579.07 607.773L1600.77 607.773C1600.77 604.179 1599.87 601.394 1598.07 599.418 1596.28 597.441 1593.82 596.453 1590.71 596.453ZM1478.41 596.453C1475.15 596.453 1472.5 597.539 1470.46 599.71 1468.43 601.881 1467.2 604.569 1466.78 607.773L1488.48 607.773C1488.48 604.179 1487.58 601.394 1485.78 599.418 1483.99 597.441 1481.53 596.453 1478.41 596.453ZM841.332 596.453C838.067 596.453 835.417 597.539 833.38 599.71 831.344 601.881 830.116 604.569 829.697 607.773L851.394 607.773C851.394 604.179 850.496 601.394 848.699 599.418 846.902 597.441 844.446 596.453 841.332 596.453ZM1702.72 589.67 1713.19 589.67 1713.19 635.67 1702.72 635.67ZM1650.13 589.67 1661.27 589.67 1671.33 619.722C1671.69 620.831 1671.98 621.781 1672.21 622.575 1672.43 623.369 1672.69 624.334 1672.99 625.472L1673.17 625.472C1673.47 624.334 1673.74 623.369 1673.98 622.575 1674.22 621.781 1674.51 620.905 1674.84 619.947L1685.3 589.67 1696.08 589.67 1678.34 635.67 1667.06 635.67ZM1358.4 589.67 1368.87 589.67 1368.87 635.67 1358.4 635.67ZM1246.97 589.67 1257.35 589.67 1257.35 616.578C1257.35 620.471 1258.1 623.391 1259.6 625.338 1261.09 627.284 1263.43 628.258 1266.6 628.258 1269.81 628.258 1272.43 627.09 1274.47 624.754 1276.5 622.418 1277.52 619.468 1277.52 615.904L1277.52 589.67 1287.99 589.67 1287.99 635.67 1277.52 635.67 1277.52 629.426 1277.34 629.426C1275.84 631.672 1273.83 633.454 1271.3 634.771 1268.77 636.089 1266.11 636.748 1263.32 636.748 1257.93 636.748 1253.86 635.146 1251.11 631.941 1248.35 628.737 1246.97 624.08 1246.97 617.97ZM981.995 589.67 993.405 589.67 1003.96 620.172C1004.29 621.1 1004.55 621.924 1004.73 622.642 1004.91 623.361 1005.11 624.245 1005.35 625.293L1005.58 625.293C1005.79 624.245 1006.01 623.376 1006.23 622.687 1006.45 621.998 1006.72 621.19 1007.02 620.261L1017.66 589.67 1028.4 589.67 1007.02 644.834C1005.43 648.937 1003.3 652.044 1000.62 654.155 997.935 656.266 994.678 657.322 990.845 657.322 988.988 657.322 987.243 657.12 985.611 656.716 983.979 656.311 982.429 655.675 980.962 654.806L985.499 647.439C986.427 647.978 987.266 648.36 988.014 648.585 988.763 648.809 989.542 648.922 990.35 648.922 991.758 648.922 992.963 648.57 993.967 647.866 994.97 647.162 995.876 645.882 996.684 644.025L1000.05 636.209ZM865.233 589.67 875.834 589.67 884.055 621.16C884.205 621.699 884.324 622.26 884.414 622.844 884.504 623.428 884.609 624.095 884.729 624.844L884.998 624.844C885.148 624.065 885.29 623.384 885.425 622.8 885.56 622.216 885.717 621.624 885.897 621.025L895.24 589.67 905.168 589.67 913.524 621.205C913.614 621.564 913.726 622.051 913.861 622.665 913.995 623.279 914.138 624.02 914.287 624.888L914.602 624.888C914.751 624.05 914.871 623.406 914.961 622.957 915.051 622.508 915.186 621.924 915.365 621.205L923.317 589.67 933.065 589.67 919.498 635.67 908.582 635.67 900.317 605.752C900.107 604.973 899.957 604.359 899.867 603.91 899.777 603.461 899.673 602.877 899.553 602.158L899.328 602.158C899.209 602.877 899.089 603.468 898.969 603.932 898.849 604.397 898.684 604.958 898.475 605.617L889.535 635.67 878.754 635.67ZM444.89 589.67 455.267 589.67 455.267 616.578C455.267 620.471 456.016 623.391 457.513 625.338 459.011 627.284 461.347 628.258 464.521 628.258 467.726 628.258 470.346 627.09 472.382 624.754 474.419 622.418 475.437 619.468 475.437 615.904L475.437 589.67 485.904 589.67 485.904 635.67 475.437 635.67 475.437 629.426 475.257 629.426C473.76 631.672 471.746 633.454 469.215 634.771 466.685 636.089 464.027 636.748 461.242 636.748 455.851 636.748 451.778 635.146 449.023 631.941 446.268 628.737 444.89 624.08 444.89 617.97ZM1642.91 588.861C1644.08 588.861 1645.15 588.951 1646.14 589.131 1647.13 589.31 1648.19 589.655 1649.33 590.164L1646.46 599.058C1645.62 598.729 1644.76 598.467 1643.87 598.272 1642.99 598.078 1642.05 597.98 1641.07 597.98 1637.98 597.98 1635.48 599.358 1633.56 602.113 1631.65 604.868 1630.69 608.462 1630.69 612.894L1630.69 635.67 1620.22 635.67 1620.22 589.67 1630.69 589.67 1630.69 597.98 1630.87 597.98C1631.95 595.045 1633.53 592.792 1635.63 591.219 1637.73 589.647 1640.15 588.861 1642.91 588.861ZM1837.96 588.592C1841.28 588.592 1844.35 589.176 1847.15 590.344 1849.95 591.511 1852.17 593.308 1853.82 595.734L1847.44 600.99C1846.15 599.463 1844.74 598.332 1843.22 597.598 1841.69 596.865 1839.89 596.498 1837.83 596.498 1835.67 596.498 1833.97 596.962 1832.73 597.89 1831.48 598.819 1830.86 600.122 1830.86 601.799 1830.86 603.296 1831.45 604.479 1832.64 605.347 1833.82 606.216 1836.09 606.965 1839.44 607.594 1844.59 608.492 1848.44 610.109 1850.99 612.445 1853.53 614.781 1854.81 617.956 1854.81 621.969 1854.81 626.581 1853.15 630.197 1849.84 632.817 1846.53 635.438 1842.45 636.748 1837.6 636.748 1833.47 636.748 1829.87 635.984 1826.82 634.457 1823.76 632.929 1821.35 630.803 1819.59 628.078L1826.06 622.642C1827.67 624.888 1829.43 626.476 1831.31 627.404 1833.2 628.332 1835.32 628.797 1837.69 628.797 1840 628.797 1841.85 628.288 1843.26 627.269 1844.67 626.251 1845.37 624.784 1845.37 622.867 1845.37 621.429 1844.74 620.187 1843.46 619.138 1842.19 618.09 1840.18 617.312 1837.42 616.802 1831.49 615.694 1827.37 613.972 1825.05 611.636 1822.72 609.301 1821.56 606.396 1821.56 602.922 1821.56 598.609 1823.11 595.143 1826.19 592.522 1829.28 589.902 1833.2 588.592 1837.96 588.592ZM1792.77 588.592C1799.23 588.592 1804.24 590.523 1807.79 594.387 1811.34 598.25 1813.12 603.85 1813.12 611.187L1813.12 615.23 1781.36 615.23C1781.45 619.663 1782.65 622.994 1784.97 625.225 1787.29 627.456 1790.15 628.572 1793.53 628.572 1795.93 628.572 1798.05 628.01 1799.91 626.887 1801.77 625.764 1803.34 624.095 1804.63 621.879L1812.67 626.236C1810.57 629.59 1807.9 632.181 1804.65 634.008 1801.4 635.834 1797.57 636.748 1793.17 636.748 1786.4 636.748 1780.98 634.711 1776.91 630.638 1772.84 626.566 1770.8 620.711 1770.8 613.074 1770.8 605.797 1772.89 599.897 1777.07 595.375 1781.24 590.853 1786.48 588.592 1792.77 588.592ZM1746.53 588.592C1750.51 588.592 1754.1 589.43 1757.31 591.107 1760.51 592.784 1762.94 595.285 1764.59 598.609L1756.41 602.742C1754.97 600.676 1753.44 599.216 1751.81 598.362 1750.17 597.509 1748.28 597.082 1746.12 597.082 1742.41 597.082 1739.35 598.459 1736.94 601.215 1734.53 603.97 1733.32 607.818 1733.32 612.76 1733.32 617.641 1734.51 621.414 1736.89 624.08 1739.27 626.745 1742.47 628.078 1746.48 628.078 1748.52 628.078 1750.4 627.651 1752.12 626.798 1753.84 625.944 1755.39 624.499 1756.77 622.463L1764.81 627.09C1762.77 630.324 1760.15 632.742 1756.93 634.344 1753.71 635.947 1750.15 636.748 1746.26 636.748 1738.83 636.748 1733.04 634.614 1728.9 630.346 1724.75 626.079 1722.67 620.456 1722.67 613.478 1722.67 605.782 1724.88 599.71 1729.3 595.263 1733.72 590.815 1739.46 588.592 1746.53 588.592ZM1590.53 588.592C1597 588.592 1602 590.523 1605.55 594.387 1609.1 598.25 1610.88 603.85 1610.88 611.187L1610.88 615.23 1579.12 615.23C1579.21 619.663 1580.41 622.994 1582.73 625.225 1585.05 627.456 1587.91 628.572 1591.29 628.572 1593.69 628.572 1595.81 628.01 1597.67 626.887 1599.53 625.764 1601.1 624.095 1602.39 621.879L1610.43 626.236C1608.33 629.59 1605.66 632.181 1602.41 634.008 1599.16 635.834 1595.33 636.748 1590.93 636.748 1584.16 636.748 1578.74 634.711 1574.67 630.638 1570.6 626.566 1568.56 620.711 1568.56 613.074 1568.56 605.797 1570.65 599.897 1574.83 595.375 1579 590.853 1584.24 588.592 1590.53 588.592ZM1545.2 588.592C1548.52 588.592 1551.59 589.176 1554.39 590.344 1557.19 591.511 1559.41 593.308 1561.06 595.734L1554.68 600.99C1553.39 599.463 1551.98 598.332 1550.46 597.598 1548.93 596.865 1547.13 596.498 1545.07 596.498 1542.91 596.498 1541.21 596.962 1539.97 597.89 1538.72 598.819 1538.1 600.122 1538.1 601.799 1538.1 603.296 1538.69 604.479 1539.88 605.347 1541.06 606.216 1543.33 606.965 1546.68 607.594 1551.83 608.492 1555.68 610.109 1558.23 612.445 1560.77 614.781 1562.05 617.956 1562.05 621.969 1562.05 626.581 1560.39 630.197 1557.08 632.817 1553.77 635.438 1549.69 636.748 1544.84 636.748 1540.71 636.748 1537.11 635.984 1534.06 634.457 1531 632.929 1528.59 630.803 1526.83 628.078L1533.3 622.642C1534.91 624.888 1536.66 626.476 1538.55 627.404 1540.44 628.332 1542.56 628.797 1544.93 628.797 1547.24 628.797 1549.09 628.288 1550.5 627.269 1551.91 626.251 1552.61 624.784 1552.61 622.867 1552.61 621.429 1551.98 620.187 1550.7 619.138 1549.43 618.09 1547.42 617.312 1544.66 616.802 1538.73 615.694 1534.61 613.972 1532.29 611.636 1529.96 609.301 1528.8 606.396 1528.8 602.922 1528.8 598.609 1530.35 595.143 1533.43 592.522 1536.52 589.902 1540.44 588.592 1545.2 588.592ZM1478.24 588.592C1484.7 588.592 1489.71 590.523 1493.26 594.387 1496.81 598.25 1498.58 603.85 1498.58 611.187L1498.58 615.23 1466.82 615.23C1466.91 619.663 1468.12 622.994 1470.44 625.225 1472.76 627.456 1475.61 628.572 1479 628.572 1481.39 628.572 1483.52 628.01 1485.38 626.887 1487.23 625.764 1488.81 624.095 1490.09 621.879L1498.14 626.236C1496.04 629.59 1493.37 632.181 1490.12 634.008 1486.87 635.834 1483.04 636.748 1478.64 636.748 1471.87 636.748 1466.45 634.711 1462.38 630.638 1458.3 626.566 1456.27 620.711 1456.27 613.074 1456.27 605.797 1458.36 599.897 1462.54 595.375 1466.71 590.853 1471.95 588.592 1478.24 588.592ZM1407.46 588.592C1413.57 588.592 1418.33 590.613 1421.75 594.656 1425.16 598.699 1426.87 604.329 1426.87 611.547 1426.87 619.094 1424.96 625.18 1421.14 629.807 1417.32 634.434 1412.22 636.748 1405.84 636.748 1402.88 636.748 1400.24 636.254 1397.92 635.265 1395.59 634.277 1393.61 632.81 1391.96 630.863L1391.78 630.863 1391.78 656.828 1381.32 656.828 1381.32 589.67 1391.78 589.67 1391.78 596.228 1391.96 596.228C1393.79 593.683 1396.01 591.774 1398.63 590.501 1401.25 589.228 1404.2 588.592 1407.46 588.592ZM1192.6 588.592C1195.77 588.592 1198.49 589.34 1200.77 590.838 1203.05 592.335 1204.66 594.282 1205.62 596.677 1207.51 593.952 1209.76 591.923 1212.38 590.591 1215 589.258 1217.99 588.592 1221.35 588.592 1226.14 588.592 1229.85 590.149 1232.49 593.263 1235.12 596.378 1236.44 601.02 1236.44 607.189L1236.44 635.67 1226.02 635.67 1226.02 609.166C1226.02 605.003 1225.31 601.948 1223.88 600.002 1222.46 598.055 1220.18 597.082 1217.03 597.082 1214.25 597.082 1211.92 598.295 1210.05 600.72 1208.18 603.146 1207.24 606.126 1207.24 609.66L1207.24 635.67 1196.82 635.67 1196.82 608.717C1196.82 604.853 1196.07 601.948 1194.57 600.002 1193.07 598.055 1190.81 597.082 1187.79 597.082 1184.91 597.082 1182.58 598.235 1180.78 600.541 1178.98 602.847 1178.09 605.916 1178.09 609.75L1178.09 635.67 1167.62 635.67 1167.62 589.67 1178.09 589.67 1178.09 595.869 1178.27 595.869C1179.82 593.563 1181.85 591.774 1184.35 590.501 1186.85 589.228 1189.6 588.592 1192.6 588.592ZM1113.47 588.592C1120.71 588.592 1126.43 590.793 1130.63 595.195 1134.82 599.597 1136.92 605.288 1136.92 612.265 1136.92 619.393 1134.71 625.255 1130.29 629.852 1125.87 634.449 1120.04 636.748 1112.79 636.748 1105.52 636.748 1099.74 634.607 1095.45 630.324 1091.17 626.041 1089.03 620.276 1089.03 613.029 1089.06 605.692 1091.33 599.785 1095.86 595.307 1100.38 590.83 1106.25 588.592 1113.47 588.592ZM956.803 588.592C962.613 588.592 967.053 590.111 970.122 593.151 973.192 596.191 974.727 600.601 974.727 606.381L974.727 635.67 964.619 635.67 964.619 629.965 964.44 629.965C962.823 632.181 960.846 633.865 958.51 635.018 956.174 636.171 953.569 636.748 950.694 636.748 946.441 636.748 942.96 635.535 940.249 633.109 937.539 630.683 936.184 627.509 936.184 623.586 936.184 619.363 937.539 615.971 940.249 613.411 942.96 610.85 946.845 609.286 951.906 608.717L964.664 607.279 964.664 605.078C964.664 602.233 963.871 600.099 962.283 598.677 960.696 597.254 958.615 596.543 956.039 596.543 953.494 596.543 951.352 597.112 949.615 598.25 947.878 599.388 946.441 601.02 945.303 603.146L937.487 599.148C939.044 596.064 941.499 593.533 944.854 591.556 948.208 589.58 952.191 588.592 956.803 588.592ZM841.152 588.592C847.621 588.592 852.63 590.523 856.178 594.387 859.727 598.25 861.502 603.85 861.502 611.187L861.502 615.23 829.742 615.23C829.832 619.663 831.037 622.994 833.358 625.225 835.679 627.456 838.531 628.572 841.916 628.572 844.311 628.572 846.438 628.01 848.295 626.887 850.151 625.764 851.724 624.095 853.011 621.879L861.052 626.236C858.956 629.59 856.283 632.181 853.034 634.008 849.784 635.834 845.959 636.748 841.556 636.748 834.788 636.748 829.367 634.711 825.295 630.638 821.222 626.566 819.185 620.711 819.185 613.074 819.185 605.797 821.274 599.897 825.452 595.375 829.63 590.853 834.863 588.592 841.152 588.592ZM757.428 588.592C763.238 588.592 767.678 590.111 770.747 593.151 773.817 596.191 775.352 600.601 775.352 606.381L775.352 635.67 765.244 635.67 765.244 629.965 765.065 629.965C763.448 632.181 761.471 633.865 759.135 635.018 756.799 636.171 754.194 636.748 751.319 636.748 747.066 636.748 743.585 635.535 740.874 633.109 738.164 630.683 736.809 627.509 736.809 623.586 736.809 619.363 738.164 615.971 740.874 613.411 743.585 610.85 747.47 609.286 752.531 608.717L765.289 607.279 765.289 605.078C765.289 602.233 764.496 600.099 762.909 598.677 761.321 597.254 759.24 596.543 756.664 596.543 754.119 596.543 751.977 597.112 750.24 598.25 748.504 599.388 747.066 601.02 745.928 603.146L738.112 599.148C739.669 596.064 742.125 593.533 745.479 591.556 748.833 589.58 752.816 588.592 757.428 588.592ZM704.09 588.592C706.815 588.592 709.331 589.101 711.637 590.119 713.943 591.137 715.8 592.605 717.207 594.521L717.387 594.521 717.387 589.67 727.854 589.67 727.854 633.019C727.854 640.776 725.75 646.765 721.542 650.988 717.335 655.211 711.502 657.322 704.045 657.322 699.283 657.322 695.136 656.476 691.602 654.784 688.068 653.092 685.103 650.674 682.707 647.529L690.299 641.869C692.036 644.295 694.005 646.107 696.206 647.304 698.407 648.502 701.065 649.101 704.18 649.101 708.343 649.101 711.585 647.903 713.906 645.508 716.226 643.112 717.387 639.548 717.387 634.816L717.387 629.515 717.207 629.515C715.53 631.881 713.486 633.678 711.076 634.906 708.665 636.134 705.677 636.748 702.114 636.748 696.124 636.748 691.317 634.734 687.694 630.706 684.07 626.678 682.258 621.055 682.258 613.838 682.258 605.931 684.332 599.747 688.48 595.285 692.628 590.823 697.831 588.592 704.09 588.592ZM637.127 588.592C640.451 588.592 643.514 589.176 646.314 590.344 649.114 591.511 651.338 593.308 652.985 595.734L646.606 600.99C645.318 599.463 643.91 598.332 642.383 597.598 640.856 596.865 639.059 596.498 636.992 596.498 634.836 596.498 633.137 596.962 631.894 597.89 630.651 598.819 630.03 600.122 630.03 601.799 630.03 603.296 630.621 604.479 631.804 605.347 632.987 606.216 635.255 606.965 638.61 607.594 643.761 608.492 647.609 610.109 650.155 612.445 652.7 614.781 653.973 617.956 653.973 621.969 653.973 626.581 652.318 630.197 649.009 632.817 645.7 635.438 641.619 636.748 636.768 636.748 632.635 636.748 629.041 635.984 625.987 634.457 622.932 632.929 620.521 630.803 618.754 628.078L625.223 622.642C626.84 624.888 628.592 626.476 630.479 627.404 632.366 628.332 634.492 628.797 636.858 628.797 639.164 628.797 641.02 628.288 642.428 627.269 643.836 626.251 644.539 624.784 644.539 622.867 644.539 621.429 643.903 620.187 642.63 619.138 641.357 618.09 639.343 617.312 636.588 616.802 630.658 615.694 626.533 613.972 624.212 611.636 621.891 609.301 620.731 606.396 620.731 602.922 620.731 598.609 622.273 595.143 625.358 592.522 628.442 589.902 632.366 588.592 637.127 588.592ZM591.855 588.592C597.665 588.592 602.105 590.111 605.174 593.151 608.244 596.191 609.779 600.601 609.779 606.381L609.779 635.67 599.672 635.67 599.672 629.965 599.492 629.965C597.875 632.181 595.898 633.865 593.562 635.018 591.226 636.171 588.621 636.748 585.746 636.748 581.493 636.748 578.012 635.535 575.301 633.109 572.591 630.683 571.236 627.509 571.236 623.586 571.236 619.363 572.591 615.971 575.301 613.411 578.012 610.85 581.897 609.286 586.959 608.717L599.716 607.279 599.716 605.078C599.716 602.233 598.923 600.099 597.336 598.677 595.748 597.254 593.667 596.543 591.091 596.543 588.546 596.543 586.405 597.112 584.668 598.25 582.931 599.388 581.493 601.02 580.355 603.146L572.539 599.148C574.096 596.064 576.552 593.533 579.906 591.556 583.26 589.58 587.243 588.592 591.855 588.592ZM1336.7 576.553 1336.7 589.67 1348.43 589.67 1348.43 597.846 1336.7 597.846 1336.7 623.361C1336.7 625.188 1337.07 626.536 1337.8 627.404 1338.54 628.273 1339.65 628.707 1341.15 628.707 1341.93 628.707 1342.69 628.557 1343.44 628.258 1344.19 627.958 1344.98 627.374 1345.82 626.506L1350.49 632.57C1349.12 633.888 1347.52 634.906 1345.69 635.625 1343.86 636.344 1341.81 636.703 1339.53 636.703 1335.16 636.703 1331.86 635.602 1329.63 633.401 1327.4 631.2 1326.28 627.973 1326.28 623.72L1326.28 597.846 1318.56 597.846 1318.56 589.67 1326.28 589.67 1326.28 578.394ZM1070.3 576.553 1070.3 589.67 1082.02 589.67 1082.02 597.846 1070.3 597.846 1070.3 623.361C1070.3 625.188 1070.66 626.536 1071.4 627.404 1072.13 628.273 1073.25 628.707 1074.74 628.707 1075.52 628.707 1076.29 628.557 1077.04 628.258 1077.78 627.958 1078.58 627.374 1079.42 626.506L1084.09 632.57C1082.71 633.888 1081.11 634.906 1079.28 635.625 1077.46 636.344 1075.4 636.703 1073.13 636.703 1068.76 636.703 1065.45 635.602 1063.22 633.401 1060.99 631.2 1059.88 627.973 1059.88 623.72L1059.88 597.846 1052.15 597.846 1052.15 589.67 1059.88 589.67 1059.88 578.394ZM800.454 576.553 800.454 589.67 812.179 589.67 812.179 597.846 800.454 597.846 800.454 623.361C800.454 625.188 800.821 626.536 801.555 627.404 802.288 628.273 803.404 628.707 804.901 628.707 805.68 628.707 806.444 628.557 807.192 628.258 807.941 627.958 808.735 627.374 809.573 626.506L814.245 632.57C812.867 633.888 811.265 634.906 809.438 635.625 807.612 636.344 805.56 636.703 803.284 636.703 798.912 636.703 795.61 635.602 793.379 633.401 791.148 631.2 790.032 627.973 790.032 623.72L790.032 597.846 782.306 597.846 782.306 589.67 790.032 589.67 790.032 578.394ZM380.453 571.252 391.145 571.252 391.145 598.34 421.467 598.34 421.467 571.252 432.203 571.252 432.203 635.67 421.467 635.67 421.467 607.863 391.145 607.863 391.145 635.67 380.453 635.67ZM1707.98 568.242C1709.98 568.242 1711.61 568.871 1712.85 570.129 1714.1 571.387 1714.72 572.929 1714.72 574.756 1714.72 576.612 1714.1 578.162 1712.85 579.405 1711.61 580.648 1709.98 581.269 1707.98 581.269 1706 581.269 1704.39 580.633 1703.15 579.36 1701.91 578.087 1701.29 576.568 1701.29 574.801 1701.29 572.944 1701.91 571.387 1703.15 570.129 1704.39 568.871 1706 568.242 1707.98 568.242ZM1363.66 568.242C1365.66 568.242 1367.29 568.871 1368.53 570.129 1369.77 571.387 1370.39 572.929 1370.39 574.756 1370.39 576.612 1369.77 578.162 1368.53 579.405 1367.29 580.648 1365.66 581.269 1363.66 581.269 1361.68 581.269 1360.07 580.633 1358.83 579.36 1357.58 578.087 1356.96 576.568 1356.96 574.801 1356.96 572.944 1357.58 571.387 1358.83 570.129 1360.07 568.871 1361.68 568.242 1363.66 568.242ZM1436.32 567.568 1446.78 567.568 1446.78 635.67 1436.32 635.67ZM1300.54 567.568 1311 567.568 1311 635.67 1300.54 635.67ZM498.452 567.568 508.919 567.568 508.919 596.004 509.099 596.004C510.836 593.608 513.007 591.774 515.612 590.501 518.218 589.228 521.213 588.592 524.597 588.592 530.736 588.592 535.505 590.636 538.904 594.723 542.303 598.811 544.003 604.419 544.003 611.547 544.003 619.183 542.131 625.293 538.388 629.875 534.644 634.457 529.523 636.748 523.024 636.748 519.94 636.748 517.222 636.231 514.871 635.198 512.52 634.165 510.596 632.66 509.099 630.683L508.919 630.683 508.919 635.67 498.452 635.67Z" fill="url(#fill8)" fill-rule="evenodd"/><text fill="#000000" fill-opacity="0" font-family="Arial,Arial_MSFontService,sans-serif" font-size="89.7538" x="380.453" y="646.103">Hub as gateway to multiple services</text><path d="M3416.9 614.403 3405.8 615.616C3403.25 615.885 3401.4 616.589 3400.23 617.727 3399.06 618.865 3398.48 620.393 3398.48 622.309 3398.48 624.256 3399.14 625.836 3400.48 627.049 3401.81 628.261 3403.54 628.868 3405.67 628.868 3409.02 628.868 3411.73 627.737 3413.8 625.476 3415.86 623.215 3416.9 620.363 3416.9 616.919ZM3306.32 614.403 3295.23 615.616C3292.68 615.885 3290.83 616.589 3289.66 617.727 3288.49 618.865 3287.91 620.393 3287.91 622.309 3287.91 624.256 3288.57 625.836 3289.9 627.049 3291.24 628.261 3292.97 628.868 3295.09 628.868 3298.45 628.868 3301.16 627.737 3303.22 625.476 3305.29 623.215 3306.32 620.363 3306.32 616.919ZM3141.23 597.018C3137.31 597.018 3134.21 598.426 3131.94 601.241 3129.66 604.056 3128.52 608.069 3128.52 613.28 3128.52 617.952 3129.58 621.606 3131.71 624.241 3133.84 626.876 3136.77 628.194 3140.52 628.194 3144.35 628.194 3147.4 626.876 3149.68 624.241 3151.96 621.606 3153.09 618.221 3153.09 614.089L3153.09 608.833C3153.09 605.479 3151.99 602.671 3149.79 600.41 3147.59 598.149 3144.74 597.018 3141.23 597.018ZM2982.2 597.018C2978.1 597.018 2974.82 598.478 2972.36 601.398 2969.91 604.318 2968.68 608.099 2968.68 612.741 2968.68 617.563 2969.89 621.344 2972.32 624.084 2974.74 626.824 2978.04 628.194 2982.2 628.194 2986.33 628.194 2989.54 626.779 2991.81 623.949 2994.09 621.119 2995.23 617.293 2995.23 612.471 2995.23 607.829 2994.08 604.094 2991.79 601.263 2989.5 598.433 2986.3 597.018 2982.2 597.018ZM3723.25 596.389C3719.99 596.389 3717.34 597.475 3715.3 599.646 3713.26 601.817 3712.04 604.505 3711.62 607.71L3733.31 607.71C3733.31 604.116 3732.42 601.331 3730.62 599.354 3728.82 597.378 3726.37 596.389 3723.25 596.389ZM3521.01 596.389C3517.75 596.389 3515.1 597.475 3513.06 599.646 3511.02 601.817 3509.8 604.505 3509.38 607.71L3531.07 607.71C3531.07 604.116 3530.18 601.331 3528.38 599.354 3526.58 597.378 3524.13 596.389 3521.01 596.389ZM3633.03 589.606 3643.49 589.606 3643.49 635.606 3633.03 635.606ZM3580.43 589.606 3591.57 589.606 3601.64 619.659C3602 620.767 3602.29 621.718 3602.51 622.511 3602.74 623.305 3603 624.271 3603.3 625.409L3603.48 625.409C3603.78 624.271 3604.05 623.305 3604.29 622.511 3604.53 621.718 3604.81 620.842 3605.14 619.884L3615.61 589.606 3626.39 589.606 3608.64 635.606 3597.37 635.606ZM3206.78 589.606 3218.19 589.606 3228.75 620.108C3229.08 621.036 3229.33 621.86 3229.51 622.579 3229.69 623.298 3229.9 624.181 3230.14 625.229L3230.36 625.229C3230.57 624.181 3230.79 623.313 3231.01 622.624 3231.24 621.935 3231.5 621.126 3231.8 620.198L3242.45 589.606 3253.18 589.606 3231.8 644.77C3230.21 648.873 3228.08 651.98 3225.4 654.092 3222.72 656.203 3219.46 657.258 3215.63 657.258 3213.77 657.258 3212.03 657.056 3210.4 656.652 3208.76 656.248 3207.21 655.611 3205.75 654.743L3210.28 647.376C3211.21 647.915 3212.05 648.297 3212.8 648.521 3213.55 648.746 3214.33 648.858 3215.13 648.858 3216.54 648.858 3217.75 648.506 3218.75 647.802 3219.75 647.099 3220.66 645.818 3221.47 643.962L3224.84 636.145ZM3014.57 589.606 3024.95 589.606 3024.95 616.514C3024.95 620.408 3025.7 623.328 3027.19 625.274 3028.69 627.221 3031.03 628.194 3034.2 628.194 3037.41 628.194 3040.03 627.026 3042.06 624.69 3044.1 622.354 3045.12 619.404 3045.12 615.841L3045.12 589.606 3055.58 589.606 3055.58 635.606 3045.12 635.606 3045.12 629.362 3044.94 629.362C3043.44 631.608 3041.43 633.39 3038.9 634.708 3036.36 636.025 3033.71 636.684 3030.92 636.684 3025.53 636.684 3021.46 635.082 3018.7 631.878 3015.95 628.673 3014.57 624.016 3014.57 617.907ZM3573.21 588.798C3574.38 588.798 3575.46 588.887 3576.45 589.067 3577.44 589.247 3578.5 589.591 3579.64 590.1L3576.76 598.995C3575.92 598.665 3575.06 598.403 3574.18 598.209 3573.3 598.014 3572.36 597.917 3571.37 597.917 3568.29 597.917 3565.79 599.294 3563.87 602.05 3561.95 604.805 3560.99 608.398 3560.99 612.831L3560.99 635.606 3550.53 635.606 3550.53 589.606 3560.99 589.606 3560.99 597.917 3561.17 597.917C3562.25 594.982 3563.84 592.728 3565.94 591.156 3568.03 589.584 3570.46 588.798 3573.21 588.798ZM3198.53 588.798C3199.69 588.798 3200.77 588.887 3201.76 589.067 3202.75 589.247 3203.81 589.591 3204.95 590.1L3202.07 598.995C3201.24 598.665 3200.38 598.403 3199.49 598.209 3198.61 598.014 3197.67 597.917 3196.68 597.917 3193.6 597.917 3191.1 599.294 3189.18 602.05 3187.27 604.805 3186.31 608.398 3186.31 612.831L3186.31 635.606 3175.84 635.606 3175.84 589.606 3186.31 589.606 3186.31 597.917 3186.49 597.917C3187.56 594.982 3189.15 592.728 3191.25 591.156 3193.34 589.584 3195.77 588.798 3198.53 588.798ZM3723.07 588.528C3729.54 588.528 3734.55 590.46 3738.1 594.323 3741.65 598.186 3743.42 603.786 3743.42 611.124L3743.42 615.167 3711.66 615.167C3711.75 619.599 3712.96 622.931 3715.28 625.162 3717.6 627.393 3720.45 628.509 3723.83 628.509 3726.23 628.509 3728.36 627.947 3730.21 626.824 3732.07 625.701 3733.64 624.031 3734.93 621.815L3742.97 626.173C3740.88 629.527 3738.2 632.117 3734.95 633.944 3731.7 635.771 3727.88 636.684 3723.48 636.684 3716.71 636.684 3711.29 634.648 3707.21 630.575 3703.14 626.502 3701.1 620.647 3701.1 613.01 3701.1 605.733 3703.19 599.833 3707.37 595.311 3711.55 590.789 3716.78 588.528 3723.07 588.528ZM3676.83 588.528C3680.82 588.528 3684.41 589.367 3687.61 591.044 3690.82 592.721 3693.24 595.221 3694.89 598.546L3686.72 602.678C3685.28 600.612 3683.74 599.152 3682.11 598.299 3680.48 597.445 3678.58 597.018 3676.43 597.018 3672.72 597.018 3669.65 598.396 3667.24 601.151 3664.83 603.906 3663.63 607.755 3663.63 612.696 3663.63 617.578 3664.82 621.351 3667.2 624.016 3669.58 626.682 3672.78 628.014 3676.79 628.014 3678.82 628.014 3680.7 627.588 3682.43 626.734 3684.15 625.881 3685.7 624.436 3687.08 622.399L3695.12 627.026C3693.08 630.26 3690.45 632.679 3687.23 634.281 3684.01 635.883 3680.46 636.684 3676.56 636.684 3669.14 636.684 3663.35 634.551 3659.2 630.283 3655.05 626.015 3652.98 620.393 3652.98 613.415 3652.98 605.718 3655.19 599.646 3659.61 595.199 3664.02 590.752 3669.77 588.528 3676.83 588.528ZM3520.83 588.528C3527.3 588.528 3532.31 590.46 3535.86 594.323 3539.41 598.186 3541.18 603.786 3541.18 611.124L3541.18 615.167 3509.42 615.167C3509.51 619.599 3510.72 622.931 3513.04 625.162 3515.36 627.393 3518.21 628.509 3521.6 628.509 3523.99 628.509 3526.12 627.947 3527.97 626.824 3529.83 625.701 3531.4 624.031 3532.69 621.815L3540.73 626.173C3538.64 629.527 3535.96 632.117 3532.71 633.944 3529.46 635.771 3525.64 636.684 3521.24 636.684 3514.47 636.684 3509.05 634.648 3504.97 630.575 3500.9 626.502 3498.86 620.647 3498.86 613.01 3498.86 605.733 3500.95 599.833 3505.13 595.311 3509.31 590.789 3514.54 588.528 3520.83 588.528ZM3475.5 588.528C3478.83 588.528 3481.89 589.112 3484.69 590.28 3487.49 591.448 3489.72 593.245 3491.36 595.671L3484.98 600.927C3483.7 599.399 3482.29 598.269 3480.76 597.535 3479.23 596.801 3477.44 596.434 3475.37 596.434 3473.21 596.434 3471.51 596.898 3470.27 597.827 3469.03 598.755 3468.41 600.058 3468.41 601.735 3468.41 603.232 3469 604.415 3470.18 605.284 3471.36 606.152 3473.63 606.901 3476.99 607.53 3482.14 608.428 3485.99 610.046 3488.53 612.382 3491.08 614.718 3492.35 617.892 3492.35 621.905 3492.35 626.517 3490.7 630.133 3487.39 632.754 3484.08 635.374 3480 636.684 3475.15 636.684 3471.01 636.684 3467.42 635.921 3464.36 634.393 3461.31 632.866 3458.9 630.74 3457.13 628.014L3463.6 622.579C3465.22 624.825 3466.97 626.412 3468.86 627.341 3470.74 628.269 3472.87 628.733 3475.24 628.733 3477.54 628.733 3479.4 628.224 3480.81 627.206 3482.21 626.188 3482.92 624.72 3482.92 622.803 3482.92 621.366 3482.28 620.123 3481.01 619.075 3479.74 618.027 3477.72 617.248 3474.97 616.739 3469.04 615.631 3464.91 613.909 3462.59 611.573 3460.27 609.237 3459.11 606.332 3459.11 602.858 3459.11 598.546 3460.65 595.079 3463.74 592.459 3466.82 589.838 3470.74 588.528 3475.5 588.528ZM3409.03 588.528C3414.84 588.528 3419.28 590.048 3422.35 593.088 3425.42 596.127 3426.96 600.537 3426.96 606.317L3426.96 635.606 3416.85 635.606 3416.85 629.901 3416.67 629.901C3415.05 632.117 3413.08 633.802 3410.74 634.955 3408.41 636.108 3405.8 636.684 3402.93 636.684 3398.67 636.684 3395.19 635.471 3392.48 633.046 3389.77 630.62 3388.42 627.445 3388.42 623.522 3388.42 619.3 3389.77 615.908 3392.48 613.347 3395.19 610.787 3399.08 609.222 3404.14 608.653L3416.9 607.216 3416.9 605.014C3416.9 602.169 3416.1 600.036 3414.52 598.613 3412.93 597.19 3410.85 596.479 3408.27 596.479 3405.73 596.479 3403.58 597.048 3401.85 598.186 3400.11 599.324 3398.67 600.956 3397.53 603.083L3389.72 599.085C3391.28 596 3393.73 593.469 3397.09 591.493 3400.44 589.516 3404.42 588.528 3409.03 588.528ZM3343.73 588.528C3347.06 588.528 3350.12 589.112 3352.92 590.28 3355.72 591.448 3357.94 593.245 3359.59 595.671L3353.21 600.927C3351.92 599.399 3350.52 598.269 3348.99 597.535 3347.46 596.801 3345.67 596.434 3343.6 596.434 3341.44 596.434 3339.74 596.898 3338.5 597.827 3337.26 598.755 3336.64 600.058 3336.64 601.735 3336.64 603.232 3337.23 604.415 3338.41 605.284 3339.59 606.152 3341.86 606.901 3345.22 607.53 3350.37 608.428 3354.22 610.046 3356.76 612.382 3359.31 614.718 3360.58 617.892 3360.58 621.905 3360.58 626.517 3358.93 630.133 3355.62 632.754 3352.31 635.374 3348.23 636.684 3343.37 636.684 3339.24 636.684 3335.65 635.921 3332.59 634.393 3329.54 632.866 3327.13 630.74 3325.36 628.014L3331.83 622.579C3333.45 624.825 3335.2 626.412 3337.09 627.341 3338.97 628.269 3341.1 628.733 3343.46 628.733 3345.77 628.733 3347.63 628.224 3349.03 627.206 3350.44 626.188 3351.15 624.72 3351.15 622.803 3351.15 621.366 3350.51 620.123 3349.24 619.075 3347.96 618.027 3345.95 617.248 3343.2 616.739 3337.27 615.631 3333.14 613.909 3330.82 611.573 3328.5 609.237 3327.34 606.332 3327.34 602.858 3327.34 598.546 3328.88 595.079 3331.96 592.459 3335.05 589.838 3338.97 588.528 3343.73 588.528ZM3298.46 588.528C3304.27 588.528 3308.71 590.048 3311.78 593.088 3314.85 596.127 3316.39 600.537 3316.39 606.317L3316.39 635.606 3306.28 635.606 3306.28 629.901 3306.1 629.901C3304.48 632.117 3302.5 633.802 3300.17 634.955 3297.83 636.108 3295.23 636.684 3292.35 636.684 3288.1 636.684 3284.62 635.471 3281.91 633.046 3279.2 630.62 3277.84 627.445 3277.84 623.522 3277.84 619.3 3279.2 615.908 3281.91 613.347 3284.62 610.787 3288.5 609.222 3293.57 608.653L3306.32 607.216 3306.32 605.014C3306.32 602.169 3305.53 600.036 3303.94 598.613 3302.36 597.19 3300.27 596.479 3297.7 596.479 3295.15 596.479 3293.01 597.048 3291.27 598.186 3289.54 599.324 3288.1 600.956 3286.96 603.083L3279.15 599.085C3280.7 596 3283.16 593.469 3286.51 591.493 3289.87 589.516 3293.85 588.528 3298.46 588.528ZM3093.51 588.528C3098.6 588.528 3102.48 590.145 3105.15 593.38 3107.81 596.614 3109.15 601.241 3109.15 607.26L3109.15 635.606 3098.72 635.606 3098.72 608.698C3098.72 604.895 3097.97 601.997 3096.46 600.006 3094.94 598.014 3092.67 597.018 3089.65 597.018 3086.39 597.018 3083.73 598.179 3081.68 600.5 3079.62 602.821 3078.6 605.778 3078.6 609.372L3078.6 635.606 3068.13 635.606 3068.13 589.606 3078.6 589.606 3078.6 595.85 3078.73 595.85C3080.38 593.514 3082.5 591.71 3085.09 590.437 3087.68 589.164 3090.49 588.528 3093.51 588.528ZM2982.47 588.528C2989.72 588.528 2995.44 590.729 2999.63 595.132 3003.82 599.534 3005.92 605.224 3005.92 612.202 3005.92 619.329 3003.71 625.192 2999.29 629.789 2994.88 634.386 2989.04 636.684 2981.8 636.684 2974.52 636.684 2968.74 634.543 2964.46 630.26 2960.17 625.978 2958.03 620.213 2958.03 612.966 2958.06 605.628 2960.34 599.721 2964.86 595.244 2969.38 590.767 2975.25 588.528 2982.47 588.528ZM2916.9 571.188 2951.67 571.188 2951.67 580.352 2927.6 580.352 2927.6 599.579 2949.79 599.579 2949.79 608.698 2927.6 608.698 2927.6 635.606 2916.9 635.606ZM3638.28 568.178C3640.29 568.178 3641.91 568.807 3643.16 570.065 3644.4 571.323 3645.02 572.865 3645.02 574.692 3645.02 576.549 3644.4 578.099 3643.16 579.342 3641.91 580.584 3640.29 581.206 3638.28 581.206 3636.31 581.206 3634.7 580.569 3633.45 579.297 3632.21 578.024 3631.59 576.504 3631.59 574.737 3631.59 572.88 3632.21 571.323 3633.45 570.065 3634.7 568.807 3636.31 568.178 3638.28 568.178ZM3152.96 567.505 3163.43 567.505 3163.43 635.606 3152.96 635.606 3152.96 629.227 3152.78 629.227C3151.1 631.683 3148.99 633.54 3146.45 634.798 3143.9 636.055 3141.01 636.684 3137.78 636.684 3131.61 636.684 3126.75 634.64 3123.2 630.552 3119.65 626.465 3117.88 620.842 3117.88 613.684 3117.88 605.958 3119.86 599.833 3123.83 595.311 3127.8 590.789 3133.09 588.528 3139.71 588.528 3142.58 588.528 3145.18 589.097 3147.5 590.235 3149.82 591.373 3151.58 592.811 3152.78 594.548L3152.96 594.548Z" fill="url(#fill9)" fill-rule="evenodd"/><text fill="#000000" fill-opacity="0" font-family="Arial,Arial_MSFontService,sans-serif" font-size="89.7538" x="2916.9" y="646.039">Foundry as a service</text></g></svg>