<svg xmlns="http://www.w3.org/2000/svg" viewBox="0 0 1280 820" role="img" aria-labelledby="title desc">
  <title id="title">Sample platform deployment progression</title>
  <desc id="desc">Diagram showing Contoso use cases moving from a shared pre-production Foundry environment into isolated or co-located dev-test environments, and then into isolated production environments for a smaller number of workloads.</desc>
  <defs>
    <style>
      .bg { fill: #ffffff; }
      .group { stroke-width: 2; rx: 18; ry: 18; }
      .group-title { font: 700 22px 'Segoe UI', Arial, sans-serif; fill: #1f1f1f; }
      .item { fill: #ffffff; stroke: #5c6bc0; stroke-width: 1.5; rx: 10; ry: 10; }
      .item-text { font: 600 17px 'Segoe UI', Arial, sans-serif; fill: #1f1f1f; }
      .item-subtle { font: 500 15px 'Segoe UI', Arial, sans-serif; fill: #5f6368; }
      .arrow { fill: none; stroke: #2b579a; stroke-width: 4; marker-end: url(#arrowhead); }
      .legend { font: 500 15px 'Segoe UI', Arial, sans-serif; fill: #3c4043; }
    </style>
    <marker id="arrowhead" markerWidth="10" markerHeight="8" refX="9" refY="4" orient="auto">
      <polygon points="0 0, 10 4, 0 8" fill="#2b579a" />
    </marker>
  </defs>

  <rect class="bg" x="0" y="0" width="1280" height="820" />

  <text x="40" y="48" class="group-title">Contoso staged Foundry rollout</text>
  <text x="40" y="76" class="legend">Many ideas start in a shared pre-production environment. Fewer advance into dev-test, and only validated workloads reach isolated production.</text>

  <rect class="group" x="30" y="110" width="360" height="650" fill="#eef5ff" stroke="#7aa7e0" />
  <text x="50" y="145" class="group-title">Pre-production (co-located)</text>

  <rect class="item" x="50" y="170" width="320" height="48" />
  <text x="70" y="202" class="item-text">Customer support</text>

  <rect class="item" x="50" y="230" width="320" height="48" />
  <text x="70" y="262" class="item-text">Employee helpdesk</text>

  <rect class="item" x="50" y="290" width="320" height="48" />
  <text x="70" y="322" class="item-text">Invoice resolution</text>

  <rect class="item" x="50" y="350" width="320" height="48" />
  <text x="70" y="382" class="item-text">Procurement intake</text>

  <rect class="item" x="50" y="410" width="320" height="48" />
  <text x="70" y="442" class="item-text">Vendor onboarding</text>

  <rect class="item" x="50" y="470" width="320" height="48" />
  <text x="70" y="502" class="item-text">Policy knowledge search</text>

  <rect class="item" x="50" y="530" width="320" height="48" />
  <text x="70" y="562" class="item-text">Sales account planning</text>

  <rect class="item" x="50" y="590" width="320" height="48" />
  <text x="70" y="622" class="item-text">Sales opportunity updates</text>

  <rect class="group" x="430" y="120" width="320" height="130" fill="#edf9ee" stroke="#7fb685" />
  <text x="450" y="155" class="group-title">Dev-test A</text>
  <text x="450" y="180" class="legend">Isolated</text>

  <rect class="item" x="450" y="195" width="280" height="42" />
  <text x="590" y="221" class="item-text" text-anchor="middle">Customer support</text>

  <rect class="group" x="430" y="270" width="320" height="130" fill="#edf9ee" stroke="#7fb685" />
  <text x="450" y="305" class="group-title">Dev-test B</text>
  <text x="450" y="330" class="legend">Isolated</text>

  <rect class="item" x="450" y="345" width="280" height="42" />
  <text x="590" y="371" class="item-text" text-anchor="middle">Employee helpdesk</text>

  <rect class="group" x="430" y="420" width="320" height="130" fill="#fff4e5" stroke="#e3a33b" />
  <text x="450" y="455" class="group-title">Dev-test C</text>
  <text x="450" y="480" class="legend">Isolated</text>

  <rect class="item" x="450" y="495" width="280" height="42" />
  <text x="590" y="521" class="item-text" text-anchor="middle">Invoice resolution</text>

  <rect class="group" x="430" y="570" width="320" height="180" fill="#eef5ff" stroke="#7aa7e0" />
  <text x="450" y="605" class="group-title">Dev-test D</text>
  <text x="450" y="630" class="legend">Co-located</text>

  <rect class="item" x="450" y="650" width="280" height="38" />
  <text x="590" y="674" class="item-text" text-anchor="middle">Sales account planning</text>

  <rect class="item" x="450" y="700" width="280" height="38" />
  <text x="590" y="724" class="item-text" text-anchor="middle">Sales opportunity updates</text>

  <rect class="group" x="900" y="120" width="300" height="135" fill="#f1ebff" stroke="#8a78d1" />
  <text x="920" y="155" class="group-title">Production A</text>
  <text x="920" y="180" class="legend">Isolated</text>
  <rect class="item" x="920" y="195" width="260" height="45" />
  <text x="1050" y="222" class="item-text" text-anchor="middle">Customer support</text>

  <rect class="group" x="900" y="320" width="300" height="135" fill="#f1ebff" stroke="#8a78d1" />
  <text x="920" y="355" class="group-title">Production B</text>
  <text x="920" y="380" class="legend">Isolated</text>
  <rect class="item" x="920" y="395" width="260" height="45" />
  <text x="1050" y="422" class="item-text" text-anchor="middle">Employee helpdesk</text>

  <line class="arrow" x1="370" y1="194" x2="430" y2="216" />
  <line class="arrow" x1="370" y1="254" x2="430" y2="366" />
  <line class="arrow" x1="370" y1="314" x2="430" y2="516" />
  <line class="arrow" x1="370" y1="554" x2="430" y2="669" />
  <line class="arrow" x1="370" y1="614" x2="430" y2="719" />
  <line class="arrow" x1="730" y1="216" x2="900" y2="218" />
  <line class="arrow" x1="730" y1="366" x2="900" y2="418" />

</svg>
