<svg width="4240" height="2055" xmlns="http://www.w3.org/2000/svg" xmlns:xlink="http://www.w3.org/1999/xlink" xml:space="preserve" overflow="hidden"><defs><radialGradient cx="1068186" cy="1118062" r="1546313" fx="2136371" fy="2236124" gradientUnits="userSpaceOnUse" spreadMethod="pad" id="fill0" gradientTransform="matrix(0.000360892 0 0 0.000360892 3233 755)"><stop offset="0" stop-color="#73262F" stop-opacity="0.101961"/><stop offset="0.8" stop-color="#2A446F" stop-opacity="0.101961"/><stop offset="1" stop-color="#2A446F" stop-opacity="0.101961"/></radialGradient><radialGradient cx="584754" cy="137496" r="263247" fx="831610" fy="228936" gradientUnits="userSpaceOnUse" spreadMethod="pad" id="fill1" gradientTransform="matrix(0.000360892 0 0 0.000360892 902.543 866.334)"><stop offset="0"/><stop offset="0.46602"/><stop offset="0.8"/><stop offset="1"/></radialGradient><radialGradient cx="584754" cy="137495" r="483390" fx="1059416" fy="228935" gradientUnits="userSpaceOnUse" spreadMethod="pad" id="fill2" gradientTransform="matrix(0.000360892 0 0 0.000360892 902.543 1039.14)"><stop offset="0"/><stop offset="0.46602"/><stop offset="0.8"/><stop offset="1"/></radialGradient><radialGradient cx="584754" cy="137496" r="386419" fx="960198" fy="228935" gradientUnits="userSpaceOnUse" spreadMethod="pad" id="fill3" gradientTransform="matrix(0.000360892 0 0 0.000360892 902.543 1213.92)"><stop offset="0"/><stop offset="0.46602"/><stop offset="0.8"/><stop offset="1"/></radialGradient><radialGradient cx="584754" cy="137496" r="386419" fx="960198" fy="228935" gradientUnits="userSpaceOnUse" spreadMethod="pad" id="fill4" gradientTransform="matrix(0.000360892 0 0 0.000360892 902.543 1213.92)"><stop offset="0"/><stop offset="0.46602"/><stop offset="0.8"/><stop offset="1"/></radialGradient><radialGradient cx="584754" cy="137495" r="338804" fx="910985" fy="228935" gradientUnits="userSpaceOnUse" spreadMethod="pad" id="fill5" gradientTransform="matrix(0.000360892 0 0 0.000360892 902.543 1381.44)"><stop offset="0"/><stop offset="0.46602"/><stop offset="0.8"/><stop offset="1"/></radialGradient><radialGradient cx="584754" cy="137496" r="285697" fx="855423" fy="228935" gradientUnits="userSpaceOnUse" spreadMethod="pad" id="fill6" gradientTransform="matrix(0.000360892 0 0 0.000360892 902.543 1552.17)"><stop offset="0"/><stop offset="0.46602"/><stop offset="0.8"/><stop offset="1"/></radialGradient><radialGradient cx="584754" cy="137495" r="328118" fx="899873" fy="228935" gradientUnits="userSpaceOnUse" spreadMethod="pad" id="fill7" gradientTransform="matrix(0.000360892 0 0 0.000360892 902.543 1721.31)"><stop offset="0"/><stop offset="0.46602"/><stop offset="0.8"/><stop offset="1"/></radialGradient><radialGradient cx="477210" cy="137496" r="171641" fx="622466" fy="228936" gradientUnits="userSpaceOnUse" spreadMethod="pad" id="fill8" gradientTransform="matrix(0.000360892 0 0 0.000360892 298.956 1278.26)"><stop offset="0"/><stop offset="0.46602"/><stop offset="0.8"/><stop offset="1"/></radialGradient><linearGradient x1="1100.69" y1="493.678" x2="1130.21" y2="709.645" gradientUnits="userSpaceOnUse" spreadMethod="reflect" id="fill9"><stop offset="0" stop-color="#73262F"/><stop offset="0.99" stop-color="#2A446F"/><stop offset="1" stop-color="#2A446F"/></linearGradient><linearGradient x1="3311.19" y1="494.202" x2="3344.64" y2="708.994" gradientUnits="userSpaceOnUse" spreadMethod="reflect" id="fill10"><stop offset="0" stop-color="#73262F"/><stop offset="0.99" stop-color="#2A446F"/><stop offset="1" stop-color="#2A446F"/></linearGradient></defs><g transform="translate(-113 -347)"><path d="M2332.5 520.428C2332.5 485.674 2360.67 457.5 2395.43 457.5L4195.57 457.5C4230.33 457.5 4258.5 485.674 4258.5 520.428L4258.5 2247.57C4258.5 2282.33 4230.33 2310.5 4195.57 2310.5L2395.43 2310.5C2360.67 2310.5 2332.5 2282.33 2332.5 2247.57Z" stroke="#B1B3B3" stroke-width="4.58333" stroke-linecap="round" stroke-miterlimit="8" fill="#FFFFFF" fill-rule="evenodd"/><path d="M3233 844.682C3233 795.152 3273.15 755 3322.68 755L3914.32 755C3963.85 755 4004 795.152 4004 844.682L4004 1472.32C4004 1521.85 3963.85 1562 3914.32 1562L3322.68 1562C3273.15 1562 3233 1521.85 3233 1472.32Z" fill="url(#fill0)" fill-rule="evenodd"/><path d="M184.5 514.427C184.5 479.673 212.673 451.5 247.427 451.5L2061.57 451.5C2096.33 451.5 2124.5 479.673 2124.5 514.427L2124.5 2241.57C2124.5 2276.33 2096.33 2304.5 2061.57 2304.5L247.427 2304.5C212.673 2304.5 184.5 2276.33 184.5 2241.57Z" stroke="#B1B3B3" stroke-width="4.58333" stroke-linecap="round" stroke-miterlimit="8" fill="#FFFFFF" fill-rule="evenodd"/><path d="M889 898.218C889 873.245 909.245 853 934.218 853L1292.78 853C1317.76 853 1338 873.245 1338 898.218L1338 939.782C1338 964.755 1317.76 985 1292.78 985L934.218 985C909.245 985 889 964.755 889 939.782Z" fill="#8DC8E8" fill-rule="evenodd"/><path d="M1093.66 913.878C1091.21 913.878 1089.24 914.751 1087.78 916.496 1086.31 918.242 1085.57 920.502 1085.57 923.277 1085.57 926.16 1086.3 928.42 1087.75 930.058 1089.2 931.697 1091.17 932.516 1093.66 932.516 1096.13 932.516 1098.04 931.67 1099.41 929.978 1100.77 928.286 1101.45 925.999 1101.45 923.116 1101.45 920.341 1100.76 918.108 1099.39 916.416 1098.02 914.724 1096.11 913.878 1093.66 913.878ZM1138.28 913.502C1136.33 913.502 1134.75 914.151 1133.53 915.449 1132.31 916.747 1131.58 918.354 1131.33 920.27L1144.3 920.27C1144.3 918.121 1143.76 916.456 1142.69 915.274 1141.61 914.093 1140.14 913.502 1138.28 913.502ZM1112.93 909.447 1119.16 909.447 1119.16 938.907C1119.16 942.434 1118.26 945.147 1116.46 947.044 1114.66 948.942 1112.3 949.891 1109.39 949.891 1107.97 949.891 1106.67 949.694 1105.49 949.3 1104.31 948.906 1103.33 948.396 1102.57 947.77L1105.52 943.634C1106.07 944.046 1106.63 944.35 1107.18 944.547 1107.74 944.744 1108.33 944.842 1108.96 944.842 1110.25 944.842 1111.23 944.417 1111.91 943.567 1112.59 942.716 1112.93 941.279 1112.93 939.256ZM1073.35 908.963C1074.04 908.963 1074.69 909.017 1075.28 909.125 1075.87 909.232 1076.51 909.438 1077.19 909.742L1075.47 915.06C1074.97 914.863 1074.45 914.706 1073.92 914.59 1073.4 914.473 1072.84 914.415 1072.25 914.415 1070.4 914.415 1068.91 915.239 1067.76 916.886 1066.61 918.533 1066.04 920.681 1066.04 923.331L1066.04 936.947 1059.78 936.947 1059.78 909.447 1066.04 909.447 1066.04 914.415 1066.15 914.415C1066.79 912.661 1067.74 911.313 1069 910.373 1070.25 909.433 1071.7 908.963 1073.35 908.963ZM1168.52 908.802C1170.9 908.802 1173.05 909.304 1174.97 910.306 1176.88 911.309 1178.33 912.804 1179.32 914.791L1174.43 917.262C1173.57 916.026 1172.65 915.154 1171.68 914.643 1170.7 914.133 1169.57 913.878 1168.28 913.878 1166.06 913.878 1164.23 914.702 1162.79 916.349 1161.35 917.996 1160.63 920.296 1160.63 923.25 1160.63 926.169 1161.34 928.425 1162.76 930.018 1164.19 931.612 1166.1 932.408 1168.5 932.408 1169.71 932.408 1170.84 932.153 1171.87 931.643 1172.9 931.133 1173.82 930.269 1174.65 929.051L1179.45 931.817C1178.23 933.751 1176.66 935.197 1174.74 936.155 1172.81 937.112 1170.69 937.591 1168.36 937.591 1163.92 937.591 1160.46 936.316 1157.98 933.764 1155.5 931.213 1154.26 927.852 1154.26 923.68 1154.26 919.079 1155.58 915.449 1158.22 912.79 1160.86 910.132 1164.3 908.802 1168.52 908.802ZM1138.18 908.802C1142.04 908.802 1145.04 909.957 1147.16 912.267 1149.28 914.576 1150.34 917.924 1150.34 922.311L1150.34 924.728 1131.35 924.728C1131.41 927.377 1132.13 929.369 1133.52 930.703 1134.9 932.037 1136.61 932.704 1138.63 932.704 1140.06 932.704 1141.34 932.368 1142.45 931.697 1143.56 931.025 1144.5 930.027 1145.27 928.702L1150.07 931.307C1148.82 933.312 1147.22 934.861 1145.28 935.953 1143.34 937.045 1141.05 937.591 1138.42 937.591 1134.37 937.591 1131.13 936.374 1128.7 933.939 1126.26 931.504 1125.04 928.004 1125.04 923.438 1125.04 919.088 1126.29 915.561 1128.79 912.857 1131.29 910.154 1134.42 908.802 1138.18 908.802ZM1093.82 908.802C1098.15 908.802 1101.57 910.118 1104.08 912.75 1106.58 915.382 1107.84 918.784 1107.84 922.955 1107.84 927.216 1106.52 930.721 1103.88 933.469 1101.24 936.217 1097.75 937.591 1093.42 937.591 1089.07 937.591 1085.61 936.311 1083.05 933.751 1080.49 931.191 1079.21 927.744 1079.21 923.412 1079.23 919.025 1080.59 915.494 1083.29 912.817 1086 910.141 1089.5 908.802 1093.82 908.802ZM1035.36 903.673 1035.36 918.282 1039.61 918.282C1042.27 918.282 1044.32 917.624 1045.74 916.308 1047.17 914.992 1047.88 913.135 1047.88 910.736 1047.88 908.426 1047.21 906.672 1045.88 905.472 1044.54 904.273 1042.57 903.673 1039.96 903.673ZM1193.18 901.605 1193.18 909.447 1200.18 909.447 1200.18 914.334 1193.18 914.334 1193.18 929.588C1193.18 930.681 1193.39 931.486 1193.83 932.005 1194.27 932.525 1194.94 932.784 1195.83 932.784 1196.3 932.784 1196.76 932.695 1197.2 932.516 1197.65 932.337 1198.13 931.987 1198.63 931.468L1201.42 935.094C1200.6 935.882 1199.64 936.49 1198.55 936.92 1197.45 937.35 1196.23 937.564 1194.87 937.564 1192.25 937.564 1190.28 936.906 1188.95 935.591 1187.61 934.275 1186.95 932.346 1186.95 929.803L1186.95 914.334 1182.33 914.334 1182.33 909.447 1186.95 909.447 1186.95 902.706ZM1028.97 898.436 1040.84 898.436C1045.26 898.436 1048.66 899.47 1051.03 901.538 1053.41 903.606 1054.59 906.582 1054.59 910.467 1054.59 914.424 1053.27 917.593 1050.62 919.974 1047.97 922.355 1044.4 923.546 1039.9 923.546L1035.36 923.546 1035.36 936.947 1028.97 936.947ZM1116.07 896.637C1117.27 896.637 1118.24 897.013 1118.97 897.765 1119.71 898.517 1120.07 899.439 1120.07 900.531 1120.07 901.641 1119.71 902.567 1118.97 903.31 1118.24 904.053 1117.27 904.425 1116.07 904.425 1114.89 904.425 1113.93 904.044 1113.19 903.283 1112.44 902.523 1112.07 901.605 1112.07 900.531 1112.07 899.439 1112.44 898.517 1113.19 897.765 1113.93 897.013 1114.89 896.637 1116.07 896.637Z" fill="url(#fill1)" fill-rule="evenodd"/><text fill="#000000" fill-opacity="0" font-family="Arial,Arial_MSFontService,sans-serif" font-size="53.2544" x="1028.97" y="943.234">Project</text><path d="M889 1071.22C889 1046.24 909.245 1026 934.218 1026L1292.78 1026C1317.76 1026 1338 1046.24 1338 1071.22L1338 1112.78C1338 1137.76 1317.76 1158 1292.78 1158L934.218 1158C909.245 1158 889 1137.76 889 1112.78Z" fill="#8DC8E8" fill-rule="evenodd"/><path d="M1156.48 1086.68C1154.21 1086.68 1152.35 1087.44 1150.91 1088.96 1149.47 1090.48 1148.75 1092.44 1148.75 1094.82L1148.75 1098.2C1148.75 1100.22 1149.42 1101.92 1150.78 1103.28 1152.13 1104.64 1153.83 1105.32 1155.89 1105.32 1158.22 1105.32 1160.05 1104.43 1161.38 1102.66 1162.72 1100.89 1163.38 1098.5 1163.38 1095.49 1163.38 1092.57 1162.77 1090.37 1161.54 1088.9 1160.32 1087.42 1158.63 1086.68 1156.48 1086.68ZM1187.27 1086.3C1185.32 1086.3 1183.73 1086.95 1182.51 1088.25 1181.3 1089.55 1180.56 1091.16 1180.31 1093.07L1193.28 1093.07C1193.28 1090.92 1192.75 1089.26 1191.67 1088.08 1190.6 1086.89 1189.13 1086.3 1187.27 1086.3ZM1070.97 1086.3C1069.01 1086.3 1067.43 1086.95 1066.21 1088.25 1064.99 1089.55 1064.26 1091.16 1064.01 1093.07L1076.98 1093.07C1076.98 1090.92 1076.44 1089.26 1075.37 1088.08 1074.3 1086.89 1072.83 1086.3 1070.97 1086.3ZM1006.28 1082.25 1012.48 1082.25 1012.48 1098.33C1012.48 1100.66 1012.93 1102.41 1013.83 1103.57 1014.72 1104.74 1016.12 1105.32 1018.02 1105.32 1019.93 1105.32 1021.5 1104.62 1022.71 1103.22 1023.93 1101.83 1024.54 1100.06 1024.54 1097.93L1024.54 1082.25 1030.8 1082.25 1030.8 1109.75 1024.54 1109.75 1024.54 1106.02 1024.43 1106.02C1023.54 1107.36 1022.33 1108.42 1020.82 1109.21 1019.31 1110 1017.72 1110.39 1016.05 1110.39 1012.83 1110.39 1010.4 1109.43 1008.75 1107.52 1007.1 1105.6 1006.28 1102.82 1006.28 1099.17ZM980.471 1082.25 1001.69 1082.25 1001.69 1085.82 987.292 1104.75 1002.14 1104.75 1002.14 1109.75 979.477 1109.75 979.477 1106.07 993.818 1087.24 980.471 1087.24ZM1051.86 1081.76C1052.56 1081.76 1053.2 1081.82 1053.8 1081.93 1054.39 1082.03 1055.02 1082.24 1055.7 1082.54L1053.98 1087.86C1053.48 1087.66 1052.97 1087.51 1052.44 1087.39 1051.91 1087.27 1051.35 1087.22 1050.76 1087.22 1048.92 1087.22 1047.42 1088.04 1046.28 1089.69 1045.13 1091.33 1044.56 1093.48 1044.56 1096.13L1044.56 1109.75 1038.3 1109.75 1038.3 1082.25 1044.56 1082.25 1044.56 1087.22 1044.66 1087.22C1045.31 1085.46 1046.26 1084.11 1047.51 1083.17 1048.76 1082.23 1050.21 1081.76 1051.86 1081.76ZM1220.19 1081.6C1223.24 1081.6 1225.55 1082.57 1227.15 1084.5 1228.74 1086.44 1229.54 1089.2 1229.54 1092.8L1229.54 1109.75 1223.31 1109.75 1223.31 1093.66C1223.31 1091.39 1222.86 1089.66 1221.95 1088.47 1221.05 1087.27 1219.69 1086.68 1217.88 1086.68 1215.93 1086.68 1214.34 1087.37 1213.12 1088.76 1211.89 1090.15 1211.28 1091.92 1211.28 1094.06L1211.28 1109.75 1205.02 1109.75 1205.02 1082.25 1211.28 1082.25 1211.28 1085.98 1211.36 1085.98C1212.34 1084.58 1213.61 1083.51 1215.16 1082.75 1216.71 1081.98 1218.38 1081.6 1220.19 1081.6ZM1187.16 1081.6C1191.03 1081.6 1194.02 1082.76 1196.14 1085.07 1198.26 1087.38 1199.33 1090.73 1199.33 1095.11L1199.33 1097.53 1180.34 1097.53C1180.39 1100.18 1181.11 1102.17 1182.5 1103.5 1183.89 1104.84 1185.59 1105.51 1187.62 1105.51 1189.05 1105.51 1190.32 1105.17 1191.43 1104.5 1192.54 1103.83 1193.48 1102.83 1194.25 1101.5L1199.06 1104.11C1197.8 1106.11 1196.21 1107.66 1194.26 1108.75 1192.32 1109.85 1190.03 1110.39 1187.4 1110.39 1183.36 1110.39 1180.11 1109.18 1177.68 1106.74 1175.24 1104.31 1174.03 1100.81 1174.03 1096.24 1174.03 1091.89 1175.28 1088.36 1177.77 1085.66 1180.27 1082.96 1183.4 1081.6 1187.16 1081.6ZM1158.2 1081.6C1161.85 1081.6 1164.7 1082.81 1166.74 1085.23 1168.78 1087.65 1169.8 1091.01 1169.8 1095.33 1169.8 1099.84 1168.66 1103.48 1166.38 1106.24 1164.1 1109.01 1161.05 1110.39 1157.23 1110.39 1155.46 1110.39 1153.88 1110.1 1152.49 1109.51 1151.11 1108.92 1149.92 1108.04 1148.94 1106.87L1148.83 1106.87 1148.83 1122.4 1142.57 1122.4 1142.57 1082.25 1148.83 1082.25 1148.83 1086.17 1148.94 1086.17C1150.03 1084.65 1151.36 1083.51 1152.92 1082.75 1154.49 1081.98 1156.25 1081.6 1158.2 1081.6ZM1070.86 1081.6C1074.72 1081.6 1077.72 1082.76 1079.84 1085.07 1081.96 1087.38 1083.02 1090.73 1083.02 1095.11L1083.02 1097.53 1064.04 1097.53C1064.09 1100.18 1064.81 1102.17 1066.2 1103.5 1067.59 1104.84 1069.29 1105.51 1071.31 1105.51 1072.75 1105.51 1074.02 1105.17 1075.13 1104.5 1076.24 1103.83 1077.18 1102.83 1077.95 1101.5L1082.75 1104.11C1081.5 1106.11 1079.9 1107.66 1077.96 1108.75 1076.02 1109.85 1073.73 1110.39 1071.1 1110.39 1067.05 1110.39 1063.81 1109.18 1061.38 1106.74 1058.94 1104.31 1057.73 1100.81 1057.73 1096.24 1057.73 1091.89 1058.97 1088.36 1061.47 1085.66 1063.97 1082.96 1067.1 1081.6 1070.86 1081.6ZM1250.9 1077.68C1250.75 1078.11 1250.64 1078.49 1250.55 1078.81 1250.46 1079.13 1250.34 1079.49 1250.2 1079.89L1244.93 1095.19 1256.99 1095.19 1251.73 1079.91C1251.59 1079.52 1251.47 1079.16 1251.37 1078.85 1251.27 1078.54 1251.17 1078.15 1251.06 1077.68ZM960.428 1077.68C960.285 1078.11 960.168 1078.49 960.079 1078.81 959.989 1079.13 959.873 1079.49 959.73 1079.89L954.466 1095.19 966.524 1095.19 961.261 1079.91C961.117 1079.52 960.996 1079.16 960.898 1078.85 960.8 1078.54 960.697 1078.15 960.589 1077.68ZM1118.51 1076.31C1114.84 1076.31 1111.88 1077.61 1109.63 1080.21 1107.39 1082.8 1106.26 1086.25 1106.26 1090.55 1106.26 1094.81 1107.37 1098.23 1109.59 1100.82 1111.81 1103.41 1114.69 1104.7 1118.21 1104.7 1121.83 1104.7 1124.74 1103.42 1126.94 1100.87 1129.14 1098.32 1130.24 1094.92 1130.24 1090.65 1130.24 1086.25 1129.17 1082.76 1127.02 1080.18 1124.87 1077.6 1122.04 1076.31 1118.51 1076.31ZM1273.89 1071.24 1280.29 1071.24 1280.29 1109.75 1273.89 1109.75ZM1247.51 1071.24 1254.71 1071.24 1268.94 1109.75 1262.07 1109.75 1258.74 1100.62 1243.22 1100.62 1240.02 1109.75 1233.17 1109.75ZM957.044 1071.24 964.242 1071.24 978.475 1109.75 971.6 1109.75 968.27 1100.62 952.747 1100.62 949.552 1109.75 942.703 1109.75ZM1118.78 1070.59C1124.18 1070.59 1128.57 1072.38 1131.92 1075.95 1135.28 1079.52 1136.96 1084.24 1136.96 1090.12 1136.96 1096.17 1135.22 1101.06 1131.73 1104.79 1128.25 1108.53 1123.73 1110.39 1118.16 1110.39 1112.66 1110.39 1108.19 1108.6 1104.73 1105.01 1101.28 1101.42 1099.55 1096.74 1099.55 1090.98 1099.55 1084.85 1101.32 1079.93 1104.87 1076.19 1108.41 1072.46 1113.05 1070.59 1118.78 1070.59Z" fill="url(#fill2)" fill-rule="evenodd"/><text fill="#000000" fill-opacity="0" font-family="Arial,Arial_MSFontService,sans-serif" font-size="51.8042" x="942.703" y="1115.92">Azure OpenAI</text><path d="M889 1246.22C889 1221.24 909.245 1201 934.218 1201L1292.78 1201C1317.76 1201 1338 1221.24 1338 1246.22L1338 1287.78C1338 1312.76 1317.76 1333 1292.78 1333L934.218 1333C909.245 1333 889 1312.76 889 1287.78Z" fill="#8DC8E8" fill-rule="evenodd"/><path d="M996.235 1252.47C996.092 1252.9 995.976 1253.27 995.886 1253.6 995.797 1253.92 995.68 1254.28 995.537 1254.67L990.273 1269.98 1002.33 1269.98 997.068 1254.7C996.925 1254.3 996.804 1253.95 996.705 1253.64 996.607 1253.32 996.504 1252.93 996.397 1252.47ZM1019.23 1246.02 1025.62 1246.02 1025.62 1284.53 1019.23 1284.53ZM992.852 1246.02 1000.05 1246.02 1014.28 1284.53 1007.41 1284.53 1004.08 1275.4 988.555 1275.4 985.359 1284.53 978.511 1284.53Z" fill="url(#fill3)" fill-rule="evenodd"/><text fill="#000000" fill-opacity="0" font-family="Arial,Arial_MSFontService,sans-serif" font-size="38.5107" x="978.511" y="1279.72">AI </text><path d="M1181.4 1261.47C1179.06 1261.47 1177.21 1262.31 1175.84 1263.99 1174.48 1265.67 1173.8 1268.07 1173.8 1271.19 1173.8 1273.98 1174.44 1276.16 1175.71 1277.74 1176.98 1279.32 1178.74 1280.1 1180.97 1280.1 1183.27 1280.1 1185.09 1279.32 1186.45 1277.74 1187.81 1276.16 1188.49 1274.14 1188.49 1271.67L1188.49 1268.53C1188.49 1266.52 1187.84 1264.84 1186.52 1263.49 1185.2 1262.14 1183.5 1261.47 1181.4 1261.47ZM1086.21 1261.47C1083.76 1261.47 1081.8 1262.34 1080.33 1264.08 1078.86 1265.83 1078.13 1268.09 1078.13 1270.87 1078.13 1273.75 1078.85 1276.01 1080.3 1277.65 1081.75 1279.28 1083.72 1280.1 1086.21 1280.1 1088.68 1280.1 1090.6 1279.26 1091.96 1277.57 1093.32 1275.87 1094 1273.59 1094 1270.7 1094 1267.93 1093.31 1265.7 1091.94 1264 1090.57 1262.31 1088.66 1261.47 1086.21 1261.47ZM1220.9 1257.03 1227.72 1257.03 1234.03 1275.27C1234.23 1275.82 1234.38 1276.32 1234.49 1276.75 1234.6 1277.18 1234.72 1277.7 1234.86 1278.33L1235 1278.33C1235.12 1277.7 1235.25 1277.19 1235.39 1276.77 1235.52 1276.36 1235.68 1275.88 1235.86 1275.32L1242.22 1257.03 1248.64 1257.03 1235.86 1290.01C1234.91 1292.47 1233.63 1294.32 1232.03 1295.59 1230.43 1296.85 1228.48 1297.48 1226.19 1297.48 1225.08 1297.48 1224.04 1297.36 1223.06 1297.12 1222.09 1296.87 1221.16 1296.49 1220.28 1295.97L1222.99 1291.57C1223.55 1291.89 1224.05 1292.12 1224.5 1292.26 1224.95 1292.39 1225.41 1292.46 1225.89 1292.46 1226.74 1292.46 1227.46 1292.25 1228.06 1291.83 1228.66 1291.41 1229.2 1290.64 1229.68 1289.53L1231.7 1284.86ZM1105.68 1257.03 1111.88 1257.03 1111.88 1273.12C1111.88 1275.45 1112.33 1277.19 1113.23 1278.36 1114.12 1279.52 1115.52 1280.1 1117.42 1280.1 1119.33 1280.1 1120.9 1279.41 1122.12 1278.01 1123.33 1276.61 1123.94 1274.85 1123.94 1272.72L1123.94 1257.03 1130.2 1257.03 1130.2 1284.53 1123.94 1284.53 1123.94 1280.8 1123.83 1280.8C1122.94 1282.14 1121.74 1283.21 1120.22 1284 1118.71 1284.79 1117.12 1285.18 1115.46 1285.18 1112.23 1285.18 1109.8 1284.22 1108.15 1282.31 1106.5 1280.39 1105.68 1277.61 1105.68 1273.95ZM1216 1256.55C1216.7 1256.55 1217.35 1256.6 1217.94 1256.71 1218.53 1256.82 1219.16 1257.03 1219.84 1257.33L1218.12 1262.65C1217.62 1262.45 1217.11 1262.29 1216.58 1262.18 1216.05 1262.06 1215.49 1262 1214.9 1262 1213.06 1262 1211.56 1262.83 1210.42 1264.47 1209.27 1266.12 1208.7 1268.27 1208.7 1270.92L1208.7 1284.53 1202.44 1284.53 1202.44 1257.03 1208.7 1257.03 1208.7 1262 1208.81 1262C1209.45 1260.25 1210.4 1258.9 1211.65 1257.96 1212.91 1257.02 1214.36 1256.55 1216 1256.55ZM1152.87 1256.39C1155.92 1256.39 1158.24 1257.36 1159.83 1259.29 1161.42 1261.22 1162.22 1263.99 1162.22 1267.59L1162.22 1284.53 1155.99 1284.53 1155.99 1268.45C1155.99 1266.17 1155.54 1264.44 1154.63 1263.25 1153.73 1262.06 1152.37 1261.47 1150.56 1261.47 1148.61 1261.47 1147.02 1262.16 1145.8 1263.55 1144.57 1264.93 1143.96 1266.7 1143.96 1268.85L1143.96 1284.53 1137.7 1284.53 1137.7 1257.03 1143.96 1257.03 1143.96 1260.77 1144.04 1260.77C1145.02 1259.37 1146.29 1258.29 1147.84 1257.53 1149.39 1256.77 1151.07 1256.39 1152.87 1256.39ZM1086.37 1256.39C1090.7 1256.39 1094.12 1257.71 1096.63 1260.34 1099.14 1262.97 1100.39 1266.37 1100.39 1270.54 1100.39 1274.8 1099.07 1278.31 1096.43 1281.06 1093.79 1283.8 1090.3 1285.18 1085.97 1285.18 1081.62 1285.18 1078.16 1283.9 1075.6 1281.34 1073.04 1278.78 1071.76 1275.33 1071.76 1271 1071.78 1266.61 1073.14 1263.08 1075.84 1260.4 1078.55 1257.73 1082.06 1256.39 1086.37 1256.39ZM1047.31 1246.02 1068.09 1246.02 1068.09 1251.5 1053.7 1251.5 1053.7 1263 1066.96 1263 1066.96 1268.45 1053.7 1268.45 1053.7 1284.53 1047.31 1284.53ZM1188.41 1243.82 1194.67 1243.82 1194.67 1284.53 1188.41 1284.53 1188.41 1280.72 1188.31 1280.72C1187.3 1282.19 1186.04 1283.3 1184.52 1284.05 1183 1284.8 1181.27 1285.18 1179.34 1285.18 1175.65 1285.18 1172.74 1283.96 1170.62 1281.51 1168.5 1279.07 1167.44 1275.71 1167.44 1271.43 1167.44 1266.81 1168.63 1263.15 1171 1260.45 1173.37 1257.74 1176.53 1256.39 1180.49 1256.39 1182.21 1256.39 1183.76 1256.73 1185.15 1257.41 1186.54 1258.09 1187.59 1258.95 1188.31 1259.99L1188.41 1259.99Z" fill="url(#fill4)" fill-rule="evenodd"/><text fill="#000000" fill-opacity="0" font-family="Arial,Arial_MSFontService,sans-serif" font-size="53.6572" x="1047.31" y="1290.77">Foundry</text><path d="M889 1413.56C889 1388.4 909.398 1368 934.56 1368L1292.44 1368C1317.6 1368 1338 1388.4 1338 1413.56L1338 1455.44C1338 1480.6 1317.6 1501 1292.44 1501L934.56 1501C909.398 1501 889 1480.6 889 1455.44Z" fill="#8DC8E8" fill-rule="evenodd"/><path d="M1140.08 1439.37 1133.45 1440.1C1131.93 1440.26 1130.82 1440.68 1130.12 1441.36 1129.42 1442.04 1129.07 1442.95 1129.07 1444.1 1129.07 1445.26 1129.47 1446.21 1130.27 1446.93 1131.06 1447.66 1132.1 1448.02 1133.37 1448.02 1135.37 1448.02 1136.99 1447.34 1138.23 1445.99 1139.46 1444.64 1140.08 1442.94 1140.08 1440.88ZM1107.35 1428.6C1105.39 1428.6 1103.81 1429.25 1102.59 1430.55 1101.37 1431.85 1100.64 1433.46 1100.39 1435.37L1113.36 1435.37C1113.36 1433.22 1112.82 1431.56 1111.75 1430.38 1110.68 1429.19 1109.21 1428.6 1107.35 1428.6ZM1166.73 1424.06C1167.43 1424.06 1168.07 1424.12 1168.67 1424.23 1169.26 1424.33 1169.89 1424.54 1170.57 1424.84L1168.85 1430.16C1168.35 1429.96 1167.84 1429.81 1167.31 1429.69 1166.78 1429.57 1166.22 1429.52 1165.63 1429.52 1163.79 1429.52 1162.29 1430.34 1161.15 1431.99 1160 1433.63 1159.43 1435.78 1159.43 1438.43L1159.43 1452.05 1153.17 1452.05 1153.17 1424.55 1159.43 1424.55 1159.43 1429.52 1159.53 1429.52C1160.18 1427.76 1161.13 1426.41 1162.38 1425.47 1163.63 1424.53 1165.08 1424.06 1166.73 1424.06ZM1186.86 1423.9C1189.24 1423.9 1191.39 1424.4 1193.3 1425.41 1195.22 1426.41 1196.67 1427.91 1197.65 1429.89L1192.76 1432.36C1191.9 1431.13 1190.99 1430.25 1190.01 1429.74 1189.04 1429.23 1187.9 1428.98 1186.61 1428.98 1184.39 1428.98 1182.56 1429.8 1181.12 1431.45 1179.68 1433.1 1178.96 1435.4 1178.96 1438.35 1178.96 1441.27 1179.67 1443.53 1181.09 1445.12 1182.52 1446.71 1184.43 1447.51 1186.83 1447.51 1188.05 1447.51 1189.17 1447.25 1190.2 1446.74 1191.23 1446.23 1192.16 1445.37 1192.98 1444.15L1197.79 1446.92C1196.57 1448.85 1195 1450.3 1193.07 1451.26 1191.15 1452.21 1189.02 1452.69 1186.69 1452.69 1182.25 1452.69 1178.79 1451.42 1176.31 1448.87 1173.84 1446.31 1172.6 1442.95 1172.6 1438.78 1172.6 1434.18 1173.92 1430.55 1176.56 1427.89 1179.2 1425.23 1182.63 1423.9 1186.86 1423.9ZM1135.38 1423.9C1138.86 1423.9 1141.51 1424.81 1143.35 1426.63 1145.18 1428.45 1146.1 1431.08 1146.1 1434.54L1146.1 1452.05 1140.06 1452.05 1140.06 1448.64 1139.95 1448.64C1138.98 1449.96 1137.8 1450.97 1136.4 1451.66 1135.01 1452.35 1133.45 1452.69 1131.73 1452.69 1129.19 1452.69 1127.11 1451.97 1125.49 1450.52 1123.87 1449.07 1123.06 1447.17 1123.06 1444.82 1123.06 1442.3 1123.87 1440.27 1125.49 1438.74 1127.11 1437.21 1129.43 1436.27 1132.46 1435.93L1140.08 1435.08 1140.08 1433.76C1140.08 1432.06 1139.61 1430.78 1138.66 1429.93 1137.71 1429.08 1136.47 1428.66 1134.93 1428.66 1133.4 1428.66 1132.12 1429 1131.09 1429.68 1130.05 1430.36 1129.19 1431.33 1128.51 1432.6L1123.83 1430.21C1124.77 1428.37 1126.23 1426.86 1128.24 1425.68 1130.24 1424.49 1132.63 1423.9 1135.38 1423.9ZM1107.24 1423.9C1111.11 1423.9 1114.1 1425.06 1116.22 1427.37 1118.34 1429.68 1119.4 1433.03 1119.4 1437.41L1119.4 1439.83 1100.42 1439.83C1100.47 1442.48 1101.19 1444.47 1102.58 1445.8 1103.97 1447.14 1105.67 1447.8 1107.69 1447.8 1109.13 1447.8 1110.4 1447.47 1111.51 1446.8 1112.62 1446.13 1113.56 1445.13 1114.33 1443.8L1119.14 1446.41C1117.88 1448.41 1116.28 1449.96 1114.34 1451.05 1112.4 1452.15 1110.11 1452.69 1107.48 1452.69 1103.43 1452.69 1100.19 1451.48 1097.76 1449.04 1095.32 1446.61 1094.11 1443.11 1094.11 1438.54 1094.11 1434.19 1095.35 1430.66 1097.85 1427.96 1100.35 1425.26 1103.48 1423.9 1107.24 1423.9ZM1014 1419.98C1013.85 1420.41 1013.74 1420.79 1013.65 1421.11 1013.56 1421.43 1013.44 1421.79 1013.3 1422.18L1008.03 1437.49 1020.09 1437.49 1014.83 1422.21C1014.69 1421.82 1014.56 1421.46 1014.47 1421.15 1014.37 1420.84 1014.26 1420.45 1014.16 1419.98ZM1036.99 1413.54 1043.38 1413.54 1043.38 1452.05 1036.99 1452.05ZM1010.61 1413.54 1017.81 1413.54 1032.04 1452.05 1025.17 1452.05 1021.84 1442.92 1006.32 1442.92 1003.12 1452.05 996.271 1452.05ZM1077.88 1412.92C1080.6 1412.92 1083 1413.51 1085.07 1414.71 1087.15 1415.9 1088.82 1417.66 1090.07 1420.01L1084.67 1422.64C1083.85 1421.12 1082.87 1420.03 1081.74 1419.36 1080.62 1418.7 1079.25 1418.37 1077.63 1418.37 1075.63 1418.37 1074.07 1418.82 1072.96 1419.73 1071.85 1420.63 1071.3 1421.84 1071.3 1423.34 1071.3 1424.84 1071.81 1426.03 1072.83 1426.88 1073.85 1427.74 1075.68 1428.48 1078.33 1429.09 1082.41 1430 1085.4 1431.41 1087.29 1433.3 1089.18 1435.2 1090.12 1437.75 1090.12 1440.96 1090.12 1444.38 1088.99 1447.19 1086.71 1449.39 1084.44 1451.59 1081.2 1452.69 1076.99 1452.69 1073.75 1452.69 1070.92 1452 1068.52 1450.62 1066.11 1449.25 1064.34 1447.29 1063.21 1444.77L1068.77 1441.98C1069.58 1443.71 1070.67 1445.01 1072.06 1445.87 1073.45 1446.73 1075.07 1447.16 1076.94 1447.16 1079.16 1447.16 1080.87 1446.68 1082.08 1445.71 1083.29 1444.74 1083.89 1443.39 1083.89 1441.66 1083.89 1439.97 1083.29 1438.63 1082.09 1437.63 1080.89 1436.62 1079.05 1435.83 1076.56 1435.24 1072.51 1434.29 1069.59 1432.94 1067.78 1431.19 1065.97 1429.45 1065.07 1427.1 1065.07 1424.15 1065.07 1420.62 1066.3 1417.87 1068.76 1415.89 1071.22 1413.91 1074.26 1412.92 1077.88 1412.92ZM1203.59 1411.34 1209.84 1411.34 1209.84 1428.25 1209.95 1428.25C1210.92 1426.88 1212.17 1425.81 1213.71 1425.04 1215.25 1424.28 1216.92 1423.9 1218.71 1423.9 1221.66 1423.9 1223.95 1424.85 1225.58 1426.74 1227.21 1428.63 1228.02 1431.41 1228.02 1435.08L1228.02 1452.05 1221.79 1452.05 1221.79 1435.93C1221.79 1433.63 1221.34 1431.89 1220.44 1430.72 1219.53 1429.56 1218.19 1428.98 1216.4 1428.98 1214.45 1428.98 1212.86 1429.67 1211.66 1431.06 1210.45 1432.45 1209.84 1434.22 1209.84 1436.39L1209.84 1452.05 1203.59 1452.05Z" fill="url(#fill5)" fill-rule="evenodd"/><text fill="#000000" fill-opacity="0" font-family="Arial,Arial_MSFontService,sans-serif" font-size="41.3574" x="996.271" y="1447.52">AI Search</text><path d="M889 1584.22C889 1559.24 909.245 1539 934.218 1539L1292.78 1539C1317.76 1539 1338 1559.24 1338 1584.22L1338 1625.78C1338 1650.76 1317.76 1671 1292.78 1671L934.218 1671C909.245 1671 889 1650.76 889 1625.78Z" fill="#8DC8E8" fill-rule="evenodd"/><path d="M1139.51 1610.11 1132.88 1610.83C1131.35 1610.99 1130.24 1611.41 1129.55 1612.09 1128.85 1612.78 1128.5 1613.69 1128.5 1614.83 1128.5 1616 1128.9 1616.94 1129.69 1617.67 1130.49 1618.39 1131.52 1618.76 1132.8 1618.76 1134.8 1618.76 1136.42 1618.08 1137.66 1616.73 1138.89 1615.38 1139.51 1613.67 1139.51 1611.61ZM1164.76 1599.71C1162.43 1599.71 1160.59 1600.56 1159.23 1602.24 1157.87 1603.92 1157.19 1606.32 1157.19 1609.44 1157.19 1612.21 1157.82 1614.39 1159.08 1615.98 1160.34 1617.56 1162.09 1618.35 1164.33 1618.35 1166.57 1618.35 1168.39 1617.58 1169.78 1616.04 1171.18 1614.5 1171.88 1612.49 1171.88 1610L1171.88 1606.8C1171.88 1604.83 1171.22 1603.16 1169.89 1601.78 1168.57 1600.4 1166.86 1599.71 1164.76 1599.71ZM1083.35 1599.71C1080.89 1599.71 1078.93 1600.59 1077.46 1602.33 1076 1604.08 1075.26 1606.34 1075.26 1609.11 1075.26 1612 1075.99 1614.26 1077.44 1615.9 1078.89 1617.53 1080.86 1618.35 1083.35 1618.35 1085.82 1618.35 1087.73 1617.51 1089.09 1615.81 1090.45 1614.12 1091.13 1611.84 1091.13 1608.95 1091.13 1606.18 1090.45 1603.94 1089.08 1602.25 1087.71 1600.56 1085.8 1599.71 1083.35 1599.71ZM1197.29 1599.34C1195.34 1599.34 1193.76 1599.99 1192.54 1601.29 1191.32 1602.58 1190.59 1604.19 1190.34 1606.11L1203.31 1606.11C1203.31 1603.96 1202.77 1602.29 1201.7 1601.11 1200.62 1599.93 1199.16 1599.34 1197.29 1599.34ZM1116.89 1594.8C1117.59 1594.8 1118.23 1594.85 1118.82 1594.96 1119.41 1595.07 1120.05 1595.27 1120.73 1595.58L1119.01 1600.9C1118.51 1600.7 1117.99 1600.54 1117.47 1600.43 1116.94 1600.31 1116.38 1600.25 1115.79 1600.25 1113.94 1600.25 1112.45 1601.08 1111.3 1602.72 1110.16 1604.37 1109.58 1606.52 1109.58 1609.17L1109.58 1622.78 1103.33 1622.78 1103.33 1595.28 1109.58 1595.28 1109.58 1600.25 1109.69 1600.25C1110.34 1598.5 1111.28 1597.15 1112.54 1596.21 1113.79 1595.27 1115.24 1594.8 1116.89 1594.8ZM1197.19 1594.64C1201.05 1594.64 1204.05 1595.79 1206.17 1598.1 1208.29 1600.41 1209.35 1603.76 1209.35 1608.15L1209.35 1610.56 1190.36 1610.56C1190.42 1613.21 1191.14 1615.21 1192.53 1616.54 1193.91 1617.87 1195.62 1618.54 1197.64 1618.54 1199.07 1618.54 1200.35 1618.2 1201.46 1617.53 1202.57 1616.86 1203.51 1615.86 1204.28 1614.54L1209.08 1617.14C1207.83 1619.15 1206.23 1620.7 1204.29 1621.79 1202.35 1622.88 1200.06 1623.43 1197.43 1623.43 1193.38 1623.43 1190.14 1622.21 1187.71 1619.78 1185.27 1617.34 1184.05 1613.84 1184.05 1609.28 1184.05 1604.92 1185.3 1601.4 1187.8 1598.69 1190.3 1595.99 1193.43 1594.64 1197.19 1594.64ZM1163.88 1594.64C1165.51 1594.64 1167.01 1594.94 1168.39 1595.55 1169.77 1596.16 1170.88 1597.04 1171.72 1598.18L1171.83 1598.18 1171.83 1595.28 1178.08 1595.28 1178.08 1621.2C1178.08 1625.84 1176.82 1629.42 1174.31 1631.94 1171.79 1634.47 1168.31 1635.73 1163.85 1635.73 1161 1635.73 1158.52 1635.22 1156.41 1634.21 1154.3 1633.2 1152.53 1631.75 1151.09 1629.87L1155.63 1626.49C1156.67 1627.94 1157.85 1629.02 1159.16 1629.74 1160.48 1630.46 1162.07 1630.81 1163.93 1630.81 1166.42 1630.81 1168.36 1630.1 1169.74 1628.66 1171.13 1627.23 1171.83 1625.1 1171.83 1622.27L1171.83 1619.1 1171.72 1619.1C1170.72 1620.52 1169.49 1621.59 1168.05 1622.33 1166.61 1623.06 1164.83 1623.43 1162.69 1623.43 1159.11 1623.43 1156.24 1622.22 1154.07 1619.82 1151.91 1617.41 1150.82 1614.05 1150.82 1609.73 1150.82 1605.01 1152.06 1601.31 1154.54 1598.64 1157.02 1595.97 1160.13 1594.64 1163.88 1594.64ZM1134.81 1594.64C1138.28 1594.64 1140.94 1595.55 1142.77 1597.36 1144.61 1599.18 1145.52 1601.82 1145.52 1605.27L1145.52 1622.78 1139.48 1622.78 1139.48 1619.37 1139.38 1619.37C1138.41 1620.7 1137.23 1621.7 1135.83 1622.39 1134.43 1623.08 1132.88 1623.43 1131.16 1623.43 1128.61 1623.43 1126.53 1622.7 1124.91 1621.25 1123.29 1619.8 1122.48 1617.9 1122.48 1615.56 1122.48 1613.03 1123.29 1611.01 1124.91 1609.48 1126.53 1607.95 1128.86 1607.01 1131.88 1606.67L1139.51 1605.81 1139.51 1604.49C1139.51 1602.79 1139.03 1601.52 1138.09 1600.67 1137.14 1599.82 1135.89 1599.39 1134.35 1599.39 1132.83 1599.39 1131.55 1599.73 1130.51 1600.41 1129.47 1601.09 1128.61 1602.07 1127.93 1603.34L1123.26 1600.95C1124.19 1599.11 1125.66 1597.59 1127.67 1596.41 1129.67 1595.23 1132.05 1594.64 1134.81 1594.64ZM1083.51 1594.64C1087.84 1594.64 1091.26 1595.95 1093.77 1598.59 1096.27 1601.22 1097.53 1604.62 1097.53 1608.79 1097.53 1613.05 1096.2 1616.56 1093.56 1619.31 1090.92 1622.05 1087.44 1623.43 1083.1 1623.43 1078.75 1623.43 1075.3 1622.15 1072.74 1619.59 1070.18 1617.03 1068.9 1613.58 1068.9 1609.25 1068.92 1604.86 1070.28 1601.33 1072.98 1598.65 1075.68 1595.98 1079.19 1594.64 1083.51 1594.64ZM1057.39 1587.44 1057.39 1595.28 1064.4 1595.28 1064.4 1600.17 1057.39 1600.17 1057.39 1615.43C1057.39 1616.52 1057.61 1617.32 1058.05 1617.84 1058.49 1618.36 1059.16 1618.62 1060.05 1618.62 1060.52 1618.62 1060.97 1618.53 1061.42 1618.35 1061.87 1618.17 1062.34 1617.82 1062.85 1617.3L1065.64 1620.93C1064.82 1621.72 1063.86 1622.33 1062.77 1622.76 1061.67 1623.19 1060.45 1623.4 1059.09 1623.4 1056.47 1623.4 1054.5 1622.74 1053.16 1621.43 1051.83 1620.11 1051.16 1618.18 1051.16 1615.64L1051.16 1600.17 1046.54 1600.17 1046.54 1595.28 1051.16 1595.28 1051.16 1588.54ZM1033.19 1583.66C1035.91 1583.66 1038.31 1584.25 1040.39 1585.44 1042.46 1586.63 1044.13 1588.4 1045.38 1590.74L1039.98 1593.38C1039.16 1591.85 1038.18 1590.76 1037.06 1590.1 1035.93 1589.44 1034.56 1589.11 1032.95 1589.11 1030.94 1589.11 1029.38 1589.56 1028.27 1590.46 1027.16 1591.37 1026.61 1592.57 1026.61 1594.07 1026.61 1595.58 1027.12 1596.76 1028.14 1597.62 1029.16 1598.48 1031 1599.21 1033.65 1599.82 1037.73 1600.74 1040.71 1602.14 1042.6 1604.04 1044.49 1605.94 1045.43 1608.49 1045.43 1611.69 1045.43 1615.11 1044.3 1617.92 1042.02 1620.12 1039.75 1622.33 1036.51 1623.43 1032.3 1623.43 1029.06 1623.43 1026.24 1622.74 1023.83 1621.36 1021.42 1619.98 1019.65 1618.03 1018.53 1615.51L1024.08 1612.71C1024.89 1614.45 1025.99 1615.75 1027.37 1616.61 1028.76 1617.47 1030.39 1617.9 1032.25 1617.9 1034.47 1617.9 1036.18 1617.41 1037.39 1616.45 1038.6 1615.48 1039.2 1614.13 1039.2 1612.39 1039.2 1610.71 1038.6 1609.36 1037.4 1608.36 1036.21 1607.36 1034.36 1606.56 1031.87 1605.97 1027.83 1605.02 1024.9 1603.68 1023.09 1601.93 1021.28 1600.18 1020.38 1597.83 1020.38 1594.88 1020.38 1591.35 1021.61 1588.6 1024.07 1586.62 1026.53 1584.64 1029.57 1583.66 1033.19 1583.66Z" fill="url(#fill6)" fill-rule="evenodd"/><text fill="#000000" fill-opacity="0" font-family="Arial,Arial_MSFontService,sans-serif" font-size="52.0728" x="1018.53" y="1629.22">Storage</text><path d="M889 1753.22C889 1728.24 909.245 1708 934.218 1708L1292.78 1708C1317.76 1708 1338 1728.24 1338 1753.22L1338 1794.78C1338 1819.76 1317.76 1840 1292.78 1840L934.218 1840C909.245 1840 889 1819.76 889 1794.78Z" fill="#8DC8E8" fill-rule="evenodd"/><path d="M1151.54 1779.25 1144.91 1779.97C1143.39 1780.13 1142.28 1780.55 1141.58 1781.23 1140.88 1781.92 1140.53 1782.83 1140.53 1783.97 1140.53 1785.14 1140.93 1786.08 1141.72 1786.81 1142.52 1787.53 1143.56 1787.89 1144.83 1787.89 1146.83 1787.89 1148.45 1787.22 1149.69 1785.87 1150.92 1784.52 1151.54 1782.81 1151.54 1780.75ZM1048.33 1768.48C1046.38 1768.48 1044.8 1769.13 1043.58 1770.43 1042.36 1771.72 1041.63 1773.33 1041.38 1775.25L1054.35 1775.25C1054.35 1773.1 1053.81 1771.43 1052.74 1770.25 1051.67 1769.07 1050.2 1768.48 1048.33 1768.48ZM1164.12 1764.42 1170.32 1764.42 1170.32 1780.51C1170.32 1782.84 1170.77 1784.58 1171.66 1785.75 1172.56 1786.91 1173.96 1787.49 1175.85 1787.49 1177.77 1787.49 1179.34 1786.79 1180.55 1785.4 1181.77 1784 1182.38 1782.24 1182.38 1780.11L1182.38 1764.42 1188.64 1764.42 1188.64 1791.92 1182.38 1791.92 1182.38 1788.19 1182.27 1788.19C1181.38 1789.53 1180.17 1790.6 1178.66 1791.39 1177.15 1792.17 1175.56 1792.57 1173.89 1792.57 1170.67 1792.57 1168.24 1791.61 1166.59 1789.69 1164.94 1787.78 1164.12 1784.99 1164.12 1781.34ZM1105.13 1764.42 1111.79 1764.42 1117.8 1782.39C1118.02 1783.05 1118.19 1783.62 1118.32 1784.09 1118.46 1784.57 1118.62 1785.15 1118.79 1785.83L1118.9 1785.83C1119.08 1785.15 1119.24 1784.57 1119.39 1784.09 1119.53 1783.62 1119.7 1783.1 1119.9 1782.52L1126.15 1764.42 1132.6 1764.42 1121.99 1791.92 1115.25 1791.92ZM1063.35 1764.42 1070.17 1764.42 1076.48 1782.66C1076.68 1783.21 1076.83 1783.71 1076.94 1784.14 1077.04 1784.56 1077.17 1785.09 1077.31 1785.72L1077.45 1785.72C1077.57 1785.09 1077.7 1784.57 1077.84 1784.16 1077.97 1783.75 1078.13 1783.27 1078.31 1782.71L1084.67 1764.42 1091.09 1764.42 1078.31 1797.4C1077.36 1799.85 1076.08 1801.71 1074.48 1802.97 1072.88 1804.24 1070.93 1804.87 1068.64 1804.87 1067.53 1804.87 1066.48 1804.75 1065.51 1804.51 1064.53 1804.26 1063.61 1803.88 1062.73 1803.36L1065.44 1798.96C1066 1799.28 1066.5 1799.51 1066.95 1799.64 1067.39 1799.78 1067.86 1799.85 1068.34 1799.85 1069.18 1799.85 1069.9 1799.64 1070.5 1799.21 1071.1 1798.79 1071.65 1798.03 1072.13 1796.92L1074.14 1792.25ZM1146.84 1763.78C1150.31 1763.78 1152.97 1764.69 1154.8 1766.5 1156.64 1768.32 1157.56 1770.96 1157.56 1774.41L1157.56 1791.92 1151.51 1791.92 1151.51 1788.51 1151.41 1788.51C1150.44 1789.84 1149.26 1790.84 1147.86 1791.53 1146.46 1792.22 1144.91 1792.57 1143.19 1792.57 1140.65 1792.57 1138.56 1791.84 1136.94 1790.39 1135.32 1788.94 1134.51 1787.04 1134.51 1784.7 1134.51 1782.17 1135.32 1780.15 1136.94 1778.62 1138.56 1777.09 1140.89 1776.15 1143.91 1775.81L1151.54 1774.95 1151.54 1773.63C1151.54 1771.93 1151.07 1770.66 1150.12 1769.81 1149.17 1768.96 1147.92 1768.53 1146.38 1768.53 1144.86 1768.53 1143.58 1768.87 1142.54 1769.55 1141.51 1770.23 1140.65 1771.21 1139.97 1772.48L1135.29 1770.09C1136.22 1768.25 1137.69 1766.73 1139.7 1765.55 1141.7 1764.37 1144.08 1763.78 1146.84 1763.78ZM1048.23 1763.78C1052.09 1763.78 1055.09 1764.93 1057.21 1767.24 1059.33 1769.55 1060.39 1772.9 1060.39 1777.29L1060.39 1779.7 1041.41 1779.7C1041.46 1782.35 1042.18 1784.35 1043.57 1785.68 1044.96 1787.01 1046.66 1787.68 1048.68 1787.68 1050.12 1787.68 1051.39 1787.34 1052.5 1786.67 1053.61 1786 1054.55 1785 1055.32 1783.68L1060.12 1786.28C1058.87 1788.29 1057.27 1789.84 1055.33 1790.93 1053.39 1792.02 1051.1 1792.57 1048.47 1792.57 1044.42 1792.57 1041.18 1791.35 1038.75 1788.92 1036.31 1786.48 1035.1 1782.98 1035.1 1778.41 1035.1 1774.06 1036.34 1770.54 1038.84 1767.83 1041.34 1765.13 1044.47 1763.78 1048.23 1763.78ZM1217.81 1756.58 1217.81 1764.42 1224.82 1764.42 1224.82 1769.31 1217.81 1769.31 1217.81 1784.56C1217.81 1785.66 1218.03 1786.46 1218.47 1786.98 1218.91 1787.5 1219.57 1787.76 1220.47 1787.76 1220.94 1787.76 1221.39 1787.67 1221.84 1787.49 1222.29 1787.31 1222.76 1786.96 1223.26 1786.44L1226.06 1790.07C1225.23 1790.86 1224.27 1791.47 1223.18 1791.9 1222.09 1792.33 1220.86 1792.54 1219.5 1792.54 1216.89 1792.54 1214.92 1791.88 1213.58 1790.57 1212.25 1789.25 1211.58 1787.32 1211.58 1784.78L1211.58 1769.31 1206.96 1769.31 1206.96 1764.42 1211.58 1764.42 1211.58 1757.68ZM1004.34 1753.41 1010.73 1753.41 1010.73 1771.11 1010.86 1771.11C1010.99 1770.9 1011.14 1770.67 1011.31 1770.43 1011.48 1770.18 1011.68 1769.91 1011.91 1769.61L1024.85 1753.41 1032.21 1753.41 1017.17 1771.75 1033.34 1791.92 1025.1 1791.92 1011.88 1774.95C1011.65 1774.66 1011.46 1774.4 1011.31 1774.16 1011.15 1773.92 1011.01 1773.68 1010.86 1773.45L1010.73 1773.45 1010.73 1791.92 1004.34 1791.92ZM1196.14 1751.21 1202.4 1751.21 1202.4 1791.92 1196.14 1791.92Z" fill="url(#fill7)" fill-rule="evenodd"/><text fill="#000000" fill-opacity="0" font-family="Arial,Arial_MSFontService,sans-serif" font-size="53.6572" x="1004.34" y="1798.16">Key vault</text><text font-family="Segoe UI Variable Display Semibold,Segoe UI Variable Display Semibold_MSFontService,sans-serif" font-weight="600" font-size="55" transform="matrix(1 0 0 1 299.5 2107)">Many different resources and SDKs enabled scale, customization and </text><text font-family="Segoe UI Variable Display Semibold,Segoe UI Variable Display Semibold_MSFontService,sans-serif" font-weight="600" font-size="55" transform="matrix(1 0 0 1 406.063 2173)">enterprise controls but made setup and coding complicated</text><text font-family="Segoe UI Variable Display Semibold,Segoe UI Variable Display Semibold_MSFontService,sans-serif" font-weight="600" font-size="55" transform="matrix(1 0 0 1 1901.38 2173)"> </text><path d="M2.01196-1.09716 213.761 387.207 209.737 389.402-2.01196 1.09716ZM221.626 377.698 222.72 408.424 197.483 390.863Z" transform="matrix(1 0 0 -1 662.5 1333.92)"/><path d="M0.659748-2.19465 201.434 58.1614 200.114 62.5507-0.659748 2.19465ZM200.343 45.8686 222.72 66.9535 192.426 72.2044Z" transform="matrix(1 0 0 -1 662.5 1333.45)"/><path d="M663.468 1331.42 865.416 1425.53 863.48 1429.68 661.532 1335.58ZM866.101 1413.2 885.22 1437.28 854.486 1438.13Z"/><path d="M664.279 1332.06 872.561 1588.78 869.002 1591.66 660.72 1334.94ZM878.572 1578 885.22 1608.02 857.216 1595.32Z"/><path d="M664.549 1332.47 877.017 1757.23 872.918 1759.28 660.45 1334.53ZM885.215 1748.01 885.22 1778.75 860.62 1760.31Z"/><path d="M1554.37 1332.41 1356.91 946.941 1360.99 944.851 1558.45 1330.32ZM1348.8 956.244 1348.5 925.5 1373.28 943.706Z"/><path d="M1556.57 1333.33 1368.69 1274.53 1370.06 1270.16 1557.93 1328.95ZM1369.64 1286.84 1347.5 1265.5 1377.85 1260.59Z"/><path d="M1.04357-2.04027 188.555 93.869 186.468 97.9495-1.04357 2.04027ZM189.693 81.5805 207.914 106.345 177.17 106.064Z" transform="matrix(-1 0 0 1 1556.41 1331.5)"/><path d="M1.833-1.37544 195.993 257.375 192.327 260.126-1.833 1.37544ZM202.407 246.832 207.914 277.08 180.411 263.337Z" transform="matrix(-1 0 0 1 1556.41 1331.5)"/><path d="M2.07856-0.965048 200.342 426.064 196.185 427.994-2.07856 0.965048ZM208.805 417.082 207.914 447.815 183.862 428.662Z" transform="matrix(-1 0 0 1 1556.41 1331.5)"/><path d="M1.67548-1.56349 207.843 219.371 204.492 222.498-1.67548 1.56349ZM213.094 208.202 221.803 237.689 192.988 226.964Z" transform="matrix(1 0 0 -1 662.5 1333.19)"/><path d="M1554.62 1332.15 1361 1114.16 1364.43 1111.11 1558.05 1329.1ZM1355.48 1125.19 1347.5 1095.5 1376.04 1106.93Z"/><text font-family="Segoe UI Variable Display Semibold,Segoe UI Variable Display Semibold_MSFontService,sans-serif" font-weight="600" font-size="55" transform="matrix(1 0 0 1 2754.62 2113)">Simplified setup and coding, with ability to attach </text><text font-family="Segoe UI Variable Display Semibold,Segoe UI Variable Display Semibold_MSFontService,sans-serif" font-weight="600" font-size="55" transform="matrix(1 0 0 1 3999.57 2113)"> </text><text font-family="Segoe UI Variable Display Semibold,Segoe UI Variable Display Semibold_MSFontService,sans-serif" font-weight="600" font-size="55" transform="matrix(1 0 0 1 2647.78 2179)">dedicated resources for enterprise scale and</text><text font-family="Segoe UI Variable Display Semibold,Segoe UI Variable Display Semibold_MSFontService,sans-serif" font-weight="600" font-size="55" transform="matrix(1 0 0 1 3752.37 2179)"> </text><text font-family="Segoe UI Variable Display Semibold,Segoe UI Variable Display Semibold_MSFontService,sans-serif" font-weight="600" font-size="55" transform="matrix(1 0 0 1 3765.54 2179)">management</text><text font-family="Segoe UI Variable Display Semibold,Segoe UI Variable Display Semibold_MSFontService,sans-serif" font-weight="600" font-size="55" transform="matrix(1 0 0 1 4093.82 2179)"> </text><path d="M3038.5 956.208 3255.2 956.209 3255.2 960.792 3038.5 960.792ZM3250.61 944.75 3278.11 958.5 3250.61 972.25Z"/><path d="M3636.79 1509.5 3636.79 1631.05 3632.21 1631.05 3632.21 1509.5ZM3648.25 1626.46 3634.5 1653.96 3620.75 1626.46Z"/><text font-family="Segoe UI Variable Display Semibold,Segoe UI Variable Display Semibold_MSFontService,sans-serif" font-weight="600" font-size="50" transform="matrix(1 0 0 1 2506.77 1801)">Option to attach </text><text font-family="Segoe UI Variable Display Semibold,Segoe UI Variable Display Semibold_MSFontService,sans-serif" font-weight="600" font-size="50" transform="matrix(1 0 0 1 2896.93 1801)"> </text><text font-family="Segoe UI Variable Display Semibold,Segoe UI Variable Display Semibold_MSFontService,sans-serif" font-weight="600" font-size="50" transform="matrix(1 0 0 1 2431.72 1862)">dedicated resources</text><text font-family="Segoe UI Variable Display Semibold,Segoe UI Variable Display Semibold_MSFontService,sans-serif" font-weight="600" font-size="50" transform="matrix(1 0 0 1 2896.93 1862)"> </text><path d="M3038.5 1124.21 3257.03 1124.21 3257.03 1128.79 3038.5 1128.79ZM3252.45 1112.75 3279.95 1126.5 3252.45 1140.25Z"/><path d="M3266.5 1295.5 3972.7 1295.5" stroke="#000000" stroke-width="4.58333" stroke-miterlimit="8" stroke-dasharray="18.3333 13.75" fill="none" fill-rule="evenodd"/><path d="M286 1310.22C286 1285.24 306.245 1265 331.218 1265L611.782 1265C636.755 1265 657 1285.24 657 1310.22L657 1351.78C657 1376.76 636.755 1397 611.782 1397L331.218 1397C306.245 1397 286 1376.76 286 1351.78Z" fill="#8DC8E8" fill-rule="evenodd"/><path d="M508.068 1325.81C505.795 1325.81 503.937 1326.57 502.496 1328.1 501.055 1329.63 500.334 1331.58 500.334 1333.94L500.334 1337.3C500.334 1339.32 500.996 1341.02 502.321 1342.39 503.646 1343.76 505.365 1344.44 507.478 1344.44 509.877 1344.44 511.725 1343.57 513.023 1341.84 514.321 1340.1 514.97 1337.69 514.97 1334.61 514.97 1331.8 514.362 1329.63 513.144 1328.1 511.927 1326.57 510.235 1325.81 508.068 1325.81ZM462.137 1321.37 468.34 1321.37 468.34 1337.46C468.34 1339.79 468.788 1341.53 469.683 1342.7 470.578 1343.86 471.975 1344.44 473.872 1344.44 475.788 1344.44 477.355 1343.74 478.572 1342.35 479.79 1340.95 480.398 1339.19 480.398 1337.06L480.398 1321.37 486.656 1321.37 486.656 1348.87 480.398 1348.87 480.398 1345.14 480.291 1345.14C479.396 1346.48 478.192 1347.55 476.679 1348.34 475.166 1349.12 473.577 1349.52 471.912 1349.52 468.689 1349.52 466.254 1348.56 464.607 1346.65 462.96 1344.73 462.137 1341.95 462.137 1338.29ZM423.241 1310.36 429.633 1310.36 429.633 1326.56 447.76 1326.56 447.76 1310.36 454.178 1310.36 454.178 1348.87 447.76 1348.87 447.76 1332.25 429.633 1332.25 429.633 1348.87 423.241 1348.87ZM494.157 1308.16 500.415 1308.16 500.415 1325.16 500.522 1325.16C501.56 1323.73 502.858 1322.63 504.416 1321.87 505.974 1321.11 507.764 1320.73 509.787 1320.73 513.457 1320.73 516.309 1321.95 518.341 1324.4 520.373 1326.84 521.389 1330.19 521.389 1334.45 521.389 1339.02 520.27 1342.67 518.032 1345.41 515.794 1348.15 512.732 1349.52 508.847 1349.52 507.003 1349.52 505.378 1349.21 503.973 1348.59 502.568 1347.97 501.417 1347.07 500.522 1345.89L500.415 1345.89 500.415 1348.87 494.157 1348.87Z" fill="url(#fill8)" fill-rule="evenodd"/><text fill="#000000" fill-opacity="0" font-family="Arial,Arial_MSFontService,sans-serif" font-size="41.3574" x="423.241" y="1344.35">Hub</text><path d="M1567 1310.46C1567 1286.46 1586.46 1267 1610.46 1267L1975.54 1267C1999.54 1267 2019 1286.46 2019 1310.46L2019 1361.54C2019 1385.54 1999.54 1405 1975.54 1405L1610.46 1405C1586.46 1405 1567 1385.54 1567 1361.54Z" fill="#2A446F" fill-rule="evenodd"/><text fill="#FFFFFF" font-family="Segoe UI Variable Display Semibold,Segoe UI Variable Display Semibold_MSFontService,sans-serif" font-weight="600" font-size="55" transform="matrix(1 0 0 1 1629.87 1357)">Various SDKs</text><text fill="#FFFFFF" font-family="Segoe UI Variable Display Semibold,Segoe UI Variable Display Semibold_MSFontService,sans-serif" font-weight="600" font-size="55" transform="matrix(1 0 0 1 1956.43 1357)"> </text><path d="M2481 932.147C2481 908.317 2500.32 889 2524.15 889L3013.85 889C3037.68 889 3057 908.317 3057 932.147L3057 982.854C3057 1006.68 3037.68 1026 3013.85 1026L2524.15 1026C2500.32 1026 2481 1006.68 2481 982.854Z" fill="#2A446F" fill-rule="evenodd"/><text fill="#FFFFFF" font-family="Segoe UI Variable Display Semibold,Segoe UI Variable Display Semibold_MSFontService,sans-serif" font-weight="600" font-size="55" transform="matrix(1 0 0 1 2607.86 979)">Foundry SDK</text><text fill="#FFFFFF" font-family="Segoe UI Variable Display Semibold,Segoe UI Variable Display Semibold_MSFontService,sans-serif" font-weight="600" font-size="55" transform="matrix(1 0 0 1 2930.98 979)"> </text><path d="M2481 1104.46C2481 1080.46 2500.46 1061 2524.46 1061L3013.54 1061C3037.54 1061 3057 1080.46 3057 1104.46L3057 1155.54C3057 1179.54 3037.54 1199 3013.54 1199L2524.46 1199C2500.46 1199 2481 1179.54 2481 1155.54Z" fill="#2A446F" fill-rule="evenodd"/><text fill="#FFFFFF" font-family="Segoe UI Variable Display Semibold,Segoe UI Variable Display Semibold_MSFontService,sans-serif" font-weight="600" font-size="55" transform="matrix(1 0 0 1 2539.39 1151)">Azure OpenAI SDK</text><text fill="#FFFFFF" font-family="Segoe UI Variable Display Semibold,Segoe UI Variable Display Semibold_MSFontService,sans-serif" font-weight="600" font-size="55" transform="matrix(1 0 0 1 2999.45 1151)"> </text><path d="M2940.5 1699.73C2940.5 1684.14 2953.14 1671.5 2968.73 1671.5L3293.27 1671.5C3308.86 1671.5 3321.5 1684.14 3321.5 1699.73L3321.5 1764.27C3321.5 1779.86 3308.86 1792.5 3293.27 1792.5L2968.73 1792.5C2953.14 1792.5 2940.5 1779.86 2940.5 1764.27Z" stroke="#BFBFBF" stroke-width="4.58333" stroke-miterlimit="8" fill="#FFFFFF" fill-rule="evenodd" fill-opacity="0.8"/><text font-family="Segoe UI Variable Display Semibold,Segoe UI Variable Display Semibold_MSFontService,sans-serif" font-weight="600" font-size="55" transform="matrix(1 0 0 1 2995.26 1749)">AI Foundry</text><text font-family="Segoe UI Variable Display Semibold,Segoe UI Variable Display Semibold_MSFontService,sans-serif" font-weight="600" font-size="55" transform="matrix(1 0 0 1 3266.25 1749)"> </text><path d="M3328.5 1699.73C3328.5 1684.14 3341.14 1671.5 3356.73 1671.5L3724.27 1671.5C3739.86 1671.5 3752.5 1684.14 3752.5 1699.73L3752.5 1764.27C3752.5 1779.86 3739.86 1792.5 3724.27 1792.5L3356.73 1792.5C3341.14 1792.5 3328.5 1779.86 3328.5 1764.27Z" stroke="#BFBFBF" stroke-width="4.58333" stroke-miterlimit="8" fill="#FFFFFF" fill-rule="evenodd" fill-opacity="0.8"/><text font-family="Segoe UI Variable Display Semibold,Segoe UI Variable Display Semibold_MSFontService,sans-serif" font-weight="600" font-size="55" transform="matrix(1 0 0 1 3368.56 1749)">Azure OpenAI</text><text font-family="Segoe UI Variable Display Semibold,Segoe UI Variable Display Semibold_MSFontService,sans-serif" font-weight="600" font-size="55" transform="matrix(1 0 0 1 3711.16 1749)"> </text><path d="M3758.5 1699.73C3758.5 1684.14 3771.14 1671.5 3786.73 1671.5L4082.27 1671.5C4097.86 1671.5 4110.5 1684.14 4110.5 1699.73L4110.5 1764.27C4110.5 1779.86 4097.86 1792.5 4082.27 1792.5L3786.73 1792.5C3771.14 1792.5 3758.5 1779.86 3758.5 1764.27Z" stroke="#BFBFBF" stroke-width="4.58333" stroke-miterlimit="8" fill="#FFFFFF" fill-rule="evenodd" fill-opacity="0.8"/><text font-family="Segoe UI Variable Display Semibold,Segoe UI Variable Display Semibold_MSFontService,sans-serif" font-weight="600" font-size="55" transform="matrix(1 0 0 1 3816.6 1749)">AI Search</text><text font-family="Segoe UI Variable Display Semibold,Segoe UI Variable Display Semibold_MSFontService,sans-serif" font-weight="600" font-size="55" transform="matrix(1 0 0 1 4052.07 1749)"> </text><path d="M2940.5 1835.73C2940.5 1820.14 2953.14 1807.5 2968.73 1807.5L3203.27 1807.5C3218.86 1807.5 3231.5 1820.14 3231.5 1835.73L3231.5 1900.27C3231.5 1915.86 3218.86 1928.5 3203.27 1928.5L2968.73 1928.5C2953.14 1928.5 2940.5 1915.86 2940.5 1900.27Z" stroke="#BFBFBF" stroke-width="4.58333" stroke-miterlimit="8" fill="#FFFFFF" fill-rule="evenodd" fill-opacity="0.8"/><text font-family="Segoe UI Variable Display Semibold,Segoe UI Variable Display Semibold_MSFontService,sans-serif" font-weight="600" font-size="55" transform="matrix(1 0 0 1 2987.95 1885)">Storage</text><text font-family="Segoe UI Variable Display Semibold,Segoe UI Variable Display Semibold_MSFontService,sans-serif" font-weight="600" font-size="55" transform="matrix(1 0 0 1 3183.31 1885)"> </text><path d="M3239.5 1835.73C3239.5 1820.14 3252.14 1807.5 3267.73 1807.5L3502.27 1807.5C3517.86 1807.5 3530.5 1820.14 3530.5 1835.73L3530.5 1900.27C3530.5 1915.86 3517.86 1928.5 3502.27 1928.5L3267.73 1928.5C3252.14 1928.5 3239.5 1915.86 3239.5 1900.27Z" stroke="#BFBFBF" stroke-width="4.58333" stroke-miterlimit="8" fill="#FFFFFF" fill-rule="evenodd" fill-opacity="0.8"/><text font-family="Segoe UI Variable Display Semibold,Segoe UI Variable Display Semibold_MSFontService,sans-serif" font-weight="600" font-size="55" transform="matrix(1 0 0 1 3309.23 1885)">Fabric</text><text font-family="Segoe UI Variable Display Semibold,Segoe UI Variable Display Semibold_MSFontService,sans-serif" font-weight="600" font-size="55" transform="matrix(1 0 0 1 3459.91 1885)"> </text><path d="M3538.5 1835.73C3538.5 1820.14 3551.14 1807.5 3566.73 1807.5L3923.27 1807.5C3938.86 1807.5 3951.5 1820.14 3951.5 1835.73L3951.5 1900.27C3951.5 1915.86 3938.86 1928.5 3923.27 1928.5L3566.73 1928.5C3551.14 1928.5 3538.5 1915.86 3538.5 1900.27Z" stroke="#BFBFBF" stroke-width="4.58333" stroke-miterlimit="8" fill="#FFFFFF" fill-rule="evenodd" fill-opacity="0.8"/><text font-family="Segoe UI Variable Display Semibold,Segoe UI Variable Display Semibold_MSFontService,sans-serif" font-weight="600" font-size="55" transform="matrix(1 0 0 1 3565 1885)">Azure Monitor</text><text font-family="Segoe UI Variable Display Semibold,Segoe UI Variable Display Semibold_MSFontService,sans-serif" font-weight="600" font-size="55" transform="matrix(1 0 0 1 3923.65 1885)"> </text><path d="M3959.5 1835.73C3959.5 1820.14 3972.14 1807.5 3987.73 1807.5L4082.27 1807.5C4097.86 1807.5 4110.5 1820.14 4110.5 1835.73L4110.5 1900.27C4110.5 1915.86 4097.86 1928.5 4082.27 1928.5L3987.73 1928.5C3972.14 1928.5 3959.5 1915.86 3959.5 1900.27Z" stroke="#BFBFBF" stroke-width="4.58333" stroke-miterlimit="8" fill="#FFFFFF" fill-rule="evenodd" fill-opacity="0.8"/><text font-family="Segoe UI Variable Display Semibold,Segoe UI Variable Display Semibold_MSFontService,sans-serif" font-weight="600" font-size="55" transform="matrix(1 0 0 1 4012.39 1885)"></text><text font-family="Segoe UI Variable Display Semibold,Segoe UI Variable Display Semibold_MSFontService,sans-serif" font-weight="600" font-size="55" transform="matrix(1 0 0 1 4056.51 1885)"> </text><text font-family="Segoe UI Variable Display Semibold,Segoe UI Variable Display Semibold_MSFontService,sans-serif" font-weight="600" font-size="64" transform="matrix(1 0 0 1 3460.56 848)">AI </text><text font-family="Segoe UI Variable Display Semibold,Segoe UI Variable Display Semibold_MSFontService,sans-serif" font-weight="600" font-size="64" transform="matrix(1 0 0 1 3536.18 848)">Foundry</text><text font-family="Segoe UI Variable Display Semibold,Segoe UI Variable Display Semibold_MSFontService,sans-serif" font-weight="600" font-size="64" transform="matrix(1 0 0 1 3776.81 848)"> </text><path d="M3296.5 1426.73C3296.5 1411.14 3309.14 1398.5 3324.73 1398.5L3914.27 1398.5C3929.86 1398.5 3942.5 1411.14 3942.5 1426.73L3942.5 1491.27C3942.5 1506.86 3929.86 1519.5 3914.27 1519.5L3324.73 1519.5C3309.14 1519.5 3296.5 1506.86 3296.5 1491.27Z" stroke="#BFBFBF" stroke-width="4.58333" stroke-miterlimit="8" fill="#FFFFFF" fill-rule="evenodd" fill-opacity="0.8"/><text font-family="Segoe UI Variable Display Semibold,Segoe UI Variable Display Semibold_MSFontService,sans-serif" font-weight="600" font-size="55" transform="matrix(1 0 0 1 3327.93 1476)">Connections (Optional)</text><text font-family="Segoe UI Variable Display Semibold,Segoe UI Variable Display Semibold_MSFontService,sans-serif" font-weight="600" font-size="55" transform="matrix(1 0 0 1 3909.44 1476)"> </text><path d="M3296.5 934.726C3296.5 919.137 3309.14 906.5 3324.73 906.5L3914.27 906.5C3929.86 906.5 3942.5 919.137 3942.5 934.726L3942.5 999.274C3942.5 1014.86 3929.86 1027.5 3914.27 1027.5L3324.73 1027.5C3309.14 1027.5 3296.5 1014.86 3296.5 999.274Z" stroke="#BFBFBF" stroke-width="4.58333" stroke-miterlimit="8" fill="#FFFFFF" fill-rule="evenodd" fill-opacity="0.8"/><text font-family="Segoe UI Variable Display Semibold,Segoe UI Variable Display Semibold_MSFontService,sans-serif" font-weight="600" font-size="55" transform="matrix(1 0 0 1 3467.43 984)">Foundry API</text><text font-family="Segoe UI Variable Display Semibold,Segoe UI Variable Display Semibold_MSFontService,sans-serif" font-weight="600" font-size="55" transform="matrix(1 0 0 1 3769.93 984)"> </text><path d="M3296.5 1098.73C3296.5 1083.14 3309.14 1070.5 3324.73 1070.5L3914.27 1070.5C3929.86 1070.5 3942.5 1083.14 3942.5 1098.73L3942.5 1163.27C3942.5 1178.86 3929.86 1191.5 3914.27 1191.5L3324.73 1191.5C3309.14 1191.5 3296.5 1178.86 3296.5 1163.27Z" stroke="#BFBFBF" stroke-width="4.58333" stroke-miterlimit="8" fill="#FFFFFF" fill-rule="evenodd" fill-opacity="0.8"/><text font-family="Segoe UI Variable Display Semibold,Segoe UI Variable Display Semibold_MSFontService,sans-serif" font-weight="600" font-size="55" transform="matrix(1 0 0 1 3398.97 1148)">Azure OpenAI API</text><text font-family="Segoe UI Variable Display Semibold,Segoe UI Variable Display Semibold_MSFontService,sans-serif" font-weight="600" font-size="55" transform="matrix(1 0 0 1 3838.39 1148)"> </text><path d="M994.167 614.467 983.071 615.679C980.526 615.949 978.669 616.653 977.501 617.791 976.333 618.929 975.749 620.456 975.749 622.373 975.749 624.319 976.415 625.899 977.748 627.112 979.081 628.325 980.81 628.931 982.936 628.931 986.291 628.931 989.001 627.801 991.067 625.54 993.134 623.279 994.167 620.426 994.167 616.982ZM1295.1 597.082C1290.99 597.082 1287.71 598.542 1285.26 601.462 1282.8 604.382 1281.57 608.163 1281.57 612.804 1281.57 617.626 1282.79 621.407 1285.21 624.147 1287.64 626.887 1290.93 628.258 1295.1 628.258 1299.23 628.258 1302.43 626.843 1304.71 624.012 1306.98 621.182 1308.12 617.357 1308.12 612.535 1308.12 607.893 1306.98 604.157 1304.69 601.327 1302.4 598.497 1299.2 597.082 1295.1 597.082ZM1206.64 597.082C1202.84 597.082 1199.73 598.355 1197.32 600.9 1194.91 603.446 1193.7 606.71 1193.7 610.693L1193.7 616.353C1193.7 619.737 1194.83 622.568 1197.09 624.844 1199.36 627.12 1202.21 628.258 1205.65 628.258 1209.55 628.258 1212.61 626.775 1214.84 623.81 1217.07 620.845 1218.19 616.847 1218.19 611.816 1218.19 606.935 1217.16 603.259 1215.11 600.788 1213.06 598.317 1210.23 597.082 1206.64 597.082ZM1126.99 597.082C1123.07 597.082 1119.97 598.489 1117.7 601.305 1115.42 604.12 1114.28 608.133 1114.28 613.344 1114.28 618.015 1115.35 621.669 1117.47 624.304 1119.6 626.94 1122.53 628.258 1126.28 628.258 1130.11 628.258 1133.16 626.94 1135.44 624.304 1137.72 621.669 1138.85 618.285 1138.85 614.152L1138.85 608.896C1138.85 605.542 1137.75 602.734 1135.55 600.473 1133.35 598.212 1130.5 597.082 1126.99 597.082ZM937.943 597.082C934.14 597.082 931.032 598.362 928.622 600.923 926.211 603.483 925.005 606.74 925.005 610.693L925.005 616.308C925.005 619.693 926.114 622.53 928.33 624.821 930.546 627.112 933.421 628.258 936.955 628.258 940.968 628.258 944.06 626.805 946.231 623.9 948.402 620.995 949.488 616.967 949.488 611.816 949.488 607.114 948.47 603.483 946.433 600.923 944.397 598.362 941.567 597.082 937.943 597.082ZM861.745 597.082C857.942 597.082 854.835 598.362 852.424 600.923 850.013 603.483 848.808 606.74 848.808 610.693L848.808 616.308C848.808 619.693 849.916 622.53 852.132 624.821 854.348 627.112 857.223 628.258 860.757 628.258 864.77 628.258 867.862 626.805 870.033 623.9 872.204 620.995 873.29 616.967 873.29 611.816 873.29 607.114 872.272 603.483 870.235 600.923 868.199 598.362 865.369 597.082 861.745 597.082ZM1369.84 596.453C1366.58 596.453 1363.93 597.539 1361.89 599.71 1359.86 601.881 1358.63 604.569 1358.21 607.773L1379.91 607.773C1379.91 604.179 1379.01 601.394 1377.21 599.418 1375.41 597.441 1372.96 596.453 1369.84 596.453ZM1077.08 596.453C1073.82 596.453 1071.17 597.539 1069.13 599.71 1067.1 601.881 1065.87 604.569 1065.45 607.773L1087.15 607.773C1087.15 604.179 1086.25 601.394 1084.45 599.418 1082.65 597.441 1080.2 596.453 1077.08 596.453ZM1327.52 589.67 1337.94 589.67 1337.94 638.949C1337.94 644.849 1336.44 649.386 1333.43 652.56 1330.42 655.735 1326.47 657.322 1321.59 657.322 1319.23 657.322 1317.05 656.993 1315.08 656.334 1313.1 655.675 1311.47 654.821 1310.18 653.773L1315.12 646.855C1316.05 647.544 1316.98 648.053 1317.91 648.383 1318.84 648.712 1319.82 648.877 1320.87 648.877 1323.03 648.877 1324.68 648.165 1325.81 646.743 1326.95 645.32 1327.52 642.917 1327.52 639.533ZM784.914 589.67 795.291 589.67 795.291 616.578C795.291 620.471 796.039 623.391 797.537 625.338 799.034 627.284 801.37 628.258 804.544 628.258 807.749 628.258 810.369 627.09 812.406 624.754 814.442 622.418 815.461 619.468 815.461 615.904L815.461 589.67 825.927 589.67 825.927 635.67 815.461 635.67 815.461 629.426 815.281 629.426C813.783 631.672 811.769 633.454 809.239 634.771 806.708 636.089 804.05 636.748 801.265 636.748 795.875 636.748 791.802 635.146 789.046 631.941 786.291 628.737 784.914 624.08 784.914 617.97ZM1261.06 588.861C1262.22 588.861 1263.3 588.951 1264.29 589.131 1265.28 589.31 1266.34 589.655 1267.48 590.164L1264.61 599.058C1263.77 598.729 1262.91 598.467 1262.02 598.272 1261.14 598.078 1260.2 597.98 1259.22 597.98 1256.13 597.98 1253.63 599.358 1251.71 602.113 1249.8 604.868 1248.84 608.462 1248.84 612.894L1248.84 635.67 1238.37 635.67 1238.37 589.67 1248.84 589.67 1248.84 597.98 1249.02 597.98C1250.1 595.045 1251.68 592.792 1253.78 591.219 1255.88 589.647 1258.3 588.861 1261.06 588.861ZM1497.93 588.592C1501.26 588.592 1504.32 589.176 1507.12 590.344 1509.92 591.511 1512.14 593.308 1513.79 595.734L1507.41 600.99C1506.12 599.463 1504.71 598.332 1503.19 597.598 1501.66 596.865 1499.86 596.498 1497.8 596.498 1495.64 596.498 1493.94 596.962 1492.7 597.89 1491.46 598.819 1490.83 600.122 1490.83 601.799 1490.83 603.296 1491.43 604.479 1492.61 605.347 1493.79 606.216 1496.06 606.965 1499.41 607.594 1504.57 608.492 1508.41 610.109 1510.96 612.445 1513.5 614.781 1514.78 617.956 1514.78 621.969 1514.78 626.581 1513.12 630.197 1509.81 632.817 1506.5 635.438 1502.42 636.748 1497.57 636.748 1493.44 636.748 1489.85 635.984 1486.79 634.457 1483.74 632.929 1481.33 630.803 1479.56 628.078L1486.03 622.642C1487.64 624.888 1489.4 626.476 1491.28 627.404 1493.17 628.332 1495.3 628.797 1497.66 628.797 1499.97 628.797 1501.82 628.288 1503.23 627.269 1504.64 626.251 1505.34 624.784 1505.34 622.867 1505.34 621.429 1504.71 620.187 1503.43 619.138 1502.16 618.09 1500.15 617.312 1497.39 616.802 1491.46 615.694 1487.34 613.972 1485.02 611.636 1482.7 609.301 1481.54 606.396 1481.54 602.922 1481.54 598.609 1483.08 595.143 1486.16 592.522 1489.25 589.902 1493.17 588.592 1497.93 588.592ZM1420.25 588.592C1424.23 588.592 1427.83 589.43 1431.03 591.107 1434.24 592.784 1436.66 595.285 1438.31 598.609L1430.13 602.742C1428.69 600.676 1427.16 599.216 1425.53 598.362 1423.9 597.509 1422 597.082 1419.85 597.082 1416.13 597.082 1413.07 598.459 1410.66 601.215 1408.25 603.97 1407.04 607.818 1407.04 612.76 1407.04 617.641 1408.23 621.414 1410.61 624.08 1412.99 626.745 1416.19 628.078 1420.2 628.078 1422.24 628.078 1424.12 627.651 1425.84 626.798 1427.56 625.944 1429.11 624.499 1430.49 622.463L1438.53 627.09C1436.5 630.324 1433.87 632.742 1430.65 634.344 1427.43 635.947 1423.87 636.748 1419.98 636.748 1412.55 636.748 1406.77 634.614 1402.62 630.346 1398.47 626.079 1396.4 620.456 1396.4 613.478 1396.4 605.782 1398.6 599.71 1403.02 595.263 1407.44 590.815 1413.18 588.592 1420.25 588.592ZM1369.66 588.592C1376.13 588.592 1381.14 590.523 1384.69 594.387 1388.24 598.25 1390.01 603.85 1390.01 611.187L1390.01 615.23 1358.25 615.23C1358.34 619.663 1359.55 622.994 1361.87 625.225 1364.19 627.456 1367.04 628.572 1370.43 628.572 1372.82 628.572 1374.95 628.01 1376.81 626.887 1378.66 625.764 1380.24 624.095 1381.52 621.879L1389.57 626.236C1387.47 629.59 1384.8 632.181 1381.55 634.008 1378.3 635.834 1374.47 636.748 1370.07 636.748 1363.3 636.748 1357.88 634.711 1353.81 630.638 1349.73 626.566 1347.7 620.711 1347.7 613.074 1347.7 605.797 1349.79 599.897 1353.96 595.375 1358.14 590.853 1363.38 588.592 1369.66 588.592ZM1295.36 588.592C1302.61 588.592 1308.33 590.793 1312.52 595.195 1316.72 599.597 1318.81 605.288 1318.81 612.265 1318.81 619.393 1316.61 625.255 1312.19 629.852 1307.77 634.449 1301.94 636.748 1294.69 636.748 1287.41 636.748 1281.63 634.607 1277.35 630.324 1273.07 626.041 1270.93 620.276 1270.93 613.029 1270.96 605.692 1273.23 599.785 1277.76 595.307 1282.28 590.83 1288.15 588.592 1295.36 588.592ZM1209.52 588.592C1215.63 588.592 1220.39 590.613 1223.8 594.656 1227.22 598.699 1228.92 604.329 1228.92 611.547 1228.92 619.094 1227.01 625.18 1223.19 629.807 1219.38 634.434 1214.28 636.748 1207.9 636.748 1204.93 636.748 1202.29 636.254 1199.97 635.265 1197.65 634.277 1195.66 632.81 1194.02 630.863L1193.84 630.863 1193.84 656.828 1183.37 656.828 1183.37 589.67 1193.84 589.67 1193.84 596.228 1194.02 596.228C1195.84 593.683 1198.07 591.774 1200.69 590.501 1203.31 589.228 1206.25 588.592 1209.52 588.592ZM1076.9 588.592C1083.37 588.592 1088.38 590.523 1091.93 594.387 1095.48 598.25 1097.25 603.85 1097.25 611.187L1097.25 615.23 1065.49 615.23C1065.58 619.663 1066.79 622.994 1069.11 625.225 1071.43 627.456 1074.28 628.572 1077.67 628.572 1080.06 628.572 1082.19 628.01 1084.05 626.887 1085.9 625.764 1087.48 624.095 1088.76 621.879L1096.8 626.236C1094.71 629.59 1092.04 632.181 1088.79 634.008 1085.54 635.834 1081.71 636.748 1077.31 636.748 1070.54 636.748 1065.12 634.711 1061.05 630.638 1056.97 626.566 1054.94 620.711 1054.94 613.074 1054.94 605.797 1057.03 599.897 1061.2 595.375 1065.38 590.853 1070.62 588.592 1076.9 588.592ZM1031.58 588.592C1034.9 588.592 1037.96 589.176 1040.76 590.344 1043.56 591.511 1045.79 593.308 1047.44 595.734L1041.06 600.99C1039.77 599.463 1038.36 598.332 1036.83 597.598 1035.31 596.865 1033.51 596.498 1031.44 596.498 1029.29 596.498 1027.59 596.962 1026.34 597.89 1025.1 598.819 1024.48 600.122 1024.48 601.799 1024.48 603.296 1025.07 604.479 1026.25 605.347 1027.44 606.216 1029.71 606.965 1033.06 607.594 1038.21 608.492 1042.06 610.109 1044.6 612.445 1047.15 614.781 1048.42 617.956 1048.42 621.969 1048.42 626.581 1046.77 630.197 1043.46 632.817 1040.15 635.438 1036.07 636.748 1031.22 636.748 1027.09 636.748 1023.49 635.984 1020.44 634.457 1017.38 632.929 1014.97 630.803 1013.2 628.078L1019.67 622.642C1021.29 624.888 1023.04 626.476 1024.93 627.404 1026.82 628.332 1028.94 628.797 1031.31 628.797 1033.61 628.797 1035.47 628.288 1036.88 627.269 1038.29 626.251 1038.99 624.784 1038.99 622.867 1038.99 621.429 1038.35 620.187 1037.08 619.138 1035.81 618.09 1033.79 617.312 1031.04 616.802 1025.11 615.694 1020.98 613.972 1018.66 611.636 1016.34 609.301 1015.18 606.396 1015.18 602.922 1015.18 598.609 1016.72 595.143 1019.81 592.522 1022.89 589.902 1026.82 588.592 1031.58 588.592ZM986.306 588.592C992.115 588.592 996.555 590.111 999.625 593.151 1002.69 596.191 1004.23 600.601 1004.23 606.381L1004.23 635.67 994.122 635.67 994.122 629.965 993.942 629.965C992.325 632.181 990.349 633.865 988.013 635.018 985.677 636.171 983.071 636.748 980.196 636.748 975.944 636.748 972.462 635.535 969.752 633.109 967.042 630.683 965.686 627.509 965.686 623.586 965.686 619.363 967.042 615.971 969.752 613.411 972.462 610.85 976.348 609.286 981.409 608.717L994.167 607.279 994.167 605.078C994.167 602.233 993.373 600.099 991.786 598.677 990.199 597.254 988.117 596.543 985.542 596.543 982.996 596.543 980.855 597.112 979.118 598.25 977.381 599.388 975.944 601.02 974.806 603.146L966.989 599.148C968.546 596.064 971.002 593.533 974.356 591.556 977.711 589.58 981.694 588.592 986.306 588.592ZM1460.74 576.553 1460.74 589.67 1472.46 589.67 1472.46 597.846 1460.74 597.846 1460.74 623.361C1460.74 625.188 1461.1 626.536 1461.84 627.404 1462.57 628.273 1463.69 628.707 1465.19 628.707 1465.96 628.707 1466.73 628.557 1467.48 628.258 1468.22 627.958 1469.02 627.374 1469.86 626.506L1474.53 632.57C1473.15 633.888 1471.55 634.906 1469.72 635.625 1467.9 636.344 1465.84 636.703 1463.57 636.703 1459.2 636.703 1455.89 635.602 1453.66 633.401 1451.43 631.2 1450.32 627.973 1450.32 623.72L1450.32 597.846 1442.59 597.846 1442.59 589.67 1450.32 589.67 1450.32 578.394ZM720.477 571.252 731.168 571.252 731.168 598.34 761.49 598.34 761.49 571.252 772.227 571.252 772.227 635.67 761.49 635.67 761.49 607.863 731.168 607.863 731.168 635.67 720.477 635.67ZM1332.78 568.242C1334.78 568.242 1336.4 568.871 1337.63 570.129 1338.86 571.387 1339.47 572.929 1339.47 574.756 1339.47 576.612 1338.86 578.162 1337.63 579.405 1336.4 580.648 1334.78 581.269 1332.78 581.269 1330.8 581.269 1329.19 580.633 1327.95 579.36 1326.71 578.087 1326.08 576.553 1326.08 574.756 1326.08 572.929 1326.71 571.387 1327.95 570.129 1329.19 568.871 1330.8 568.242 1332.78 568.242ZM1138.72 567.568 1149.19 567.568 1149.19 635.67 1138.72 635.67 1138.72 629.291 1138.54 629.291C1136.86 631.747 1134.75 633.603 1132.21 634.861 1129.66 636.119 1126.77 636.748 1123.54 636.748 1117.37 636.748 1112.51 634.704 1108.96 630.616 1105.41 626.528 1103.64 620.905 1103.64 613.748 1103.64 606.021 1105.62 599.897 1109.59 595.375 1113.56 590.853 1118.85 588.592 1125.47 588.592 1128.34 588.592 1130.94 589.161 1133.26 590.299 1135.58 591.437 1137.34 592.874 1138.54 594.611L1138.72 594.611ZM914.673 567.568 925.14 567.568 925.14 596.004 925.32 596.004C927.057 593.608 929.228 591.774 931.834 590.501 934.439 589.228 937.434 588.592 940.818 588.592 946.957 588.592 951.726 590.636 955.126 594.723 958.525 598.811 960.224 604.419 960.224 611.547 960.224 619.183 958.352 625.293 954.609 629.875 950.865 634.457 945.744 636.748 939.246 636.748 936.161 636.748 933.443 636.231 931.092 635.198 928.741 634.165 926.817 632.66 925.32 630.683L925.14 630.683 925.14 635.67 914.673 635.67ZM838.476 567.568 848.942 567.568 848.942 596.004 849.122 596.004C850.859 593.608 853.03 591.774 855.636 590.501 858.241 589.228 861.236 588.592 864.62 588.592 870.759 588.592 875.529 590.636 878.928 594.723 882.327 598.811 884.026 604.419 884.026 611.547 884.026 619.183 882.155 625.293 878.411 629.875 874.668 634.457 869.546 636.748 863.048 636.748 859.963 636.748 857.245 636.231 854.894 635.198 852.544 634.165 850.619 632.66 849.122 630.683L848.942 630.683 848.942 635.67 838.476 635.67Z" fill="url(#fill9)" fill-rule="evenodd"/><text fill="#000000" fill-opacity="0" font-family="Arial,Arial_MSFontService,sans-serif" font-size="89.7538" x="720.477" y="646.103">Hub based projects</text><path d="M3458.29 597.018C3454.19 597.018 3450.91 598.478 3448.45 601.398 3446 604.318 3444.77 608.099 3444.77 612.741 3444.77 617.563 3445.98 621.344 3448.41 624.084 3450.83 626.824 3454.13 628.194 3458.29 628.194 3462.42 628.194 3465.63 626.779 3467.91 623.949 3470.18 621.119 3471.32 617.293 3471.32 612.471 3471.32 607.829 3470.17 604.094 3467.88 601.263 3465.59 598.433 3462.39 597.018 3458.29 597.018ZM3369.84 597.018C3366.03 597.018 3362.93 598.291 3360.52 600.837 3358.11 603.382 3356.9 606.647 3356.9 610.63L3356.9 616.29C3356.9 619.674 3358.03 622.504 3360.29 624.78 3362.55 627.056 3365.41 628.194 3368.85 628.194 3372.74 628.194 3375.8 626.712 3378.04 623.747 3380.27 620.782 3381.38 616.784 3381.38 611.753 3381.38 606.871 3380.36 603.195 3378.31 600.724 3376.25 598.254 3373.43 597.018 3369.84 597.018ZM3206.55 597.018C3202.62 597.018 3199.52 598.426 3197.25 601.241 3194.97 604.056 3193.83 608.069 3193.83 613.28 3193.83 617.952 3194.9 621.606 3197.02 624.241 3199.15 626.876 3202.08 628.194 3205.83 628.194 3209.66 628.194 3212.72 626.876 3214.99 624.241 3217.27 621.606 3218.41 618.221 3218.41 614.089L3218.41 608.833C3218.41 605.479 3217.3 602.671 3215.1 600.41 3212.9 598.149 3210.05 597.018 3206.55 597.018ZM3047.51 597.018C3043.41 597.018 3040.13 598.478 3037.67 601.398 3035.22 604.318 3033.99 608.099 3033.99 612.741 3033.99 617.563 3035.2 621.344 3037.63 624.084 3040.05 626.824 3043.35 628.194 3047.51 628.194 3051.64 628.194 3054.85 626.779 3057.12 623.949 3059.4 621.119 3060.54 617.293 3060.54 612.471 3060.54 607.829 3059.39 604.094 3057.1 601.263 3054.81 598.433 3051.61 597.018 3047.51 597.018ZM3533.04 596.389C3529.78 596.389 3527.13 597.475 3525.09 599.646 3523.05 601.817 3521.83 604.505 3521.41 607.71L3543.1 607.71C3543.1 604.116 3542.21 601.331 3540.41 599.354 3538.61 597.378 3536.16 596.389 3533.04 596.389ZM3490.72 589.606 3501.14 589.606 3501.14 638.885C3501.14 644.785 3499.64 649.322 3496.63 652.497 3493.62 655.671 3489.67 657.258 3484.79 657.258 3482.42 657.258 3480.25 656.929 3478.28 656.27 3476.3 655.611 3474.67 654.758 3473.38 653.71L3478.32 646.792C3479.25 647.481 3480.18 647.99 3481.11 648.319 3482.03 648.648 3483.02 648.813 3484.07 648.813 3486.23 648.813 3487.87 648.102 3489.01 646.679 3490.15 645.257 3490.72 642.854 3490.72 639.469ZM3272.09 589.606 3283.5 589.606 3294.06 620.108C3294.39 621.036 3294.64 621.86 3294.82 622.579 3295 623.298 3295.21 624.181 3295.45 625.229L3295.67 625.229C3295.88 624.181 3296.1 623.313 3296.33 622.624 3296.55 621.935 3296.81 621.126 3297.11 620.198L3307.76 589.606 3318.49 589.606 3297.11 644.77C3295.52 648.873 3293.39 651.98 3290.71 654.092 3288.03 656.203 3284.77 657.258 3280.94 657.258 3279.08 657.258 3277.34 657.056 3275.71 656.652 3274.07 656.248 3272.52 655.611 3271.06 654.743L3275.59 647.376C3276.52 647.915 3277.36 648.297 3278.11 648.521 3278.86 648.746 3279.64 648.858 3280.45 648.858 3281.85 648.858 3283.06 648.506 3284.06 647.802 3285.07 647.099 3285.97 645.818 3286.78 643.962L3290.15 636.145ZM3079.88 589.606 3090.26 589.606 3090.26 616.514C3090.26 620.408 3091.01 623.328 3092.5 625.274 3094 627.221 3096.34 628.194 3099.51 628.194 3102.72 628.194 3105.34 627.026 3107.37 624.69 3109.41 622.354 3110.43 619.404 3110.43 615.841L3110.43 589.606 3120.89 589.606 3120.89 635.606 3110.43 635.606 3110.43 629.362 3110.25 629.362C3108.75 631.608 3106.74 633.39 3104.21 634.708 3101.68 636.025 3099.02 636.684 3096.23 636.684 3090.84 636.684 3086.77 635.082 3084.01 631.878 3081.26 628.673 3079.88 624.016 3079.88 617.907ZM3424.25 588.798C3425.42 588.798 3426.5 588.887 3427.49 589.067 3428.48 589.247 3429.54 589.591 3430.68 590.1L3427.8 598.995C3426.96 598.665 3426.1 598.403 3425.22 598.209 3424.34 598.014 3423.4 597.917 3422.41 597.917 3419.33 597.917 3416.83 599.294 3414.91 602.05 3412.99 604.805 3412.03 608.398 3412.03 612.831L3412.03 635.606 3401.57 635.606 3401.57 589.606 3412.03 589.606 3412.03 597.917 3412.21 597.917C3413.29 594.982 3414.88 592.728 3416.98 591.156 3419.07 589.584 3421.5 588.798 3424.25 588.798ZM3263.84 588.798C3265 588.798 3266.08 588.887 3267.07 589.067 3268.06 589.247 3269.12 589.591 3270.26 590.1L3267.39 598.995C3266.55 598.665 3265.69 598.403 3264.8 598.209 3263.92 598.014 3262.98 597.917 3262 597.917 3258.91 597.917 3256.41 599.294 3254.49 602.05 3252.58 604.805 3251.62 608.398 3251.62 612.831L3251.62 635.606 3241.15 635.606 3241.15 589.606 3251.62 589.606 3251.62 597.917 3251.8 597.917C3252.88 594.982 3254.46 592.728 3256.56 591.156 3258.66 589.584 3261.08 588.798 3263.84 588.798ZM3661.13 588.528C3664.45 588.528 3667.51 589.112 3670.32 590.28 3673.12 591.448 3675.34 593.245 3676.99 595.671L3670.61 600.927C3669.32 599.399 3667.91 598.269 3666.38 597.535 3664.86 596.801 3663.06 596.434 3660.99 596.434 3658.84 596.434 3657.14 596.898 3655.9 597.827 3654.65 598.755 3654.03 600.058 3654.03 601.735 3654.03 603.232 3654.62 604.415 3655.81 605.284 3656.99 606.152 3659.26 606.901 3662.61 607.53 3667.76 608.428 3671.61 610.046 3674.16 612.382 3676.7 614.718 3677.97 617.892 3677.97 621.905 3677.97 626.517 3676.32 630.133 3673.01 632.754 3669.7 635.374 3665.62 636.684 3660.77 636.684 3656.64 636.684 3653.04 635.921 3649.99 634.393 3646.93 632.866 3644.52 630.74 3642.76 628.014L3649.22 622.579C3650.84 624.825 3652.59 626.412 3654.48 627.341 3656.37 628.269 3658.49 628.733 3660.86 628.733 3663.17 628.733 3665.02 628.224 3666.43 627.206 3667.84 626.188 3668.54 624.72 3668.54 622.803 3668.54 621.366 3667.9 620.123 3666.63 619.075 3665.36 618.027 3663.34 617.248 3660.59 616.739 3654.66 615.631 3650.53 613.909 3648.21 611.573 3645.89 609.237 3644.73 606.332 3644.73 602.858 3644.73 598.546 3646.27 595.079 3649.36 592.459 3652.44 589.838 3656.37 588.528 3661.13 588.528ZM3583.45 588.528C3587.43 588.528 3591.02 589.367 3594.23 591.044 3597.43 592.721 3599.86 595.221 3601.5 598.546L3593.33 602.678C3591.89 600.612 3590.36 599.152 3588.72 598.299 3587.09 597.445 3585.2 597.018 3583.04 597.018 3579.33 597.018 3576.27 598.396 3573.86 601.151 3571.44 603.906 3570.24 607.755 3570.24 612.696 3570.24 617.578 3571.43 621.351 3573.81 624.016 3576.19 626.682 3579.39 628.014 3583.4 628.014 3585.44 628.014 3587.32 627.588 3589.04 626.734 3590.76 625.881 3592.31 624.436 3593.69 622.399L3601.73 627.026C3599.69 630.26 3597.06 632.679 3593.85 634.281 3590.63 635.883 3587.07 636.684 3583.18 636.684 3575.75 636.684 3569.96 634.551 3565.81 630.283 3561.67 626.015 3559.59 620.393 3559.59 613.415 3559.59 605.718 3561.8 599.646 3566.22 595.199 3570.64 590.752 3576.38 588.528 3583.45 588.528ZM3532.86 588.528C3539.33 588.528 3544.34 590.46 3547.89 594.323 3551.44 598.186 3553.21 603.786 3553.21 611.124L3553.21 615.167 3521.45 615.167C3521.54 619.599 3522.75 622.931 3525.07 625.162 3527.39 627.393 3530.24 628.509 3533.63 628.509 3536.02 628.509 3538.15 627.947 3540 626.824 3541.86 625.701 3543.43 624.031 3544.72 621.815L3552.76 626.173C3550.67 629.527 3547.99 632.117 3544.74 633.944 3541.49 635.771 3537.67 636.684 3533.27 636.684 3526.5 636.684 3521.08 634.648 3517 630.575 3512.93 626.502 3510.89 620.647 3510.89 613.01 3510.89 605.733 3512.98 599.833 3517.16 595.311 3521.34 590.789 3526.57 588.528 3532.86 588.528ZM3458.56 588.528C3465.81 588.528 3471.53 590.729 3475.72 595.132 3479.91 599.534 3482.01 605.224 3482.01 612.202 3482.01 619.329 3479.8 625.192 3475.38 629.789 3470.97 634.386 3465.14 636.684 3457.89 636.684 3450.61 636.684 3444.83 634.543 3440.55 630.26 3436.27 625.978 3434.12 620.213 3434.12 612.966 3434.15 605.628 3436.43 599.721 3440.95 595.244 3445.47 590.767 3451.34 588.528 3458.56 588.528ZM3372.71 588.528C3378.82 588.528 3383.58 590.55 3387 594.593 3390.41 598.635 3392.12 604.266 3392.12 611.483 3392.12 619.03 3390.21 625.117 3386.39 629.744 3382.57 634.371 3377.47 636.684 3371.1 636.684 3368.13 636.684 3365.49 636.19 3363.17 635.202 3360.85 634.214 3358.86 632.746 3357.21 630.8L3357.03 630.8 3357.03 656.764 3346.57 656.764 3346.57 589.606 3357.03 589.606 3357.03 596.165 3357.21 596.165C3359.04 593.619 3361.26 591.71 3363.89 590.437 3366.51 589.164 3369.45 588.528 3372.71 588.528ZM3158.82 588.528C3163.92 588.528 3167.79 590.145 3170.46 593.38 3173.12 596.614 3174.46 601.241 3174.46 607.26L3174.46 635.606 3164.03 635.606 3164.03 608.698C3164.03 604.895 3163.28 601.997 3161.77 600.006 3160.25 598.014 3157.99 597.018 3154.96 597.018 3151.7 597.018 3149.04 598.179 3146.99 600.5 3144.94 602.821 3143.91 605.778 3143.91 609.372L3143.91 635.606 3133.44 635.606 3133.44 589.606 3143.91 589.606 3143.91 595.85 3144.04 595.85C3145.69 593.514 3147.81 591.71 3150.4 590.437 3152.99 589.164 3155.8 588.528 3158.82 588.528ZM3047.78 588.528C3055.03 588.528 3060.75 590.729 3064.94 595.132 3069.13 599.534 3071.23 605.224 3071.23 612.202 3071.23 619.329 3069.02 625.192 3064.6 629.789 3060.19 634.386 3054.35 636.684 3047.11 636.684 3039.83 636.684 3034.05 634.543 3029.77 630.26 3025.48 625.978 3023.34 620.213 3023.34 612.966 3023.37 605.628 3025.65 599.721 3030.17 595.244 3034.69 590.767 3040.56 588.528 3047.78 588.528ZM3623.93 576.489 3623.93 589.606 3635.66 589.606 3635.66 597.782 3623.93 597.782 3623.93 623.298C3623.93 625.124 3624.3 626.472 3625.04 627.341 3625.77 628.209 3626.88 628.643 3628.38 628.643 3629.16 628.643 3629.92 628.494 3630.67 628.194 3631.42 627.895 3632.22 627.311 3633.05 626.442L3637.73 632.507C3636.35 633.824 3634.75 634.843 3632.92 635.561 3631.09 636.28 3629.04 636.639 3626.76 636.639 3622.39 636.639 3619.09 635.539 3616.86 633.338 3614.63 631.136 3613.51 627.91 3613.51 623.657L3613.51 597.782 3605.79 597.782 3605.79 589.606 3613.51 589.606 3613.51 578.331ZM2982.22 571.188 3016.98 571.188 3016.98 580.352 2992.91 580.352 2992.91 599.579 3015.1 599.579 3015.1 608.698 2992.91 608.698 2992.91 635.606 2982.22 635.606ZM3495.97 568.178C3497.98 568.178 3499.6 568.807 3500.83 570.065 3502.05 571.323 3502.67 572.865 3502.67 574.692 3502.67 576.549 3502.05 578.099 3500.83 579.342 3499.6 580.584 3497.98 581.206 3495.97 581.206 3494 581.206 3492.39 580.569 3491.15 579.297 3489.9 578.024 3489.28 576.489 3489.28 574.692 3489.28 572.865 3489.9 571.323 3491.15 570.065 3492.39 568.807 3494 568.178 3495.97 568.178ZM3218.27 567.505 3228.74 567.505 3228.74 635.606 3218.27 635.606 3218.27 629.227 3218.09 629.227C3216.41 631.683 3214.3 633.54 3211.76 634.798 3209.21 636.055 3206.32 636.684 3203.09 636.684 3196.92 636.684 3192.06 634.64 3188.51 630.552 3184.96 626.465 3183.19 620.842 3183.19 613.684 3183.19 605.958 3185.17 599.833 3189.14 595.311 3193.11 590.789 3198.4 588.528 3205.02 588.528 3207.89 588.528 3210.49 589.097 3212.81 590.235 3215.13 591.373 3216.89 592.811 3218.09 594.548L3218.27 594.548Z" fill="url(#fill10)" fill-rule="evenodd"/><text fill="#000000" fill-opacity="0" font-family="Arial,Arial_MSFontService,sans-serif" font-size="89.7538" x="2982.22" y="646.039">Foundry projects</text></g></svg>