<svg width="3400" height="1669" xmlns="http://www.w3.org/2000/svg" xmlns:xlink="http://www.w3.org/1999/xlink" xml:space="preserve" overflow="hidden"><defs><radialGradient cx="771082" cy="137496" r="263248" fx="1017939" fy="228936" gradientUnits="userSpaceOnUse" spreadMethod="pad" id="fill0" gradientTransform="matrix(0.000360892 0 0 0.000360892 896.698 881.642)"><stop offset="0"/><stop offset="0.46602"/><stop offset="0.8"/><stop offset="1"/></radialGradient><radialGradient cx="771082" cy="137495" r="483390" fx="1245745" fy="228935" gradientUnits="userSpaceOnUse" spreadMethod="pad" id="fill1" gradientTransform="matrix(0.000360892 0 0 0.000360892 896.698 1054.44)"><stop offset="0"/><stop offset="0.46602"/><stop offset="0.8"/><stop offset="1"/></radialGradient><radialGradient cx="779268" cy="137496" r="386419" fx="1154712" fy="228935" gradientUnits="userSpaceOnUse" spreadMethod="pad" id="fill2" gradientTransform="matrix(0.000360892 0 0 0.000360892 896.698 1216.61)"><stop offset="0"/><stop offset="0.46602"/><stop offset="0.8"/><stop offset="1"/></radialGradient><radialGradient cx="779268" cy="137496" r="386419" fx="1154712" fy="228935" gradientUnits="userSpaceOnUse" spreadMethod="pad" id="fill3" gradientTransform="matrix(0.000360892 0 0 0.000360892 896.698 1216.61)"><stop offset="0"/><stop offset="0.46602"/><stop offset="0.8"/><stop offset="1"/></radialGradient><radialGradient cx="771082" cy="137496" r="338804" fx="1097314" fy="228935" gradientUnits="userSpaceOnUse" spreadMethod="pad" id="fill4" gradientTransform="matrix(0.000360892 0 0 0.000360892 896.698 1396.74)"><stop offset="0"/><stop offset="0.46602"/><stop offset="0.8"/><stop offset="1"/></radialGradient><radialGradient cx="771082" cy="137496" r="285697" fx="1041751" fy="228935" gradientUnits="userSpaceOnUse" spreadMethod="pad" id="fill5" gradientTransform="matrix(0.000360892 0 0 0.000360892 896.698 1567.48)"><stop offset="0"/><stop offset="0.46602"/><stop offset="0.8"/><stop offset="1"/></radialGradient><radialGradient cx="771082" cy="137496" r="328117" fx="1086201" fy="228935" gradientUnits="userSpaceOnUse" spreadMethod="pad" id="fill6" gradientTransform="matrix(0.000360892 0 0 0.000360892 896.698 1736.62)"><stop offset="0"/><stop offset="0.46602"/><stop offset="0.8"/><stop offset="1"/></radialGradient><radialGradient cx="477210" cy="137496" r="171641" fx="622466" fy="228936" gradientUnits="userSpaceOnUse" spreadMethod="pad" id="fill7" gradientTransform="matrix(0.000360892 0 0 0.000360892 298.956 1278.26)"><stop offset="0"/><stop offset="0.46602"/><stop offset="0.8"/><stop offset="1"/></radialGradient><linearGradient x1="850.693" y1="493.678" x2="880.205" y2="709.645" gradientUnits="userSpaceOnUse" spreadMethod="reflect" id="fill8"><stop offset="0" stop-color="#73262F"/><stop offset="0.99" stop-color="#2A446F"/><stop offset="1" stop-color="#2A446F"/></linearGradient><radialGradient cx="1068186" cy="1118062" r="1546313" fx="2136371" fy="2236124" gradientUnits="userSpaceOnUse" spreadMethod="pad" id="fill9" gradientTransform="matrix(0.000360892 0 0 0.000360892 2375 755)"><stop offset="0" stop-color="#73262F" stop-opacity="0.101961"/><stop offset="0.8" stop-color="#2A446F" stop-opacity="0.101961"/><stop offset="1" stop-color="#2A446F" stop-opacity="0.101961"/></radialGradient><linearGradient x1="2744.53" y1="440.035" x2="2777.97" y2="654.827" gradientUnits="userSpaceOnUse" spreadMethod="reflect" id="fill10"><stop offset="0" stop-color="#73262F"/><stop offset="0.99" stop-color="#2A446F"/><stop offset="1" stop-color="#2A446F"/></linearGradient></defs><g transform="translate(-117 -351)"><path d="M184.5 501.992C184.5 476.315 205.315 455.5 230.992 455.5L1507.01 455.5C1532.68 455.5 1553.5 476.315 1553.5 501.992L1553.5 1882.01C1553.5 1907.68 1532.68 1928.5 1507.01 1928.5L230.992 1928.5C205.315 1928.5 184.5 1907.68 184.5 1882.01Z" stroke="#B1B3B3" stroke-width="4.58333" stroke-linecap="round" stroke-miterlimit="8" fill="#FFFFFF" fill-rule="evenodd"/><path d="M883 913.56C883 888.398 903.398 868 928.56 868L1421.44 868C1446.6 868 1467 888.398 1467 913.56L1467 955.44C1467 980.602 1446.6 1001 1421.44 1001L928.56 1001C903.398 1001 883 980.602 883 955.44Z" fill="#8DC8E8" fill-rule="evenodd"/><path d="M1155.06 929.186C1152.61 929.186 1150.65 930.059 1149.18 931.805 1147.71 933.55 1146.97 935.811 1146.97 938.586 1146.97 941.468 1147.7 943.729 1149.15 945.367 1150.6 947.005 1152.57 947.824 1155.06 947.824 1157.53 947.824 1159.44 946.978 1160.81 945.286 1162.17 943.594 1162.85 941.307 1162.85 938.425 1162.85 935.65 1162.16 933.416 1160.79 931.724 1159.42 930.032 1157.51 929.186 1155.06 929.186ZM1199.68 928.81C1197.73 928.81 1196.15 929.459 1194.93 930.757 1193.71 932.055 1192.98 933.662 1192.73 935.578L1205.7 935.578C1205.7 933.429 1205.16 931.764 1204.09 930.583 1203.01 929.401 1201.55 928.81 1199.68 928.81ZM1174.33 924.755 1180.56 924.755 1180.56 954.216C1180.56 957.743 1179.66 960.455 1177.86 962.353 1176.06 964.251 1173.7 965.199 1170.79 965.199 1169.37 965.199 1168.07 965.003 1166.89 964.609 1165.71 964.215 1164.74 963.705 1163.97 963.078L1166.92 958.942C1167.47 959.354 1168.03 959.658 1168.58 959.855 1169.14 960.052 1169.73 960.151 1170.36 960.151 1171.65 960.151 1172.63 959.725 1173.31 958.875 1173.99 958.025 1174.33 956.588 1174.33 954.565ZM1134.75 924.272C1135.44 924.272 1136.09 924.325 1136.68 924.433 1137.27 924.54 1137.91 924.746 1138.59 925.051L1136.87 930.368C1136.37 930.171 1135.85 930.014 1135.32 929.898 1134.8 929.782 1134.24 929.723 1133.65 929.723 1131.8 929.723 1130.31 930.547 1129.16 932.194 1128.01 933.841 1127.44 935.99 1127.44 938.639L1127.44 952.255 1121.18 952.255 1121.18 924.755 1127.44 924.755 1127.44 929.723 1127.55 929.723C1128.19 927.969 1129.14 926.622 1130.4 925.682 1131.65 924.742 1133.1 924.272 1134.75 924.272ZM1229.92 924.111C1232.3 924.111 1234.45 924.612 1236.37 925.615 1238.28 926.617 1239.73 928.112 1240.72 930.099L1235.83 932.57C1234.97 931.335 1234.05 930.462 1233.08 929.952 1232.1 929.441 1230.97 929.186 1229.68 929.186 1227.46 929.186 1225.63 930.01 1224.19 931.657 1222.75 933.304 1222.03 935.605 1222.03 938.559 1222.03 941.477 1222.74 943.733 1224.16 945.326 1225.59 946.92 1227.5 947.717 1229.9 947.717 1231.11 947.717 1232.24 947.461 1233.27 946.951 1234.3 946.441 1235.22 945.577 1236.05 944.36L1240.85 947.126C1239.64 949.059 1238.06 950.505 1236.14 951.463 1234.21 952.421 1232.09 952.9 1229.76 952.9 1225.32 952.9 1221.86 951.624 1219.38 949.073 1216.9 946.521 1215.66 943.16 1215.66 938.989 1215.66 934.387 1216.98 930.757 1219.62 928.099 1222.26 925.44 1225.7 924.111 1229.92 924.111ZM1199.58 924.111C1203.44 924.111 1206.44 925.265 1208.56 927.575 1210.68 929.885 1211.74 933.233 1211.74 937.619L1211.74 940.036 1192.75 940.036C1192.81 942.686 1193.53 944.677 1194.92 946.011 1196.3 947.345 1198.01 948.012 1200.03 948.012 1201.46 948.012 1202.74 947.676 1203.85 947.005 1204.96 946.333 1205.9 945.335 1206.67 944.01L1211.47 946.615C1210.22 948.621 1208.62 950.169 1206.68 951.261 1204.74 952.354 1202.45 952.9 1199.82 952.9 1195.77 952.9 1192.53 951.682 1190.1 949.247 1187.66 946.812 1186.44 943.312 1186.44 938.747 1186.44 934.396 1187.69 930.869 1190.19 928.166 1192.69 925.462 1195.82 924.111 1199.58 924.111ZM1155.22 924.111C1159.55 924.111 1162.97 925.427 1165.48 928.058 1167.98 930.69 1169.24 934.092 1169.24 938.263 1169.24 942.525 1167.92 946.029 1165.28 948.777 1162.64 951.526 1159.15 952.9 1154.82 952.9 1150.47 952.9 1147.01 951.62 1144.45 949.059 1141.89 946.499 1140.61 943.053 1140.61 938.72 1140.63 934.334 1141.99 930.802 1144.69 928.125 1147.4 925.449 1150.9 924.111 1155.22 924.111ZM1096.76 918.981 1096.76 933.591 1101.01 933.591C1103.67 933.591 1105.72 932.933 1107.14 931.617 1108.57 930.301 1109.28 928.443 1109.28 926.044 1109.28 923.735 1108.61 921.98 1107.28 920.781 1105.94 919.581 1103.97 918.981 1101.36 918.981ZM1254.58 916.913 1254.58 924.755 1261.58 924.755 1261.58 929.643 1254.58 929.643 1254.58 944.897C1254.58 945.989 1254.8 946.795 1255.23 947.314 1255.67 947.833 1256.34 948.093 1257.23 948.093 1257.7 948.093 1258.16 948.003 1258.6 947.824 1259.05 947.645 1259.53 947.296 1260.03 946.777L1262.82 950.402C1262 951.19 1261.04 951.799 1259.95 952.228 1258.85 952.658 1257.63 952.873 1256.27 952.873 1253.65 952.873 1251.68 952.215 1250.35 950.899 1249.01 949.583 1248.35 947.654 1248.35 945.112L1248.35 929.643 1243.73 929.643 1243.73 924.755 1248.35 924.755 1248.35 918.014ZM1090.37 913.744 1102.24 913.744C1106.66 913.744 1110.06 914.778 1112.43 916.846 1114.81 918.914 1115.99 921.891 1115.99 925.776 1115.99 929.732 1114.67 932.901 1112.02 935.282 1109.37 937.664 1105.8 938.854 1101.3 938.854L1096.76 938.854 1096.76 952.255 1090.37 952.255ZM1177.47 911.945C1178.67 911.945 1179.64 912.321 1180.37 913.073 1181.11 913.825 1181.48 914.747 1181.48 915.839 1181.48 916.949 1181.11 917.876 1180.37 918.619 1179.64 919.362 1178.67 919.733 1177.47 919.733 1176.29 919.733 1175.33 919.353 1174.59 918.592 1173.84 917.831 1173.47 916.913 1173.47 915.839 1173.47 914.747 1173.84 913.825 1174.59 913.073 1175.33 912.321 1176.29 911.945 1177.47 911.945Z" fill="url(#fill0)" fill-rule="evenodd"/><text fill="#000000" fill-opacity="0" font-family="Arial,Arial_MSFontService,sans-serif" font-size="53.2544" x="1090.37" y="958.543">Project</text><path d="M883 1086.56C883 1061.4 903.398 1041 928.56 1041L1421.44 1041C1446.6 1041 1467 1061.4 1467 1086.56L1467 1128.44C1467 1153.6 1446.6 1174 1421.44 1174L928.56 1174C903.398 1174 883 1153.6 883 1128.44Z" fill="#8DC8E8" fill-rule="evenodd"/><path d="M1217.88 1101.99C1215.61 1101.99 1213.75 1102.75 1212.31 1104.27 1210.87 1105.79 1210.15 1107.74 1210.15 1110.12L1210.15 1113.51C1210.15 1115.53 1210.82 1117.22 1212.18 1118.58 1213.53 1119.94 1215.23 1120.63 1217.29 1120.63 1219.62 1120.63 1221.45 1119.74 1222.78 1117.97 1224.12 1116.19 1224.78 1113.8 1224.78 1110.8 1224.78 1107.88 1224.17 1105.68 1222.94 1104.2 1221.72 1102.73 1220.03 1101.99 1217.88 1101.99ZM1248.67 1101.61C1246.72 1101.61 1245.13 1102.26 1243.91 1103.56 1242.7 1104.86 1241.96 1106.46 1241.71 1108.38L1254.68 1108.38C1254.68 1106.23 1254.15 1104.57 1253.07 1103.38 1252 1102.2 1250.53 1101.61 1248.67 1101.61ZM1132.37 1101.61C1130.41 1101.61 1128.83 1102.26 1127.61 1103.56 1126.39 1104.86 1125.66 1106.46 1125.41 1108.38L1138.38 1108.38C1138.38 1106.23 1137.84 1104.57 1136.77 1103.38 1135.7 1102.2 1134.23 1101.61 1132.37 1101.61ZM1067.68 1097.56 1073.88 1097.56 1073.88 1113.64C1073.88 1115.97 1074.33 1117.72 1075.23 1118.88 1076.12 1120.04 1077.52 1120.63 1079.42 1120.63 1081.33 1120.63 1082.9 1119.93 1084.11 1118.53 1085.33 1117.13 1085.94 1115.37 1085.94 1113.24L1085.94 1097.56 1092.2 1097.56 1092.2 1125.06 1085.94 1125.06 1085.94 1121.32 1085.83 1121.32C1084.94 1122.67 1083.73 1123.73 1082.22 1124.52 1080.71 1125.31 1079.12 1125.7 1077.45 1125.7 1074.23 1125.7 1071.8 1124.74 1070.15 1122.83 1068.5 1120.91 1067.68 1118.13 1067.68 1114.48ZM1041.87 1097.56 1063.09 1097.56 1063.09 1101.13 1048.69 1120.06 1063.54 1120.06 1063.54 1125.06 1040.88 1125.06 1040.88 1121.38 1055.22 1102.55 1041.87 1102.55ZM1113.26 1097.07C1113.96 1097.07 1114.6 1097.13 1115.2 1097.23 1115.79 1097.34 1116.42 1097.55 1117.1 1097.85L1115.38 1103.17C1114.88 1102.97 1114.37 1102.82 1113.84 1102.7 1113.31 1102.58 1112.75 1102.52 1112.16 1102.52 1110.32 1102.52 1108.82 1103.35 1107.68 1105 1106.53 1106.64 1105.96 1108.79 1105.96 1111.44L1105.96 1125.06 1099.7 1125.06 1099.7 1097.56 1105.96 1097.56 1105.96 1102.52 1106.06 1102.52C1106.71 1100.77 1107.66 1099.42 1108.91 1098.48 1110.16 1097.54 1111.61 1097.07 1113.26 1097.07ZM1281.59 1096.91C1284.64 1096.91 1286.95 1097.88 1288.55 1099.81 1290.14 1101.75 1290.94 1104.51 1290.94 1108.11L1290.94 1125.06 1284.71 1125.06 1284.71 1108.97C1284.71 1106.7 1284.26 1104.96 1283.35 1103.77 1282.45 1102.58 1281.09 1101.99 1279.28 1101.99 1277.33 1101.99 1275.74 1102.68 1274.52 1104.07 1273.29 1105.46 1272.68 1107.22 1272.68 1109.37L1272.68 1125.06 1266.42 1125.06 1266.42 1097.56 1272.68 1097.56 1272.68 1101.29 1272.76 1101.29C1273.74 1099.89 1275.01 1098.81 1276.56 1098.05 1278.11 1097.29 1279.78 1096.91 1281.59 1096.91ZM1248.56 1096.91C1252.43 1096.91 1255.42 1098.07 1257.54 1100.38 1259.66 1102.69 1260.73 1106.03 1260.73 1110.42L1260.73 1112.84 1241.74 1112.84C1241.79 1115.49 1242.51 1117.48 1243.9 1118.81 1245.29 1120.15 1246.99 1120.81 1249.02 1120.81 1250.45 1120.81 1251.72 1120.48 1252.83 1119.81 1253.94 1119.13 1254.88 1118.14 1255.65 1116.81L1260.46 1119.42C1259.2 1121.42 1257.61 1122.97 1255.66 1124.06 1253.72 1125.15 1251.43 1125.7 1248.8 1125.7 1244.76 1125.7 1241.51 1124.48 1239.08 1122.05 1236.65 1119.61 1235.43 1116.11 1235.43 1111.55 1235.43 1107.2 1236.68 1103.67 1239.17 1100.97 1241.67 1098.26 1244.8 1096.91 1248.56 1096.91ZM1219.6 1096.91C1223.25 1096.91 1226.1 1098.12 1228.14 1100.54 1230.18 1102.95 1231.2 1106.32 1231.2 1110.64 1231.2 1115.15 1230.06 1118.79 1227.78 1121.55 1225.5 1124.32 1222.45 1125.7 1218.63 1125.7 1216.86 1125.7 1215.28 1125.41 1213.89 1124.81 1212.51 1124.22 1211.32 1123.35 1210.34 1122.18L1210.23 1122.18 1210.23 1137.71 1203.97 1137.71 1203.97 1097.56 1210.23 1097.56 1210.23 1101.48 1210.34 1101.48C1211.43 1099.96 1212.76 1098.81 1214.32 1098.05 1215.89 1097.29 1217.65 1096.91 1219.6 1096.91ZM1132.26 1096.91C1136.13 1096.91 1139.12 1098.07 1141.24 1100.38 1143.36 1102.69 1144.42 1106.03 1144.42 1110.42L1144.42 1112.84 1125.44 1112.84C1125.49 1115.49 1126.21 1117.48 1127.6 1118.81 1128.99 1120.15 1130.69 1120.81 1132.71 1120.81 1134.15 1120.81 1135.42 1120.48 1136.53 1119.81 1137.64 1119.13 1138.58 1118.14 1139.35 1116.81L1144.15 1119.42C1142.9 1121.42 1141.3 1122.97 1139.36 1124.06 1137.42 1125.15 1135.13 1125.7 1132.5 1125.7 1128.45 1125.7 1125.21 1124.48 1122.78 1122.05 1120.34 1119.61 1119.13 1116.11 1119.13 1111.55 1119.13 1107.2 1120.37 1103.67 1122.87 1100.97 1125.37 1098.26 1128.5 1096.91 1132.26 1096.91ZM1312.3 1092.99C1312.15 1093.42 1312.04 1093.8 1311.95 1094.12 1311.86 1094.44 1311.74 1094.8 1311.6 1095.19L1306.34 1110.5 1318.39 1110.5 1313.13 1095.22C1312.99 1094.83 1312.87 1094.47 1312.77 1094.16 1312.67 1093.85 1312.57 1093.46 1312.46 1092.99ZM1021.83 1092.99C1021.69 1093.42 1021.57 1093.8 1021.48 1094.12 1021.39 1094.44 1021.27 1094.8 1021.13 1095.19L1015.87 1110.5 1027.92 1110.5 1022.66 1095.22C1022.52 1094.83 1022.4 1094.47 1022.3 1094.16 1022.2 1093.85 1022.1 1093.46 1021.99 1092.99ZM1179.91 1091.62C1176.24 1091.62 1173.28 1092.92 1171.03 1095.52 1168.79 1098.11 1167.66 1101.56 1167.66 1105.85 1167.66 1110.12 1168.77 1113.54 1170.99 1116.13 1173.21 1118.71 1176.09 1120.01 1179.61 1120.01 1183.23 1120.01 1186.14 1118.73 1188.34 1116.18 1190.54 1113.63 1191.64 1110.22 1191.64 1105.96 1191.64 1101.56 1190.57 1098.07 1188.42 1095.49 1186.27 1092.91 1183.44 1091.62 1179.91 1091.62ZM1335.29 1086.55 1341.69 1086.55 1341.69 1125.06 1335.29 1125.06ZM1308.91 1086.55 1316.11 1086.55 1330.34 1125.06 1323.47 1125.06 1320.14 1115.93 1304.62 1115.93 1301.42 1125.06 1294.57 1125.06ZM1018.44 1086.55 1025.64 1086.55 1039.88 1125.06 1033 1125.06 1029.67 1115.93 1014.15 1115.93 1010.95 1125.06 1004.1 1125.06ZM1180.18 1085.9C1185.58 1085.9 1189.97 1087.69 1193.32 1091.26 1196.68 1094.83 1198.36 1099.55 1198.36 1105.43 1198.36 1111.48 1196.62 1116.37 1193.13 1120.1 1189.65 1123.83 1185.13 1125.7 1179.56 1125.7 1174.06 1125.7 1169.59 1123.91 1166.13 1120.32 1162.68 1116.73 1160.95 1112.05 1160.95 1106.28 1160.95 1100.16 1162.72 1095.23 1166.27 1091.5 1169.81 1087.77 1174.45 1085.9 1180.18 1085.9Z" fill="url(#fill1)" fill-rule="evenodd"/><text fill="#000000" fill-opacity="0" font-family="Arial,Arial_MSFontService,sans-serif" font-size="51.8042" x="1004.1" y="1131.23">Azure OpenAI</text><path d="M883 1248.56C883 1223.4 903.398 1203 928.561 1203L1426.44 1203C1451.6 1203 1472 1223.4 1472 1248.56L1472 1290.44C1472 1315.6 1451.6 1336 1426.44 1336L928.561 1336C903.398 1336 883 1315.6 883 1290.44Z" fill="#8DC8E8" fill-rule="evenodd"/><path d="M1060.59 1255.15C1060.45 1255.58 1060.33 1255.96 1060.24 1256.28 1060.15 1256.61 1060.03 1256.96 1059.89 1257.36L1054.63 1272.66 1066.69 1272.66 1061.42 1257.38C1061.28 1256.99 1061.16 1256.64 1061.06 1256.32 1060.96 1256.01 1060.86 1255.62 1060.75 1255.15ZM1083.59 1248.71 1089.98 1248.71 1089.98 1287.22 1083.59 1287.22ZM1057.21 1248.71 1064.4 1248.71 1078.64 1287.22 1071.76 1287.22 1068.43 1278.09 1052.91 1278.09 1049.71 1287.22 1042.87 1287.22Z" fill="url(#fill2)" fill-rule="evenodd"/><text fill="#000000" fill-opacity="0" font-family="Arial,Arial_MSFontService,sans-serif" font-size="38.5107" x="1042.87" y="1282.41">AI </text><path d="M1245.76 1264.15C1243.41 1264.15 1241.56 1264.99 1240.2 1266.68 1238.84 1268.36 1238.16 1270.76 1238.16 1273.87 1238.16 1276.67 1238.79 1278.85 1240.06 1280.43 1241.34 1282 1243.09 1282.79 1245.33 1282.79 1247.62 1282.79 1249.45 1282 1250.81 1280.43 1252.17 1278.85 1252.85 1276.83 1252.85 1274.36L1252.85 1271.21C1252.85 1269.21 1252.19 1267.53 1250.87 1266.18 1249.56 1264.83 1247.85 1264.15 1245.76 1264.15ZM1150.56 1264.15C1148.11 1264.15 1146.15 1265.02 1144.68 1266.77 1143.22 1268.52 1142.48 1270.78 1142.48 1273.55 1142.48 1276.43 1143.21 1278.69 1144.66 1280.33 1146.11 1281.97 1148.08 1282.79 1150.56 1282.79 1153.04 1282.79 1154.95 1281.94 1156.31 1280.25 1157.67 1278.56 1158.35 1276.27 1158.35 1273.39 1158.35 1270.61 1157.67 1268.38 1156.3 1266.69 1154.93 1265 1153.02 1264.15 1150.56 1264.15ZM1285.25 1259.72 1292.08 1259.72 1298.39 1277.96C1298.58 1278.51 1298.74 1279 1298.84 1279.43 1298.95 1279.86 1299.08 1280.39 1299.22 1281.02L1299.35 1281.02C1299.48 1280.39 1299.61 1279.87 1299.74 1279.46 1299.88 1279.05 1300.03 1278.56 1300.21 1278.01L1306.58 1259.72 1313 1259.72 1300.21 1292.7C1299.26 1295.15 1297.99 1297.01 1296.39 1298.27 1294.78 1299.53 1292.84 1300.16 1290.54 1300.16 1289.43 1300.16 1288.39 1300.04 1287.42 1299.8 1286.44 1299.56 1285.51 1299.18 1284.64 1298.66L1287.35 1294.26C1287.9 1294.58 1288.4 1294.81 1288.85 1294.94 1289.3 1295.08 1289.77 1295.14 1290.25 1295.14 1291.09 1295.14 1291.81 1294.93 1292.41 1294.51 1293.01 1294.09 1293.55 1293.33 1294.04 1292.22L1296.05 1287.54ZM1170.03 1259.72 1176.24 1259.72 1176.24 1275.81C1176.24 1278.13 1176.69 1279.88 1177.58 1281.04 1178.48 1282.21 1179.87 1282.79 1181.77 1282.79 1183.69 1282.79 1185.25 1282.09 1186.47 1280.69 1187.69 1279.3 1188.3 1277.53 1188.3 1275.4L1188.3 1259.72 1194.55 1259.72 1194.55 1287.22 1188.3 1287.22 1188.3 1283.49 1188.19 1283.49C1187.29 1284.83 1186.09 1285.9 1184.58 1286.68 1183.06 1287.47 1181.48 1287.86 1179.81 1287.86 1176.59 1287.86 1174.15 1286.91 1172.51 1284.99 1170.86 1283.08 1170.03 1280.29 1170.03 1276.64ZM1280.36 1259.24C1281.06 1259.24 1281.7 1259.29 1282.29 1259.4 1282.88 1259.51 1283.52 1259.71 1284.2 1260.02L1282.48 1265.33C1281.98 1265.14 1281.46 1264.98 1280.93 1264.86 1280.41 1264.75 1279.85 1264.69 1279.26 1264.69 1277.41 1264.69 1275.92 1265.51 1274.77 1267.16 1273.63 1268.81 1273.05 1270.95 1273.05 1273.6L1273.05 1287.22 1266.8 1287.22 1266.8 1259.72 1273.05 1259.72 1273.05 1264.69 1273.16 1264.69C1273.8 1262.93 1274.75 1261.59 1276.01 1260.65 1277.26 1259.71 1278.71 1259.24 1280.36 1259.24ZM1217.23 1259.08C1220.27 1259.08 1222.59 1260.04 1224.18 1261.98 1225.78 1263.91 1226.57 1266.68 1226.57 1270.27L1226.57 1287.22 1220.34 1287.22 1220.34 1271.13C1220.34 1268.86 1219.89 1267.13 1218.99 1265.94 1218.08 1264.75 1216.73 1264.15 1214.92 1264.15 1212.97 1264.15 1211.38 1264.85 1210.15 1266.23 1208.93 1267.62 1208.31 1269.39 1208.31 1271.54L1208.31 1287.22 1202.06 1287.22 1202.06 1259.72 1208.31 1259.72 1208.31 1263.45 1208.39 1263.45C1209.38 1262.06 1210.64 1260.98 1212.19 1260.22 1213.74 1259.46 1215.42 1259.08 1217.23 1259.08ZM1150.73 1259.08C1155.06 1259.08 1158.48 1260.39 1160.98 1263.02 1163.49 1265.66 1164.74 1269.06 1164.74 1273.23 1164.74 1277.49 1163.42 1280.99 1160.78 1283.74 1158.14 1286.49 1154.66 1287.86 1150.32 1287.86 1145.97 1287.86 1142.52 1286.58 1139.96 1284.02 1137.4 1281.46 1136.12 1278.02 1136.12 1273.69 1136.13 1269.3 1137.49 1265.77 1140.2 1263.09 1142.9 1260.41 1146.41 1259.08 1150.73 1259.08ZM1111.66 1248.71 1132.45 1248.71 1132.45 1254.19 1118.05 1254.19 1118.05 1265.68 1131.32 1265.68 1131.32 1271.13 1118.05 1271.13 1118.05 1287.22 1111.66 1287.22ZM1252.77 1246.51 1259.02 1246.51 1259.02 1287.22 1252.77 1287.22 1252.77 1283.41 1252.66 1283.41C1251.66 1284.87 1250.4 1285.98 1248.87 1286.74 1247.35 1287.49 1245.62 1287.86 1243.69 1287.86 1240 1287.86 1237.1 1286.64 1234.98 1284.2 1232.85 1281.76 1231.79 1278.39 1231.79 1274.11 1231.79 1269.5 1232.98 1265.83 1235.35 1263.13 1237.72 1260.43 1240.89 1259.08 1244.85 1259.08 1246.56 1259.08 1248.12 1259.42 1249.5 1260.1 1250.89 1260.78 1251.94 1261.64 1252.66 1262.67L1252.77 1262.67Z" fill="url(#fill3)" fill-rule="evenodd"/><text fill="#000000" fill-opacity="0" font-family="Arial,Arial_MSFontService,sans-serif" font-size="53.6572" x="1111.66" y="1293.46">Foundry</text><path d="M883 1428.56C883 1403.4 903.398 1383 928.56 1383L1421.44 1383C1446.6 1383 1467 1403.4 1467 1428.56L1467 1470.44C1467 1495.6 1446.6 1516 1421.44 1516L928.56 1516C903.398 1516 883 1495.6 883 1470.44Z" fill="#8DC8E8" fill-rule="evenodd"/><path d="M1201.48 1454.68 1194.85 1455.41C1193.33 1455.57 1192.22 1455.99 1191.52 1456.67 1190.82 1457.35 1190.47 1458.26 1190.47 1459.41 1190.47 1460.57 1190.87 1461.52 1191.67 1462.24 1192.46 1462.97 1193.5 1463.33 1194.77 1463.33 1196.77 1463.33 1198.39 1462.65 1199.63 1461.3 1200.86 1459.95 1201.48 1458.24 1201.48 1456.18ZM1168.75 1443.91C1166.79 1443.91 1165.21 1444.56 1163.99 1445.86 1162.77 1447.16 1162.04 1448.76 1161.79 1450.68L1174.76 1450.68C1174.76 1448.53 1174.22 1446.87 1173.15 1445.68 1172.08 1444.5 1170.61 1443.91 1168.75 1443.91ZM1228.13 1439.37C1228.83 1439.37 1229.47 1439.43 1230.07 1439.53 1230.66 1439.64 1231.29 1439.85 1231.97 1440.15L1230.25 1445.47C1229.75 1445.27 1229.24 1445.12 1228.71 1445 1228.18 1444.88 1227.62 1444.82 1227.03 1444.82 1225.19 1444.82 1223.69 1445.65 1222.55 1447.3 1221.4 1448.94 1220.83 1451.09 1220.83 1453.74L1220.83 1467.36 1214.57 1467.36 1214.57 1439.86 1220.83 1439.86 1220.83 1444.82 1220.93 1444.82C1221.58 1443.07 1222.53 1441.72 1223.78 1440.78 1225.03 1439.84 1226.48 1439.37 1228.13 1439.37ZM1248.26 1439.21C1250.64 1439.21 1252.79 1439.71 1254.7 1440.72 1256.62 1441.72 1258.07 1443.21 1259.05 1445.2L1254.16 1447.67C1253.3 1446.44 1252.39 1445.56 1251.41 1445.05 1250.44 1444.54 1249.3 1444.29 1248.01 1444.29 1245.79 1444.29 1243.96 1445.11 1242.52 1446.76 1241.08 1448.41 1240.36 1450.71 1240.36 1453.66 1240.36 1456.58 1241.07 1458.83 1242.5 1460.43 1243.92 1462.02 1245.83 1462.82 1248.23 1462.82 1249.45 1462.82 1250.57 1462.56 1251.6 1462.05 1252.63 1461.54 1253.56 1460.68 1254.38 1459.46L1259.19 1462.23C1257.97 1464.16 1256.4 1465.61 1254.47 1466.56 1252.55 1467.52 1250.42 1468 1248.09 1468 1243.65 1468 1240.19 1466.73 1237.71 1464.17 1235.24 1461.62 1234 1458.26 1234 1454.09 1234 1449.49 1235.32 1445.86 1237.96 1443.2 1240.6 1440.54 1244.03 1439.21 1248.26 1439.21ZM1196.78 1439.21C1200.26 1439.21 1202.91 1440.12 1204.75 1441.94 1206.58 1443.75 1207.5 1446.39 1207.5 1449.85L1207.5 1467.36 1201.46 1467.36 1201.46 1463.95 1201.35 1463.95C1200.38 1465.27 1199.2 1466.28 1197.8 1466.97 1196.41 1467.66 1194.85 1468 1193.13 1468 1190.59 1468 1188.51 1467.28 1186.89 1465.83 1185.27 1464.38 1184.46 1462.48 1184.46 1460.13 1184.46 1457.61 1185.27 1455.58 1186.89 1454.05 1188.51 1452.52 1190.83 1451.58 1193.86 1451.24L1201.48 1450.38 1201.48 1449.07C1201.48 1447.37 1201.01 1446.09 1200.06 1445.24 1199.11 1444.39 1197.87 1443.97 1196.33 1443.97 1194.8 1443.97 1193.52 1444.31 1192.49 1444.99 1191.45 1445.67 1190.59 1446.64 1189.91 1447.91L1185.23 1445.52C1186.17 1443.68 1187.63 1442.17 1189.64 1440.98 1191.64 1439.8 1194.03 1439.21 1196.78 1439.21ZM1168.64 1439.21C1172.51 1439.21 1175.5 1440.37 1177.62 1442.68 1179.74 1444.99 1180.8 1448.33 1180.8 1452.72L1180.8 1455.14 1161.82 1455.14C1161.87 1457.79 1162.59 1459.78 1163.98 1461.11 1165.37 1462.45 1167.07 1463.11 1169.09 1463.11 1170.53 1463.11 1171.8 1462.78 1172.91 1462.11 1174.02 1461.43 1174.96 1460.44 1175.73 1459.11L1180.54 1461.72C1179.28 1463.72 1177.68 1465.27 1175.74 1466.36 1173.8 1467.45 1171.51 1468 1168.88 1468 1164.83 1468 1161.59 1466.78 1159.16 1464.35 1156.72 1461.91 1155.51 1458.41 1155.51 1453.85 1155.51 1449.5 1156.75 1445.97 1159.25 1443.27 1161.75 1440.56 1164.88 1439.21 1168.64 1439.21ZM1075.4 1435.29C1075.25 1435.72 1075.14 1436.1 1075.05 1436.42 1074.96 1436.74 1074.84 1437.1 1074.7 1437.49L1069.43 1452.8 1081.49 1452.8 1076.23 1437.52C1076.09 1437.13 1075.96 1436.77 1075.87 1436.46 1075.77 1436.15 1075.66 1435.76 1075.56 1435.29ZM1098.39 1428.85 1104.78 1428.85 1104.78 1467.36 1098.39 1467.36ZM1072.01 1428.85 1079.21 1428.85 1093.44 1467.36 1086.57 1467.36 1083.24 1458.23 1067.72 1458.23 1064.52 1467.36 1057.67 1467.36ZM1139.28 1428.23C1142 1428.23 1144.4 1428.82 1146.47 1430.01 1148.55 1431.2 1150.22 1432.97 1151.47 1435.32L1146.07 1437.95C1145.25 1436.43 1144.27 1435.34 1143.14 1434.67 1142.02 1434.01 1140.65 1433.68 1139.03 1433.68 1137.03 1433.68 1135.47 1434.13 1134.36 1435.04 1133.25 1435.94 1132.7 1437.14 1132.7 1438.65 1132.7 1440.15 1133.21 1441.33 1134.23 1442.19 1135.25 1443.05 1137.08 1443.79 1139.73 1444.4 1143.81 1445.31 1146.8 1446.71 1148.69 1448.61 1150.58 1450.51 1151.52 1453.06 1151.52 1456.27 1151.52 1459.68 1150.39 1462.5 1148.11 1464.7 1145.84 1466.9 1142.6 1468 1138.39 1468 1135.15 1468 1132.33 1467.31 1129.92 1465.93 1127.51 1464.55 1125.74 1462.6 1124.61 1460.08L1130.17 1457.29C1130.98 1459.02 1132.07 1460.32 1133.46 1461.18 1134.85 1462.04 1136.47 1462.47 1138.34 1462.47 1140.56 1462.47 1142.27 1461.99 1143.48 1461.02 1144.69 1460.05 1145.29 1458.7 1145.29 1456.96 1145.29 1455.28 1144.69 1453.94 1143.49 1452.94 1142.29 1451.93 1140.45 1451.14 1137.96 1450.54 1133.91 1449.6 1130.99 1448.25 1129.18 1446.5 1127.37 1444.76 1126.47 1442.41 1126.47 1439.45 1126.47 1435.93 1127.7 1433.17 1130.16 1431.2 1132.62 1429.22 1135.66 1428.23 1139.28 1428.23ZM1264.99 1426.64 1271.24 1426.64 1271.24 1443.56 1271.35 1443.56C1272.32 1442.18 1273.57 1441.11 1275.11 1440.35 1276.65 1439.59 1278.32 1439.21 1280.11 1439.21 1283.06 1439.21 1285.35 1440.16 1286.98 1442.05 1288.61 1443.93 1289.43 1446.71 1289.43 1450.38L1289.43 1467.36 1283.19 1467.36 1283.19 1451.24C1283.19 1448.93 1282.74 1447.2 1281.84 1446.03 1280.93 1444.87 1279.59 1444.29 1277.8 1444.29 1275.85 1444.29 1274.27 1444.98 1273.06 1446.37 1271.85 1447.76 1271.24 1449.53 1271.24 1451.7L1271.24 1467.36 1264.99 1467.36Z" fill="url(#fill4)" fill-rule="evenodd"/><text fill="#000000" fill-opacity="0" font-family="Arial,Arial_MSFontService,sans-serif" font-size="41.3574" x="1057.67" y="1462.83">AI Search</text><path d="M883 1599.56C883 1574.4 903.398 1554 928.56 1554L1421.44 1554C1446.6 1554 1467 1574.4 1467 1599.56L1467 1641.44C1467 1666.6 1446.6 1687 1421.44 1687L928.56 1687C903.398 1687 883 1666.6 883 1641.44Z" fill="#8DC8E8" fill-rule="evenodd"/><path d="M1200.91 1625.42 1194.28 1626.14C1192.75 1626.3 1191.64 1626.72 1190.95 1627.4 1190.25 1628.08 1189.9 1629 1189.9 1630.14 1189.9 1631.31 1190.3 1632.25 1191.09 1632.98 1191.89 1633.7 1192.92 1634.06 1194.2 1634.06 1196.2 1634.06 1197.82 1633.39 1199.06 1632.04 1200.29 1630.68 1200.91 1628.98 1200.91 1626.92ZM1226.16 1615.02C1223.84 1615.02 1221.99 1615.86 1220.63 1617.55 1219.27 1619.23 1218.59 1621.63 1218.59 1624.74 1218.59 1627.52 1219.22 1629.7 1220.48 1631.28 1221.74 1632.87 1223.49 1633.66 1225.73 1633.66 1227.97 1633.66 1229.79 1632.89 1231.18 1631.35 1232.58 1629.81 1233.28 1627.8 1233.28 1625.31L1233.28 1622.11C1233.28 1620.14 1232.62 1618.47 1231.29 1617.09 1229.97 1615.71 1228.26 1615.02 1226.16 1615.02ZM1144.75 1615.02C1142.29 1615.02 1140.33 1615.9 1138.86 1617.64 1137.4 1619.39 1136.66 1621.65 1136.66 1624.42 1136.66 1627.3 1137.39 1629.57 1138.84 1631.2 1140.29 1632.84 1142.26 1633.66 1144.75 1633.66 1147.22 1633.66 1149.13 1632.81 1150.49 1631.12 1151.85 1629.43 1152.53 1627.14 1152.53 1624.26 1152.53 1621.49 1151.85 1619.25 1150.48 1617.56 1149.11 1615.87 1147.2 1615.02 1144.75 1615.02ZM1258.69 1614.65C1256.74 1614.65 1255.16 1615.3 1253.94 1616.59 1252.72 1617.89 1251.99 1619.5 1251.74 1621.41L1264.71 1621.41C1264.71 1619.27 1264.17 1617.6 1263.1 1616.42 1262.02 1615.24 1260.56 1614.65 1258.69 1614.65ZM1178.29 1610.11C1178.99 1610.11 1179.63 1610.16 1180.22 1610.27 1180.81 1610.38 1181.45 1610.58 1182.13 1610.89L1180.41 1616.2C1179.91 1616.01 1179.39 1615.85 1178.87 1615.73 1178.34 1615.62 1177.78 1615.56 1177.19 1615.56 1175.34 1615.56 1173.85 1616.38 1172.7 1618.03 1171.56 1619.68 1170.98 1621.83 1170.98 1624.48L1170.98 1638.09 1164.73 1638.09 1164.73 1610.59 1170.98 1610.59 1170.98 1615.56 1171.09 1615.56C1171.74 1613.81 1172.68 1612.46 1173.94 1611.52 1175.19 1610.58 1176.64 1610.11 1178.29 1610.11ZM1258.59 1609.95C1262.45 1609.95 1265.45 1611.1 1267.57 1613.41 1269.69 1615.72 1270.75 1619.07 1270.75 1623.46L1270.75 1625.87 1251.76 1625.87C1251.82 1628.52 1252.54 1630.51 1253.93 1631.85 1255.31 1633.18 1257.02 1633.85 1259.04 1633.85 1260.47 1633.85 1261.75 1633.51 1262.86 1632.84 1263.97 1632.17 1264.91 1631.17 1265.68 1629.85L1270.48 1632.45C1269.23 1634.46 1267.63 1636.01 1265.69 1637.1 1263.75 1638.19 1261.46 1638.74 1258.83 1638.74 1254.78 1638.74 1251.54 1637.52 1249.11 1635.08 1246.67 1632.65 1245.45 1629.15 1245.45 1624.58 1245.45 1620.23 1246.7 1616.71 1249.2 1614 1251.7 1611.3 1254.83 1609.95 1258.59 1609.95ZM1225.28 1609.95C1226.91 1609.95 1228.41 1610.25 1229.79 1610.86 1231.17 1611.47 1232.28 1612.35 1233.12 1613.49L1233.23 1613.49 1233.23 1610.59 1239.48 1610.59 1239.48 1636.51C1239.48 1641.14 1238.23 1644.73 1235.71 1647.25 1233.19 1649.77 1229.71 1651.04 1225.25 1651.04 1222.4 1651.04 1219.92 1650.53 1217.81 1649.52 1215.7 1648.51 1213.93 1647.06 1212.49 1645.18L1217.03 1641.8C1218.07 1643.25 1219.25 1644.33 1220.56 1645.05 1221.88 1645.76 1223.47 1646.12 1225.33 1646.12 1227.82 1646.12 1229.76 1645.41 1231.14 1643.97 1232.53 1642.54 1233.23 1640.41 1233.23 1637.58L1233.23 1634.41 1233.12 1634.41C1232.12 1635.83 1230.89 1636.9 1229.45 1637.64 1228.01 1638.37 1226.23 1638.74 1224.09 1638.74 1220.51 1638.74 1217.64 1637.53 1215.47 1635.12 1213.31 1632.72 1212.22 1629.35 1212.22 1625.04 1212.22 1620.31 1213.46 1616.62 1215.94 1613.95 1218.42 1611.28 1221.53 1609.95 1225.28 1609.95ZM1196.21 1609.95C1199.68 1609.95 1202.34 1610.86 1204.17 1612.67 1206.01 1614.49 1206.93 1617.13 1206.93 1620.58L1206.93 1638.09 1200.88 1638.09 1200.88 1634.68 1200.78 1634.68C1199.81 1636.01 1198.63 1637.01 1197.23 1637.7 1195.83 1638.39 1194.28 1638.74 1192.56 1638.74 1190.02 1638.74 1187.93 1638.01 1186.31 1636.56 1184.69 1635.11 1183.88 1633.21 1183.88 1630.87 1183.88 1628.34 1184.69 1626.32 1186.31 1624.78 1187.93 1623.25 1190.26 1622.32 1193.28 1621.98L1200.91 1621.12 1200.91 1619.8C1200.91 1618.1 1200.44 1616.83 1199.49 1615.98 1198.54 1615.13 1197.29 1614.7 1195.75 1614.7 1194.23 1614.7 1192.95 1615.04 1191.91 1615.72 1190.87 1616.4 1190.02 1617.38 1189.33 1618.65L1184.66 1616.26C1185.59 1614.41 1187.06 1612.9 1189.07 1611.72 1191.07 1610.54 1193.45 1609.95 1196.21 1609.95ZM1144.91 1609.95C1149.24 1609.95 1152.66 1611.26 1155.17 1613.9 1157.67 1616.53 1158.93 1619.93 1158.93 1624.1 1158.93 1628.36 1157.61 1631.87 1154.96 1634.61 1152.32 1637.36 1148.84 1638.74 1144.5 1638.74 1140.15 1638.74 1136.7 1637.46 1134.14 1634.9 1131.58 1632.34 1130.3 1628.89 1130.3 1624.56 1130.32 1620.17 1131.68 1616.64 1134.38 1613.96 1137.08 1611.29 1140.59 1609.95 1144.91 1609.95ZM1118.79 1602.75 1118.79 1610.59 1125.8 1610.59 1125.8 1615.48 1118.79 1615.48 1118.79 1630.73C1118.79 1631.83 1119.01 1632.63 1119.45 1633.15 1119.89 1633.67 1120.56 1633.93 1121.45 1633.93 1121.92 1633.93 1122.38 1633.84 1122.82 1633.66 1123.27 1633.48 1123.74 1633.13 1124.25 1632.61L1127.04 1636.24C1126.22 1637.03 1125.26 1637.64 1124.17 1638.06 1123.07 1638.49 1121.85 1638.71 1120.49 1638.71 1117.87 1638.71 1115.9 1638.05 1114.56 1636.74 1113.23 1635.42 1112.56 1633.49 1112.56 1630.95L1112.56 1615.48 1107.94 1615.48 1107.94 1610.59 1112.56 1610.59 1112.56 1603.85ZM1094.59 1598.96C1097.31 1598.96 1099.71 1599.56 1101.79 1600.75 1103.86 1601.94 1105.53 1603.71 1106.78 1606.05L1101.38 1608.69C1100.56 1607.16 1099.58 1606.07 1098.46 1605.41 1097.33 1604.75 1095.96 1604.42 1094.35 1604.42 1092.34 1604.42 1090.78 1604.87 1089.67 1605.77 1088.56 1606.68 1088.01 1607.88 1088.01 1609.38 1088.01 1610.89 1088.52 1612.07 1089.54 1612.93 1090.56 1613.79 1092.4 1614.52 1095.05 1615.13 1099.13 1616.04 1102.11 1617.45 1104 1619.35 1105.89 1621.24 1106.83 1623.8 1106.83 1627 1106.83 1630.42 1105.7 1633.23 1103.42 1635.43 1101.15 1637.64 1097.91 1638.74 1093.7 1638.74 1090.46 1638.74 1087.64 1638.05 1085.23 1636.67 1082.82 1635.29 1081.05 1633.34 1079.93 1630.81L1085.48 1628.02C1086.29 1629.76 1087.39 1631.06 1088.77 1631.92 1090.16 1632.77 1091.79 1633.2 1093.65 1633.2 1095.87 1633.2 1097.58 1632.72 1098.79 1631.75 1100 1630.79 1100.6 1629.44 1100.6 1627.7 1100.6 1626.02 1100 1624.67 1098.81 1623.67 1097.61 1622.67 1095.76 1621.87 1093.27 1621.28 1089.23 1620.33 1086.3 1618.98 1084.49 1617.24 1082.68 1615.49 1081.78 1613.14 1081.78 1610.19 1081.78 1606.66 1083.01 1603.91 1085.47 1601.93 1087.93 1599.95 1090.97 1598.96 1094.59 1598.96Z" fill="url(#fill5)" fill-rule="evenodd"/><text fill="#000000" fill-opacity="0" font-family="Arial,Arial_MSFontService,sans-serif" font-size="52.0728" x="1079.93" y="1644.53">Storage</text><path d="M883 1768.56C883 1743.4 903.398 1723 928.56 1723L1421.44 1723C1446.6 1723 1467 1743.4 1467 1768.56L1467 1810.44C1467 1835.6 1446.6 1856 1421.44 1856L928.56 1856C903.398 1856 883 1835.6 883 1810.44Z" fill="#8DC8E8" fill-rule="evenodd"/><path d="M1212.94 1794.56 1206.31 1795.28C1204.79 1795.44 1203.68 1795.86 1202.98 1796.54 1202.28 1797.22 1201.93 1798.14 1201.93 1799.28 1201.93 1800.45 1202.33 1801.39 1203.13 1802.12 1203.92 1802.84 1204.96 1803.2 1206.23 1803.2 1208.23 1803.2 1209.85 1802.53 1211.09 1801.18 1212.32 1799.82 1212.94 1798.12 1212.94 1796.06ZM1109.74 1783.79C1107.78 1783.79 1106.2 1784.44 1104.98 1785.73 1103.76 1787.03 1103.03 1788.64 1102.78 1790.55L1115.75 1790.55C1115.75 1788.41 1115.21 1786.74 1114.14 1785.56 1113.07 1784.38 1111.6 1783.79 1109.74 1783.79ZM1225.52 1779.73 1231.72 1779.73 1231.72 1795.82C1231.72 1798.15 1232.17 1799.89 1233.06 1801.05 1233.96 1802.22 1235.36 1802.8 1237.25 1802.8 1239.17 1802.8 1240.74 1802.1 1241.95 1800.71 1243.17 1799.31 1243.78 1797.55 1243.78 1795.42L1243.78 1779.73 1250.04 1779.73 1250.04 1807.23 1243.78 1807.23 1243.78 1803.5 1243.67 1803.5C1242.78 1804.84 1241.57 1805.91 1240.06 1806.69 1238.55 1807.48 1236.96 1807.88 1235.29 1807.88 1232.07 1807.88 1229.64 1806.92 1227.99 1805 1226.34 1803.09 1225.52 1800.3 1225.52 1796.65ZM1166.53 1779.73 1173.19 1779.73 1179.2 1797.7C1179.42 1798.36 1179.59 1798.93 1179.73 1799.4 1179.86 1799.88 1180.02 1800.45 1180.2 1801.14L1180.3 1801.14C1180.48 1800.45 1180.64 1799.88 1180.79 1799.4 1180.93 1798.93 1181.1 1798.41 1181.3 1797.83L1187.55 1779.73 1194 1779.73 1183.39 1807.23 1176.65 1807.23ZM1124.75 1779.73 1131.57 1779.73 1137.88 1797.97C1138.08 1798.52 1138.23 1799.01 1138.34 1799.44 1138.44 1799.87 1138.57 1800.4 1138.71 1801.03L1138.85 1801.03C1138.97 1800.4 1139.1 1799.88 1139.24 1799.47 1139.37 1799.06 1139.53 1798.58 1139.71 1798.02L1146.07 1779.73 1152.49 1779.73 1139.71 1812.71C1138.76 1815.16 1137.48 1817.02 1135.88 1818.28 1134.28 1819.54 1132.33 1820.18 1130.04 1820.18 1128.93 1820.18 1127.89 1820.06 1126.91 1819.81 1125.93 1819.57 1125.01 1819.19 1124.13 1818.67L1126.84 1814.27C1127.4 1814.59 1127.9 1814.82 1128.35 1814.95 1128.79 1815.09 1129.26 1815.15 1129.74 1815.15 1130.58 1815.15 1131.3 1814.94 1131.9 1814.52 1132.5 1814.1 1133.05 1813.34 1133.53 1812.23L1135.54 1807.55ZM1208.24 1779.09C1211.71 1779.09 1214.37 1780 1216.2 1781.81 1218.04 1783.63 1218.96 1786.27 1218.96 1789.72L1218.96 1807.23 1212.91 1807.23 1212.91 1803.82 1212.81 1803.82C1211.84 1805.15 1210.66 1806.15 1209.26 1806.84 1207.87 1807.53 1206.31 1807.88 1204.59 1807.88 1202.05 1807.88 1199.97 1807.15 1198.34 1805.7 1196.72 1804.25 1195.91 1802.35 1195.91 1800.01 1195.91 1797.48 1196.72 1795.46 1198.34 1793.92 1199.97 1792.39 1202.29 1791.46 1205.31 1791.12L1212.94 1790.26 1212.94 1788.94C1212.94 1787.24 1212.47 1785.97 1211.52 1785.12 1210.57 1784.27 1209.32 1783.84 1207.78 1783.84 1206.26 1783.84 1204.98 1784.18 1203.94 1784.86 1202.91 1785.54 1202.05 1786.52 1201.37 1787.79L1196.69 1785.4C1197.62 1783.55 1199.09 1782.04 1201.1 1780.86 1203.1 1779.68 1205.48 1779.09 1208.24 1779.09ZM1109.63 1779.09C1113.49 1779.09 1116.49 1780.24 1118.61 1782.55 1120.73 1784.86 1121.79 1788.21 1121.79 1792.6L1121.79 1795.01 1102.81 1795.01C1102.86 1797.66 1103.58 1799.65 1104.97 1800.99 1106.36 1802.32 1108.06 1802.99 1110.08 1802.99 1111.52 1802.99 1112.79 1802.65 1113.9 1801.98 1115.01 1801.31 1115.95 1800.31 1116.72 1798.99L1121.52 1801.59C1120.27 1803.6 1118.67 1805.15 1116.73 1806.24 1114.79 1807.33 1112.5 1807.88 1109.87 1807.88 1105.82 1807.88 1102.58 1806.66 1100.15 1804.22 1097.71 1801.79 1096.5 1798.29 1096.5 1793.72 1096.5 1789.37 1097.74 1785.85 1100.24 1783.14 1102.74 1780.44 1105.87 1779.09 1109.63 1779.09ZM1279.21 1771.89 1279.21 1779.73 1286.22 1779.73 1286.22 1784.62 1279.21 1784.62 1279.21 1799.87C1279.21 1800.97 1279.43 1801.77 1279.87 1802.29 1280.31 1802.81 1280.97 1803.07 1281.87 1803.07 1282.34 1803.07 1282.79 1802.98 1283.24 1802.8 1283.69 1802.62 1284.16 1802.27 1284.66 1801.75L1287.46 1805.38C1286.63 1806.17 1285.67 1806.78 1284.58 1807.2 1283.49 1807.63 1282.26 1807.85 1280.9 1807.85 1278.29 1807.85 1276.32 1807.19 1274.98 1805.88 1273.65 1804.56 1272.98 1802.63 1272.98 1800.09L1272.98 1784.62 1268.36 1784.62 1268.36 1779.73 1272.98 1779.73 1272.98 1772.99ZM1065.74 1768.72 1072.13 1768.72 1072.13 1786.42 1072.26 1786.42C1072.39 1786.2 1072.54 1785.98 1072.71 1785.73 1072.88 1785.49 1073.08 1785.22 1073.31 1784.91L1086.25 1768.72 1093.61 1768.72 1078.57 1787.06 1094.74 1807.23 1086.5 1807.23 1073.28 1790.26C1073.05 1789.97 1072.86 1789.71 1072.71 1789.47 1072.55 1789.22 1072.41 1788.99 1072.26 1788.76L1072.13 1788.76 1072.13 1807.23 1065.74 1807.23ZM1257.54 1766.52 1263.8 1766.52 1263.8 1807.23 1257.54 1807.23Z" fill="url(#fill6)" fill-rule="evenodd"/><text fill="#000000" fill-opacity="0" font-family="Arial,Arial_MSFontService,sans-serif" font-size="53.6572" x="1065.74" y="1813.47">Key vault</text><path d="M2.01196-1.09716 213.761 387.207 209.737 389.402-2.01196 1.09716ZM221.626 377.698 222.72 408.424 197.483 390.863Z" transform="matrix(1 0 0 -1 662.5 1333.92)"/><path d="M0.659748-2.19465 201.434 58.1614 200.114 62.5507-0.659748 2.19465ZM200.343 45.8686 222.72 66.9535 192.426 72.2044Z" transform="matrix(1 0 0 -1 662.5 1333.45)"/><path d="M663.468 1331.42 865.416 1425.53 863.48 1429.68 661.532 1335.58ZM866.101 1413.2 885.22 1437.28 854.486 1438.13Z"/><path d="M664.279 1332.06 872.561 1588.78 869.002 1591.66 660.72 1334.94ZM878.572 1578 885.22 1608.02 857.216 1595.32Z"/><path d="M664.549 1332.47 877.017 1757.23 872.918 1759.28 660.45 1334.53ZM885.215 1748.01 885.22 1778.75 860.62 1760.31Z"/><path d="M1.67548-1.56349 207.843 219.371 204.492 222.498-1.67548 1.56349ZM213.094 208.202 221.803 237.689 192.988 226.964Z" transform="matrix(1 0 0 -1 662.5 1333.19)"/><path d="M286 1310.22C286 1285.24 306.245 1265 331.218 1265L611.782 1265C636.755 1265 657 1285.24 657 1310.22L657 1351.78C657 1376.76 636.755 1397 611.782 1397L331.218 1397C306.245 1397 286 1376.76 286 1351.78Z" fill="#8DC8E8" fill-rule="evenodd"/><path d="M508.068 1325.81C505.795 1325.81 503.937 1326.57 502.496 1328.1 501.055 1329.63 500.334 1331.58 500.334 1333.94L500.334 1337.3C500.334 1339.32 500.996 1341.02 502.321 1342.39 503.646 1343.76 505.365 1344.44 507.478 1344.44 509.877 1344.44 511.725 1343.57 513.023 1341.84 514.321 1340.1 514.97 1337.69 514.97 1334.61 514.97 1331.8 514.362 1329.63 513.144 1328.1 511.927 1326.57 510.235 1325.81 508.068 1325.81ZM462.137 1321.37 468.34 1321.37 468.34 1337.46C468.34 1339.79 468.788 1341.53 469.683 1342.7 470.578 1343.86 471.975 1344.44 473.872 1344.44 475.788 1344.44 477.355 1343.74 478.572 1342.35 479.79 1340.95 480.398 1339.19 480.398 1337.06L480.398 1321.37 486.656 1321.37 486.656 1348.87 480.398 1348.87 480.398 1345.14 480.291 1345.14C479.396 1346.48 478.192 1347.55 476.679 1348.34 475.166 1349.12 473.577 1349.52 471.912 1349.52 468.689 1349.52 466.254 1348.56 464.607 1346.65 462.96 1344.73 462.137 1341.95 462.137 1338.29ZM423.241 1310.36 429.633 1310.36 429.633 1326.56 447.76 1326.56 447.76 1310.36 454.178 1310.36 454.178 1348.87 447.76 1348.87 447.76 1332.25 429.633 1332.25 429.633 1348.87 423.241 1348.87ZM494.157 1308.16 500.415 1308.16 500.415 1325.16 500.522 1325.16C501.56 1323.73 502.858 1322.63 504.416 1321.87 505.974 1321.11 507.764 1320.73 509.787 1320.73 513.457 1320.73 516.309 1321.95 518.341 1324.4 520.373 1326.84 521.389 1330.19 521.389 1334.45 521.389 1339.02 520.27 1342.67 518.032 1345.41 515.794 1348.15 512.732 1349.52 508.847 1349.52 507.003 1349.52 505.378 1349.21 503.973 1348.59 502.568 1347.97 501.417 1347.07 500.522 1345.89L500.415 1345.89 500.415 1348.87 494.157 1348.87Z" fill="url(#fill7)" fill-rule="evenodd"/><text fill="#000000" fill-opacity="0" font-family="Arial,Arial_MSFontService,sans-serif" font-size="41.3574" x="423.241" y="1344.35">Hub</text><path d="M744.167 614.467 733.071 615.679C730.526 615.949 728.669 616.653 727.501 617.791 726.333 618.929 725.749 620.456 725.749 622.373 725.749 624.319 726.415 625.899 727.748 627.112 729.081 628.325 730.81 628.931 732.937 628.931 736.291 628.931 739.001 627.801 741.067 625.54 743.134 623.279 744.167 620.426 744.167 616.982ZM1045.1 597.082C1040.99 597.082 1037.71 598.542 1035.26 601.462 1032.8 604.382 1031.57 608.163 1031.57 612.804 1031.57 617.626 1032.79 621.407 1035.21 624.147 1037.64 626.887 1040.93 628.258 1045.1 628.258 1049.23 628.258 1052.43 626.843 1054.71 624.012 1056.98 621.182 1058.12 617.357 1058.12 612.535 1058.12 607.893 1056.98 604.157 1054.69 601.327 1052.4 598.497 1049.2 597.082 1045.1 597.082ZM956.641 597.082C952.838 597.082 949.73 598.355 947.32 600.9 944.909 603.446 943.703 606.71 943.703 610.693L943.703 616.353C943.703 619.737 944.834 622.568 947.095 624.844 949.356 627.12 952.209 628.258 955.653 628.258 959.546 628.258 962.608 626.775 964.839 623.81 967.07 620.845 968.186 616.847 968.186 611.816 968.186 606.935 967.16 603.259 965.109 600.788 963.057 598.317 960.235 597.082 956.641 597.082ZM876.995 597.082C873.072 597.082 869.972 598.489 867.696 601.305 865.42 604.12 864.282 608.133 864.282 613.344 864.282 618.015 865.345 621.669 867.472 624.304 869.598 626.94 872.533 628.258 876.276 628.258 880.11 628.258 883.164 626.94 885.44 624.304 887.716 621.669 888.854 618.285 888.854 614.152L888.854 608.896C888.854 605.542 887.754 602.734 885.553 600.473 883.352 598.212 880.499 597.082 876.995 597.082ZM687.943 597.082C684.14 597.082 681.033 598.362 678.622 600.923 676.211 603.483 675.005 606.74 675.006 610.693L675.006 616.308C675.005 619.693 676.114 622.53 678.33 624.821 680.546 627.112 683.421 628.258 686.955 628.258 690.968 628.258 694.06 626.805 696.231 623.9 698.402 620.995 699.488 616.967 699.488 611.816 699.488 607.114 698.47 603.483 696.433 600.923 694.397 598.362 691.567 597.082 687.943 597.082ZM611.745 597.082C607.942 597.082 604.835 598.362 602.424 600.923 600.013 603.483 598.808 606.74 598.808 610.693L598.808 616.308C598.808 619.693 599.916 622.53 602.132 624.821 604.348 627.112 607.223 628.258 610.757 628.258 614.77 628.258 617.862 626.805 620.033 623.9 622.204 620.995 623.29 616.967 623.29 611.816 623.29 607.114 622.272 603.483 620.235 600.923 618.199 598.362 615.369 597.082 611.745 597.082ZM1119.84 596.453C1116.58 596.453 1113.93 597.539 1111.89 599.71 1109.86 601.881 1108.63 604.569 1108.21 607.773L1129.91 607.773C1129.91 604.179 1129.01 601.394 1127.21 599.418 1125.41 597.441 1122.96 596.453 1119.84 596.453ZM827.084 596.453C823.82 596.453 821.17 597.539 819.133 599.71 817.097 601.881 815.869 604.569 815.45 607.773L837.147 607.773C837.147 604.179 836.248 601.394 834.451 599.418 832.655 597.441 830.199 596.453 827.084 596.453ZM1077.52 589.67 1087.94 589.67 1087.94 638.949C1087.94 644.849 1086.44 649.386 1083.43 652.56 1080.42 655.735 1076.47 657.322 1071.59 657.322 1069.23 657.322 1067.05 656.993 1065.08 656.334 1063.1 655.675 1061.47 654.821 1060.18 653.773L1065.12 646.855C1066.05 647.544 1066.98 648.053 1067.91 648.383 1068.84 648.712 1069.83 648.877 1070.87 648.877 1073.03 648.877 1074.68 648.165 1075.81 646.743 1076.95 645.32 1077.52 642.917 1077.52 639.533ZM534.914 589.67 545.291 589.67 545.291 616.578C545.291 620.471 546.039 623.391 547.537 625.338 549.034 627.284 551.37 628.258 554.545 628.258 557.749 628.258 560.369 627.09 562.406 624.754 564.442 622.418 565.461 619.468 565.461 615.904L565.461 589.67 575.927 589.67 575.927 635.67 565.461 635.67 565.461 629.426 565.281 629.426C563.784 631.672 561.77 633.454 559.239 634.771 556.708 636.089 554.05 636.748 551.265 636.748 545.875 636.748 541.802 635.146 539.047 631.941 536.291 628.737 534.914 624.08 534.914 617.97ZM1011.06 588.861C1012.22 588.861 1013.3 588.951 1014.29 589.131 1015.28 589.31 1016.34 589.655 1017.48 590.164L1014.61 599.058C1013.77 598.729 1012.91 598.467 1012.02 598.272 1011.14 598.078 1010.2 597.98 1009.22 597.98 1006.13 597.98 1003.63 599.358 1001.71 602.113 999.797 604.868 998.838 608.462 998.838 612.894L998.838 635.67 988.371 635.67 988.371 589.67 998.838 589.67 998.838 597.98 999.018 597.98C1000.1 595.045 1001.68 592.792 1003.78 591.219 1005.88 589.647 1008.3 588.861 1011.06 588.861ZM1247.93 588.592C1251.26 588.592 1254.32 589.176 1257.12 590.344 1259.92 591.511 1262.14 593.308 1263.79 595.734L1257.41 600.99C1256.12 599.463 1254.72 598.332 1253.19 597.598 1251.66 596.865 1249.86 596.498 1247.8 596.498 1245.64 596.498 1243.94 596.962 1242.7 597.89 1241.46 598.819 1240.83 600.122 1240.83 601.799 1240.83 603.296 1241.43 604.479 1242.61 605.347 1243.79 606.216 1246.06 606.965 1249.41 607.594 1254.57 608.492 1258.41 610.109 1260.96 612.445 1263.5 614.781 1264.78 617.956 1264.78 621.969 1264.78 626.581 1263.12 630.197 1259.81 632.817 1256.5 635.438 1252.42 636.748 1247.57 636.748 1243.44 636.748 1239.85 635.984 1236.79 634.457 1233.74 632.929 1231.33 630.803 1229.56 628.078L1236.03 622.642C1237.64 624.888 1239.4 626.476 1241.28 627.404 1243.17 628.332 1245.3 628.797 1247.66 628.797 1249.97 628.797 1251.83 628.288 1253.23 627.269 1254.64 626.251 1255.34 624.784 1255.34 622.867 1255.34 621.429 1254.71 620.187 1253.43 619.138 1252.16 618.09 1250.15 617.312 1247.39 616.802 1241.46 615.694 1237.34 613.972 1235.02 611.636 1232.7 609.301 1231.54 606.396 1231.54 602.922 1231.54 598.609 1233.08 595.143 1236.16 592.522 1239.25 589.902 1243.17 588.592 1247.93 588.592ZM1170.25 588.592C1174.23 588.592 1177.83 589.43 1181.03 591.107 1184.24 592.784 1186.66 595.285 1188.31 598.609L1180.13 602.742C1178.69 600.676 1177.16 599.216 1175.53 598.362 1173.9 597.509 1172 597.082 1169.85 597.082 1166.13 597.082 1163.07 598.459 1160.66 601.215 1158.25 603.97 1157.04 607.818 1157.04 612.76 1157.04 617.641 1158.23 621.414 1160.61 624.08 1162.99 626.745 1166.19 628.078 1170.2 628.078 1172.24 628.078 1174.12 627.651 1175.84 626.798 1177.56 625.944 1179.11 624.499 1180.49 622.463L1188.53 627.09C1186.5 630.324 1183.87 632.742 1180.65 634.344 1177.43 635.947 1173.87 636.748 1169.98 636.748 1162.55 636.748 1156.77 634.614 1152.62 630.346 1148.47 626.079 1146.4 620.456 1146.4 613.478 1146.4 605.782 1148.6 599.71 1153.02 595.263 1157.44 590.815 1163.18 588.592 1170.25 588.592ZM1119.66 588.592C1126.13 588.592 1131.14 590.523 1134.69 594.387 1138.24 598.25 1140.01 603.85 1140.01 611.187L1140.01 615.23 1108.25 615.23C1108.34 619.663 1109.55 622.994 1111.87 625.225 1114.19 627.456 1117.04 628.572 1120.43 628.572 1122.82 628.572 1124.95 628.01 1126.81 626.887 1128.66 625.764 1130.24 624.095 1131.52 621.879L1139.57 626.236C1137.47 629.59 1134.8 632.181 1131.55 634.008 1128.3 635.834 1124.47 636.748 1120.07 636.748 1113.3 636.748 1107.88 634.711 1103.81 630.638 1099.73 626.566 1097.7 620.711 1097.7 613.074 1097.7 605.797 1099.79 599.897 1103.96 595.375 1108.14 590.853 1113.38 588.592 1119.66 588.592ZM1045.36 588.592C1052.61 588.592 1058.33 590.793 1062.53 595.195 1066.72 599.597 1068.81 605.288 1068.81 612.265 1068.81 619.393 1066.61 625.255 1062.19 629.852 1057.77 634.449 1051.94 636.748 1044.69 636.748 1037.41 636.748 1031.63 634.607 1027.35 630.324 1023.07 626.041 1020.93 620.276 1020.93 613.029 1020.96 605.692 1023.23 599.785 1027.76 595.307 1032.28 590.83 1038.15 588.592 1045.36 588.592ZM959.516 588.592C965.625 588.592 970.387 590.613 973.801 594.656 977.215 598.699 978.922 604.329 978.922 611.547 978.922 619.094 977.013 625.18 973.195 629.807 969.376 634.434 964.278 636.748 957.899 636.748 954.934 636.748 952.291 636.254 949.97 635.265 947.649 634.277 945.665 632.81 944.018 630.863L943.838 630.863 943.838 656.828 933.371 656.828 933.371 589.67 943.838 589.67 943.838 596.228 944.018 596.228C945.845 593.683 948.068 591.774 950.689 590.501 953.309 589.228 956.252 588.592 959.516 588.592ZM826.905 588.592C833.373 588.592 838.382 590.523 841.931 594.387 845.48 598.25 847.254 603.85 847.254 611.187L847.254 615.23 815.494 615.23C815.584 619.663 816.79 622.994 819.111 625.225 821.432 627.456 824.284 628.572 827.668 628.572 830.064 628.572 832.19 628.01 834.047 626.887 835.904 625.764 837.476 624.095 838.764 621.879L846.805 626.236C844.709 629.59 842.036 632.181 838.786 634.008 835.537 635.834 831.711 636.748 827.309 636.748 820.541 636.748 815.12 634.711 811.047 630.638 806.974 626.566 804.938 620.711 804.938 613.074 804.938 605.797 807.027 599.897 811.204 595.375 815.382 590.853 820.616 588.592 826.905 588.592ZM781.578 588.592C784.902 588.592 787.964 589.176 790.764 590.344 793.564 591.511 795.788 593.308 797.435 595.734L791.056 600.99C789.769 599.463 788.361 598.332 786.834 597.598 785.306 596.865 783.509 596.498 781.443 596.498 779.287 596.498 777.587 596.962 776.344 597.89 775.102 598.819 774.48 600.122 774.48 601.799 774.48 603.296 775.072 604.479 776.255 605.347 777.438 606.216 779.706 606.965 783.06 607.594 788.211 608.492 792.06 610.109 794.605 612.445 797.151 614.781 798.423 617.956 798.423 621.969 798.423 626.581 796.769 630.197 793.46 632.817 790.15 635.438 786.07 636.748 781.218 636.748 777.086 636.748 773.492 635.984 770.437 634.457 767.382 632.929 764.972 630.803 763.205 628.078L769.674 622.642C771.291 624.888 773.043 626.476 774.929 627.404 776.816 628.332 778.942 628.797 781.308 628.797 783.614 628.797 785.471 628.288 786.879 627.269 788.286 626.251 788.99 624.784 788.99 622.867 788.99 621.429 788.354 620.187 787.081 619.138 785.808 618.09 783.794 617.312 781.039 616.802 775.109 615.694 770.984 613.972 768.663 611.636 766.342 609.301 765.181 606.396 765.181 602.922 765.181 598.609 766.724 595.143 769.808 592.522 772.893 589.902 776.816 588.592 781.578 588.592ZM736.306 588.592C742.116 588.592 746.555 590.111 749.625 593.151 752.695 596.191 754.229 600.601 754.229 606.381L754.229 635.67 744.122 635.67 744.122 629.965 743.942 629.965C742.325 632.181 740.349 633.865 738.013 635.018 735.677 636.171 733.071 636.748 730.196 636.748 725.944 636.748 722.462 635.535 719.752 633.109 717.042 630.683 715.687 627.509 715.687 623.586 715.687 619.363 717.042 615.971 719.752 613.411 722.462 610.85 726.348 609.286 731.409 608.717L744.167 607.279 744.167 605.078C744.167 602.233 743.373 600.099 741.786 598.677 740.199 597.254 738.117 596.543 735.542 596.543 732.996 596.543 730.855 597.112 729.118 598.25 727.381 599.388 725.944 601.02 724.806 603.146L716.989 599.148C718.547 596.064 721.002 593.533 724.356 591.556 727.711 589.58 731.694 588.592 736.306 588.592ZM1210.74 576.553 1210.74 589.67 1222.46 589.67 1222.46 597.846 1210.74 597.846 1210.74 623.361C1210.74 625.188 1211.1 626.536 1211.84 627.404 1212.57 628.273 1213.69 628.707 1215.19 628.707 1215.96 628.707 1216.73 628.557 1217.48 628.258 1218.22 627.958 1219.02 627.374 1219.86 626.506L1224.53 632.57C1223.15 633.888 1221.55 634.906 1219.72 635.625 1217.9 636.344 1215.84 636.703 1213.57 636.703 1209.2 636.703 1205.89 635.602 1203.66 633.401 1201.43 631.2 1200.32 627.973 1200.32 623.72L1200.32 597.846 1192.59 597.846 1192.59 589.67 1200.32 589.67 1200.32 578.394ZM470.477 571.252 481.168 571.252 481.168 598.34 511.491 598.34 511.491 571.252 522.227 571.252 522.227 635.67 511.491 635.67 511.491 607.863 481.168 607.863 481.168 635.67 470.477 635.67ZM1082.78 568.242C1084.78 568.242 1086.4 568.871 1087.63 570.129 1088.86 571.387 1089.47 572.929 1089.47 574.756 1089.47 576.612 1088.86 578.162 1087.63 579.405 1086.4 580.648 1084.78 581.269 1082.78 581.269 1080.8 581.269 1079.19 580.633 1077.95 579.36 1076.71 578.087 1076.08 576.553 1076.08 574.756 1076.08 572.929 1076.71 571.387 1077.95 570.129 1079.19 568.871 1080.8 568.242 1082.78 568.242ZM888.72 567.568 899.186 567.568 899.186 635.67 888.72 635.67 888.72 629.291 888.54 629.291C886.863 631.747 884.752 633.603 882.206 634.861 879.66 636.119 876.771 636.748 873.536 636.748 867.367 636.748 862.508 634.704 858.959 630.616 855.41 626.528 853.636 620.905 853.636 613.748 853.636 606.021 855.62 599.897 859.588 595.375 863.556 590.853 868.849 588.592 875.468 588.592 878.343 588.592 880.941 589.161 883.262 590.299 885.583 591.437 887.342 592.874 888.54 594.611L888.72 594.611ZM664.674 567.568 675.14 567.568 675.14 596.004 675.32 596.004C677.057 593.608 679.228 591.774 681.834 590.501 684.439 589.228 687.434 588.592 690.818 588.592 696.957 588.592 701.727 590.636 705.126 594.723 708.525 598.811 710.224 604.419 710.224 611.547 710.224 619.183 708.353 625.293 704.609 629.875 700.866 634.457 695.744 636.748 689.246 636.748 686.161 636.748 683.443 636.231 681.092 635.198 678.742 634.165 676.817 632.66 675.32 630.683L675.14 630.683 675.14 635.67 664.674 635.67ZM588.476 567.568 598.942 567.568 598.942 596.004 599.122 596.004C600.859 593.608 603.03 591.774 605.636 590.501 608.241 589.228 611.236 588.592 614.62 588.592 620.759 588.592 625.529 590.636 628.928 594.723 632.327 598.811 634.026 604.419 634.026 611.547 634.026 619.183 632.155 625.293 628.411 629.875 624.668 634.457 619.547 636.748 613.048 636.748 609.963 636.748 607.245 636.231 604.895 635.198 602.544 634.165 600.619 632.66 599.122 630.683L598.942 630.683 598.942 635.67 588.476 635.67Z" fill="url(#fill8)" fill-rule="evenodd"/><text fill="#000000" fill-opacity="0" font-family="Arial,Arial_MSFontService,sans-serif" font-size="89.7538" x="470.477" y="646.103">Hub-based projects</text><path d="M2142.5 500.222C2142.5 476.628 2161.63 457.5 2185.22 457.5L3357.78 457.5C3381.37 457.5 3400.5 476.628 3400.5 500.222L3400.5 1885.78C3400.5 1909.37 3381.37 1928.5 3357.78 1928.5L2185.22 1928.5C2161.63 1928.5 2142.5 1909.37 2142.5 1885.78Z" stroke="#B1B3B3" stroke-width="4.58333" stroke-linecap="round" stroke-miterlimit="8" fill="#FFFFFF" fill-rule="evenodd"/><path d="M2375 844.682C2375 795.152 2415.15 755 2464.68 755L3056.32 755C3105.85 755 3146 795.152 3146 844.682L3146 1472.32C3146 1521.85 3105.85 1562 3056.32 1562L2464.68 1562C2415.15 1562 2375 1521.85 2375 1472.32Z" fill="url(#fill9)" fill-rule="evenodd"/><path d="M2407.5 1295.5 3113.7 1295.5" stroke="#000000" stroke-width="4.58333" stroke-miterlimit="8" stroke-dasharray="18.3333 13.75" fill="none" fill-rule="evenodd"/><text font-family="Segoe UI Variable Display Semibold,Segoe UI Variable Display Semibold_MSFontService,sans-serif" font-weight="600" font-size="64" transform="matrix(1 0 0 1 2602.22 848)">AI </text><text font-family="Segoe UI Variable Display Semibold,Segoe UI Variable Display Semibold_MSFontService,sans-serif" font-weight="600" font-size="64" transform="matrix(1 0 0 1 2677.85 848)">Foundry</text><text font-family="Segoe UI Variable Display Semibold,Segoe UI Variable Display Semibold_MSFontService,sans-serif" font-weight="600" font-size="64" transform="matrix(1 0 0 1 2918.47 848)"> </text><path d="M2437.5 1426.73C2437.5 1411.14 2450.14 1398.5 2465.73 1398.5L3055.27 1398.5C3070.86 1398.5 3083.5 1411.14 3083.5 1426.73L3083.5 1491.27C3083.5 1506.86 3070.86 1519.5 3055.27 1519.5L2465.73 1519.5C2450.14 1519.5 2437.5 1506.86 2437.5 1491.27Z" stroke="#BFBFBF" stroke-width="4.58333" stroke-miterlimit="8" fill="#FFFFFF" fill-rule="evenodd" fill-opacity="0.8"/><text font-family="Segoe UI Variable Display Semibold,Segoe UI Variable Display Semibold_MSFontService,sans-serif" font-weight="600" font-size="55" transform="matrix(1 0 0 1 2469.59 1476)">Connections (Optional)</text><text font-family="Segoe UI Variable Display Semibold,Segoe UI Variable Display Semibold_MSFontService,sans-serif" font-weight="600" font-size="55" transform="matrix(1 0 0 1 3051.1 1476)"> </text><path d="M2437.5 934.726C2437.5 919.137 2450.14 906.5 2465.73 906.5L3055.27 906.5C3070.86 906.5 3083.5 919.137 3083.5 934.726L3083.5 999.274C3083.5 1014.86 3070.86 1027.5 3055.27 1027.5L2465.73 1027.5C2450.14 1027.5 2437.5 1014.86 2437.5 999.274Z" stroke="#BFBFBF" stroke-width="4.58333" stroke-miterlimit="8" fill="#FFFFFF" fill-rule="evenodd" fill-opacity="0.8"/><text font-family="Segoe UI Variable Display Semibold,Segoe UI Variable Display Semibold_MSFontService,sans-serif" font-weight="600" font-size="55" transform="matrix(1 0 0 1 2609.1 984)">Foundry API</text><text font-family="Segoe UI Variable Display Semibold,Segoe UI Variable Display Semibold_MSFontService,sans-serif" font-weight="600" font-size="55" transform="matrix(1 0 0 1 2911.6 984)"> </text><path d="M2437.5 1098.73C2437.5 1083.14 2450.14 1070.5 2465.73 1070.5L3055.27 1070.5C3070.86 1070.5 3083.5 1083.14 3083.5 1098.73L3083.5 1163.27C3083.5 1178.86 3070.86 1191.5 3055.27 1191.5L2465.73 1191.5C2450.14 1191.5 2437.5 1178.86 2437.5 1163.27Z" stroke="#BFBFBF" stroke-width="4.58333" stroke-miterlimit="8" fill="#FFFFFF" fill-rule="evenodd" fill-opacity="0.8"/><text font-family="Segoe UI Variable Display Semibold,Segoe UI Variable Display Semibold_MSFontService,sans-serif" font-weight="600" font-size="55" transform="matrix(1 0 0 1 2540.63 1148)">Azure OpenAI API</text><text font-family="Segoe UI Variable Display Semibold,Segoe UI Variable Display Semibold_MSFontService,sans-serif" font-weight="600" font-size="55" transform="matrix(1 0 0 1 2980.06 1148)"> </text><path d="M2891.63 542.852C2887.52 542.852 2884.24 544.312 2881.79 547.231 2879.33 550.151 2878.1 553.932 2878.1 558.574 2878.1 563.396 2879.32 567.177 2881.74 569.917 2884.17 572.657 2887.46 574.027 2891.63 574.027 2895.76 574.027 2898.96 572.612 2901.24 569.782 2903.51 566.952 2904.65 563.126 2904.65 558.305 2904.65 553.663 2903.51 549.927 2901.22 547.097 2898.93 544.267 2895.73 542.852 2891.63 542.852ZM2803.17 542.852C2799.37 542.852 2796.26 544.124 2793.85 546.67 2791.44 549.216 2790.23 552.48 2790.23 556.463L2790.23 562.123C2790.23 565.507 2791.36 568.337 2793.62 570.613 2795.89 572.889 2798.74 574.027 2802.18 574.027 2806.08 574.027 2809.14 572.545 2811.37 569.58 2813.6 566.615 2814.72 562.617 2814.72 557.586 2814.72 552.704 2813.69 549.028 2811.64 546.558 2809.59 544.087 2806.76 542.852 2803.17 542.852ZM2639.88 542.852C2635.96 542.852 2632.86 544.259 2630.58 547.074 2628.3 549.889 2627.17 553.902 2627.17 559.113 2627.17 563.785 2628.23 567.439 2630.36 570.074 2632.48 572.71 2635.42 574.027 2639.16 574.027 2642.99 574.027 2646.05 572.71 2648.32 570.074 2650.6 567.439 2651.74 564.055 2651.74 559.922L2651.74 554.666C2651.74 551.312 2650.64 548.504 2648.44 546.243 2646.24 543.982 2643.38 542.852 2639.88 542.852ZM2480.84 542.852C2476.74 542.852 2473.46 544.312 2471.01 547.231 2468.55 550.151 2467.32 553.932 2467.32 558.574 2467.32 563.396 2468.54 567.177 2470.96 569.917 2473.39 572.657 2476.68 574.027 2480.84 574.027 2484.98 574.027 2488.18 572.612 2490.46 569.782 2492.73 566.952 2493.87 563.126 2493.87 558.305 2493.87 553.663 2492.73 549.927 2490.43 547.097 2488.14 544.267 2484.95 542.852 2480.84 542.852ZM2966.37 542.223C2963.11 542.223 2960.46 543.308 2958.42 545.48 2956.39 547.651 2955.16 550.339 2954.74 553.543L2976.44 553.543C2976.44 549.949 2975.54 547.164 2973.74 545.188 2971.94 543.211 2969.49 542.223 2966.37 542.223ZM2924.05 535.439 2934.47 535.439 2934.47 584.719C2934.47 590.619 2932.97 595.156 2929.96 598.33 2926.95 601.505 2923 603.092 2918.12 603.092 2915.76 603.092 2913.58 602.762 2911.61 602.104 2909.63 601.445 2908 600.591 2906.71 599.543L2911.65 592.625C2912.58 593.314 2913.51 593.823 2914.44 594.152 2915.37 594.482 2916.35 594.646 2917.4 594.646 2919.56 594.646 2921.21 593.935 2922.34 592.513 2923.48 591.09 2924.05 588.687 2924.05 585.303ZM2705.42 535.439 2716.83 535.439 2727.39 565.941C2727.72 566.87 2727.97 567.693 2728.15 568.412 2728.33 569.131 2728.54 570.014 2728.78 571.062L2729.01 571.062C2729.22 570.014 2729.43 569.146 2729.66 568.457 2729.88 567.768 2730.15 566.96 2730.44 566.031L2741.09 535.439 2751.83 535.439 2730.44 590.604C2728.86 594.706 2726.72 597.813 2724.04 599.925 2721.36 602.036 2718.11 603.092 2714.27 603.092 2712.42 603.092 2710.67 602.89 2709.04 602.485 2707.41 602.081 2705.86 601.445 2704.39 600.576L2708.93 593.209C2709.86 593.748 2710.69 594.13 2711.44 594.354 2712.19 594.579 2712.97 594.691 2713.78 594.691 2715.19 594.691 2716.39 594.34 2717.4 593.636 2718.4 592.932 2719.3 591.652 2720.11 589.795L2723.48 581.979ZM2513.21 535.439 2523.59 535.439 2523.59 562.348C2523.59 566.241 2524.34 569.161 2525.84 571.107 2527.33 573.054 2529.67 574.027 2532.85 574.027 2536.05 574.027 2538.67 572.859 2540.71 570.523 2542.74 568.188 2543.76 565.238 2543.76 561.674L2543.76 535.439 2554.23 535.439 2554.23 581.439 2543.76 581.439 2543.76 575.195 2543.58 575.195C2542.08 577.441 2540.07 579.223 2537.54 580.541 2535.01 581.859 2532.35 582.518 2529.57 582.518 2524.18 582.518 2520.1 580.915 2517.35 577.711 2514.59 574.507 2513.21 569.85 2513.21 563.74ZM2857.59 534.631C2858.75 534.631 2859.83 534.721 2860.82 534.9 2861.81 535.08 2862.87 535.424 2864.01 535.934L2861.14 544.828C2860.3 544.499 2859.44 544.237 2858.55 544.042 2857.67 543.847 2856.73 543.75 2855.75 543.75 2852.66 543.75 2850.16 545.128 2848.24 547.883 2846.33 550.638 2845.37 554.232 2845.37 558.664L2845.37 581.439 2834.9 581.439 2834.9 535.439 2845.37 535.439 2845.37 543.75 2845.55 543.75C2846.63 540.815 2848.21 538.562 2850.31 536.989 2852.41 535.417 2854.83 534.631 2857.59 534.631ZM2697.17 534.631C2698.34 534.631 2699.42 534.721 2700.4 534.9 2701.39 535.08 2702.46 535.424 2703.59 535.934L2700.72 544.828C2699.88 544.499 2699.02 544.237 2698.14 544.042 2697.25 543.847 2696.32 543.75 2695.33 543.75 2692.24 543.75 2689.74 545.128 2687.83 547.883 2685.91 550.638 2684.95 554.232 2684.95 558.664L2684.95 581.439 2674.48 581.439 2674.48 535.439 2684.95 535.439 2684.95 543.75 2685.13 543.75C2686.21 540.815 2687.8 538.562 2689.89 536.989 2691.99 535.417 2694.42 534.631 2697.17 534.631ZM3094.46 534.361C3097.79 534.361 3100.85 534.945 3103.65 536.113 3106.45 537.281 3108.67 539.078 3110.32 541.504L3103.94 546.76C3102.65 545.232 3101.25 544.102 3099.72 543.368 3098.19 542.634 3096.39 542.268 3094.33 542.268 3092.17 542.268 3090.47 542.732 3089.23 543.66 3087.99 544.589 3087.36 545.891 3087.36 547.568 3087.36 549.066 3087.96 550.249 3089.14 551.117 3090.32 551.986 3092.59 552.734 3095.94 553.363 3101.1 554.262 3104.94 555.879 3107.49 558.215 3110.03 560.551 3111.31 563.725 3111.31 567.738 3111.31 572.35 3109.65 575.966 3106.34 578.587 3103.03 581.207 3098.95 582.518 3094.1 582.518 3089.97 582.518 3086.38 581.754 3083.32 580.227 3080.27 578.699 3077.86 576.573 3076.09 573.848L3082.56 568.412C3084.17 570.658 3085.93 572.245 3087.81 573.174 3089.7 574.102 3091.83 574.566 3094.19 574.566 3096.5 574.566 3098.35 574.057 3099.76 573.039 3101.17 572.021 3101.87 570.553 3101.87 568.637 3101.87 567.199 3101.24 565.956 3099.96 564.908 3098.69 563.86 3096.68 563.081 3093.92 562.572 3087.99 561.464 3083.87 559.742 3081.55 557.406 3079.23 555.07 3078.07 552.165 3078.07 548.691 3078.07 544.379 3079.61 540.912 3082.69 538.292 3085.78 535.672 3089.7 534.361 3094.46 534.361ZM3016.78 534.361C3020.76 534.361 3024.36 535.2 3027.56 536.877 3030.77 538.554 3033.19 541.055 3034.84 544.379L3026.66 548.512C3025.22 546.445 3023.69 544.985 3022.06 544.132 3020.43 543.278 3018.53 542.852 3016.38 542.852 3012.66 542.852 3009.6 544.229 3007.19 546.984 3004.78 549.74 3003.57 553.588 3003.57 558.529 3003.57 563.411 3004.76 567.184 3007.14 569.85 3009.52 572.515 3012.72 573.848 3016.73 573.848 3018.77 573.848 3020.65 573.421 3022.37 572.567 3024.09 571.714 3025.64 570.269 3027.02 568.232L3035.06 572.859C3033.03 576.094 3030.4 578.512 3027.18 580.114 3023.96 581.716 3020.4 582.518 3016.51 582.518 3009.08 582.518 3003.3 580.384 2999.15 576.116 2995 571.849 2992.93 566.226 2992.93 559.248 2992.93 551.551 2995.13 545.48 2999.55 541.032 3003.97 536.585 3009.71 534.361 3016.78 534.361ZM2966.19 534.361C2972.66 534.361 2977.67 536.293 2981.22 540.156 2984.77 544.02 2986.54 549.62 2986.54 556.957L2986.54 561 2954.78 561C2954.87 565.432 2956.08 568.764 2958.4 570.995 2960.72 573.226 2963.57 574.342 2966.96 574.342 2969.35 574.342 2971.48 573.78 2973.34 572.657 2975.19 571.534 2976.77 569.865 2978.05 567.648L2986.1 572.006C2984 575.36 2981.33 577.951 2978.08 579.777 2974.83 581.604 2971 582.518 2966.6 582.518 2959.83 582.518 2954.41 580.481 2950.34 576.408 2946.26 572.335 2944.23 566.48 2944.23 558.844 2944.23 551.566 2946.32 545.667 2950.49 541.145 2954.67 536.622 2959.91 534.361 2966.19 534.361ZM2891.89 534.361C2899.14 534.361 2904.86 536.562 2909.05 540.965 2913.25 545.367 2915.34 551.057 2915.34 558.035 2915.34 565.163 2913.14 571.025 2908.72 575.622 2904.3 580.219 2898.47 582.518 2891.22 582.518 2883.94 582.518 2878.16 580.376 2873.88 576.094 2869.6 571.811 2867.46 566.046 2867.46 558.799 2867.49 551.462 2869.76 545.554 2874.29 541.077 2878.81 536.6 2884.68 534.361 2891.89 534.361ZM2806.05 534.361C2812.16 534.361 2816.92 536.383 2820.33 540.426 2823.75 544.469 2825.45 550.099 2825.45 557.316 2825.45 564.863 2823.54 570.95 2819.72 575.577 2815.91 580.204 2810.81 582.518 2804.43 582.518 2801.46 582.518 2798.82 582.023 2796.5 581.035 2794.18 580.047 2792.19 578.579 2790.55 576.633L2790.37 576.633 2790.37 602.598 2779.9 602.598 2779.9 535.439 2790.37 535.439 2790.37 541.998 2790.55 541.998C2792.37 539.453 2794.6 537.543 2797.22 536.271 2799.84 534.998 2802.78 534.361 2806.05 534.361ZM2592.16 534.361C2597.25 534.361 2601.13 535.979 2603.79 539.213 2606.46 542.447 2607.79 547.074 2607.79 553.094L2607.79 581.439 2597.37 581.439 2597.37 554.531C2597.37 550.728 2596.61 547.83 2595.1 545.839 2593.59 543.847 2591.32 542.852 2588.29 542.852 2585.03 542.852 2582.37 544.012 2580.32 546.333 2578.27 548.654 2577.24 551.611 2577.24 555.205L2577.24 581.439 2566.78 581.439 2566.78 535.439 2577.24 535.439 2577.24 541.684 2577.38 541.684C2579.02 539.348 2581.14 537.543 2583.73 536.271 2586.32 534.998 2589.13 534.361 2592.16 534.361ZM2481.11 534.361C2488.36 534.361 2494.08 536.562 2498.27 540.965 2502.47 545.367 2504.56 551.057 2504.56 558.035 2504.56 565.163 2502.35 571.025 2497.94 575.622 2493.52 580.219 2487.69 582.518 2480.44 582.518 2473.16 582.518 2467.38 580.376 2463.1 576.094 2458.82 571.811 2456.68 566.046 2456.68 558.799 2456.71 551.462 2458.98 545.554 2463.5 541.077 2468.03 536.6 2473.9 534.361 2481.11 534.361ZM3057.27 522.322 3057.27 535.439 3068.99 535.439 3068.99 543.615 3057.27 543.615 3057.27 569.131C3057.27 570.958 3057.63 572.305 3058.37 573.174 3059.1 574.042 3060.22 574.477 3061.72 574.477 3062.49 574.477 3063.26 574.327 3064.01 574.027 3064.75 573.728 3065.55 573.144 3066.39 572.275L3071.06 578.34C3069.68 579.658 3068.08 580.676 3066.25 581.395 3064.43 582.113 3062.37 582.473 3060.1 582.473 3055.73 582.473 3052.42 581.372 3050.19 579.171 3047.96 576.97 3046.85 573.743 3046.85 569.49L3046.85 543.615 3039.12 543.615 3039.12 535.439 3046.85 535.439 3046.85 524.164ZM2415.55 517.022 2450.32 517.022 2450.32 526.186 2426.24 526.186 2426.24 545.412 2448.43 545.412 2448.43 554.531 2426.24 554.531 2426.24 581.439 2415.55 581.439ZM2929.31 514.012C2931.31 514.012 2932.93 514.641 2934.16 515.898 2935.39 517.156 2936 518.699 2936 520.525 2936 522.382 2935.39 523.932 2934.16 525.175 2932.93 526.418 2931.31 527.039 2929.31 527.039 2927.33 527.039 2925.72 526.403 2924.48 525.13 2923.24 523.857 2922.61 522.322 2922.61 520.525 2922.61 518.699 2923.24 517.156 2924.48 515.898 2925.72 514.641 2927.33 514.012 2929.31 514.012ZM2651.6 513.338 2662.07 513.338 2662.07 581.439 2651.6 581.439 2651.6 575.061 2651.42 575.061C2649.75 577.516 2647.64 579.373 2645.09 580.631 2642.54 581.889 2639.65 582.518 2636.42 582.518 2630.25 582.518 2625.39 580.474 2621.84 576.386 2618.29 572.298 2616.52 566.675 2616.52 559.518 2616.52 551.791 2618.5 545.667 2622.47 541.145 2626.44 536.622 2631.73 534.361 2638.35 534.361 2641.23 534.361 2643.82 534.93 2646.15 536.068 2648.47 537.206 2650.23 538.644 2651.42 540.381L2651.6 540.381Z" fill="url(#fill10)" fill-rule="evenodd"/><text fill="#000000" fill-opacity="0" font-family="Arial,Arial_MSFontService,sans-serif" font-size="89.7538" x="2415.55" y="591.873">Foundry projects</text><path d="M1.92203-4.16086 961.806 439.239 957.962 447.56-1.92203 4.16086ZM961.485 428.993 980.684 453.008 949.952 453.958Z" fill="#E97132" transform="matrix(1 0 0 -1 1472.5 1270.51)"/></g></svg>